<?xml version="1.0" encoding="UTF-8"?>
<svg width="250px" height="180px" viewBox="0 0 250 180" version="1.1" xmlns="http://www.w3.org/2000/svg" xmlns:xlink="http://www.w3.org/1999/xlink">
    <!-- Generator: Sketch 43.2 (39069) - http://www.bohemiancoding.com/sketch -->
    <title>quiz copy 6</title>
    <desc>Created with Sketch.</desc>
    <defs></defs>
    <g id="telegration" stroke="none" stroke-width="1" fill="none" fill-rule="evenodd">
        <g id="quiz-copy-6">
            <rect id="Rectangle-3-Copy-7" fill="#FFFFFF" x="0" y="0" width="250" height="180"></rect>
            <g id="notepad-2-copy-14" transform="translate(82.000000, 48.000000)">
                <g id="Capa_1">
                    <g id="Group">
                        <path d="M19.7321429,28.8166667 L33.3928571,28.8166667 C34.2322321,28.8166667 34.9107143,28.1387167 34.9107143,27.3 C34.9107143,26.4612833 34.2322321,25.7833333 33.3928571,25.7833333 L19.7321429,25.7833333 C18.8927679,25.7833333 18.2142857,26.4612833 18.2142857,27.3 C18.2142857,28.1387167 18.8927679,28.8166667 19.7321429,28.8166667 L19.7321429,28.8166667 Z" id="Shape" fill="#25356E"></path>
                        <path d="M19.7321429,39.4333333 L27.3214286,39.4333333 C28.1608036,39.4333333 28.8392857,38.7553833 28.8392857,37.9166667 C28.8392857,37.07795 28.1608036,36.4 27.3214286,36.4 L19.7321429,36.4 C18.8927679,36.4 18.2142857,37.07795 18.2142857,37.9166667 C18.2142857,38.7553833 18.8927679,39.4333333 19.7321429,39.4333333 L19.7321429,39.4333333 Z" id="Shape" fill="#25356E"></path>
                        <path d="M39.4642857,39.4333333 L50.0892857,39.4333333 C50.9286607,39.4333333 51.6071429,38.7553833 51.6071429,37.9166667 C51.6071429,37.07795 50.9286607,36.4 50.0892857,36.4 L39.4642857,36.4 C38.6249107,36.4 37.9464286,37.07795 37.9464286,37.9166667 C37.9464286,38.7553833 38.6249107,39.4333333 39.4642857,39.4333333 L39.4642857,39.4333333 Z" id="Shape" fill="#25356E"></path>
                        <path d="M34.4705357,38.9935 C34.74375,38.7053333 34.9107143,38.311 34.9107143,37.9166667 C34.9107143,37.5208167 34.74375,37.1264833 34.4705357,36.8398333 C33.89375,36.2786667 32.8919643,36.2786667 32.3151786,36.8398333 C32.0404464,37.1264833 31.875,37.5208167 31.875,37.9166667 C31.875,38.311 32.0404464,38.7053333 32.3151786,38.9935 C32.6020536,39.28015 32.9815179,39.4333333 33.3928571,39.4333333 C33.7875,39.4333333 34.1821429,39.2665 34.4705357,38.9935 L34.4705357,38.9935 Z" id="Shape" fill="#25356E"></path>
                        <path d="M56.1607143,39.4333333 C56.5705357,39.4333333 56.95,39.2665 57.2383929,38.9935 C57.5116071,38.7053333 57.6785714,38.311 57.6785714,37.9166667 C57.6785714,37.5208167 57.5116071,37.1264833 57.2383929,36.8398333 C56.6616071,36.2786667 55.6598214,36.2786667 55.0830357,36.8398333 C54.8083036,37.1264833 54.6428571,37.5208167 54.6428571,37.9166667 C54.6428571,38.311 54.8083036,38.7053333 55.0830357,38.9935 C55.3699107,39.28015 55.749375,39.4333333 56.1607143,39.4333333 L56.1607143,39.4333333 Z" id="Shape" fill="#25356E"></path>
                        <path d="M24.2857143,48.5333333 C24.2857143,49.37205 24.9641964,50.05 25.8035714,50.05 L36.4285714,50.05 C37.2679464,50.05 37.9464286,49.37205 37.9464286,48.5333333 C37.9464286,47.6946167 37.2679464,47.0166667 36.4285714,47.0166667 L25.8035714,47.0166667 C24.9641964,47.0166667 24.2857143,47.6946167 24.2857143,48.5333333 L24.2857143,48.5333333 Z" id="Shape" fill="#25356E"></path>
                        <path d="M20.8098214,49.6101667 C21.0966964,49.322 21.25,48.9276667 21.25,48.5333333 C21.25,48.1374833 21.0966964,47.74315 20.8098214,47.4565 C20.2330357,46.8953333 19.23125,46.8953333 18.6544643,47.4565 C18.3660714,47.74315 18.2142857,48.1223167 18.2142857,48.5333333 C18.2142857,48.9276667 18.3797321,49.322 18.6544643,49.6101667 C18.9413393,49.8831667 19.3375,50.05 19.7321429,50.05 C20.1267857,50.05 20.5214286,49.8831667 20.8098214,49.6101667 L20.8098214,49.6101667 Z" id="Shape" fill="#25356E"></path>
                        <path d="M28.1183036,56.32445 C24.7941964,58.05345 23.6755357,61.3613 23.2672321,64.7904833 C22.6388393,64.2642 22.0104464,63.7394333 21.3835714,63.21315 C19.8960714,61.9679667 17.7376786,64.1019167 19.2373214,65.3592333 C20.6565179,66.5467833 22.0772321,67.73585 23.4964286,68.9249167 C24.4951786,69.7606 26.0403571,69.2328 26.0874107,67.8526333 C26.1982143,64.5675333 26.3530357,60.6606 29.6513393,58.94525 C31.3847321,58.0413167 29.8516964,55.4220333 28.1183036,56.32445 L28.1183036,56.32445 Z" id="Shape" fill="#25356E"></path>
                        <path d="M38.2120536,62.3729167 C36.1098214,62.8597667 33.7176786,65.5321333 32.2377679,62.5336833 C31.3741071,60.78345 28.7542857,62.3183167 29.6164286,64.064 C30.4026786,65.6549833 31.8932143,66.7697333 33.6675893,66.9942 C34.5691964,67.10795 35.3842857,66.98055 36.2297321,66.6514333 C36.8505357,66.4102833 39.1698214,64.6676333 39.6707143,65.5639833 C40.6239286,67.2687167 43.2467857,65.7414333 42.2920536,64.0336667 C41.4769643,62.5746333 39.8270536,61.9983 38.2120536,62.3729167 L38.2120536,62.3729167 Z" id="Shape" fill="#25356E"></path>
                        <path d="M80.4691964,0 L74.35375,0 C72.3820536,0 70.7169643,1.27248333 70.0961607,3.03333333 L54.6428571,3.03333333 L45.5357143,3.03333333 L45.5357143,1.51666667 C45.5357143,0.67795 44.8572321,0 44.0178571,0 L30.3571429,0 C29.5177679,0 28.8392857,0.67795 28.8392857,1.51666667 L28.8392857,3.03333333 L19.7321429,3.03333333 L0,3.03333333 L0,91 L74.375,91 L74.375,84.1992667 L75.8928571,86.8534333 L75.8928571,89.4833333 C75.8928571,90.32205 76.5713393,91 77.4107143,91 C78.2500893,91 78.9285714,90.32205 78.9285714,89.4833333 L78.9285714,86.8534333 L85,76.2367667 L85,19.7166667 L85,10.6166667 L85,4.52725 C85,2.03081667 82.9675893,0 80.4691964,0 L80.4691964,0 Z M72.8571429,13.65 L81.9642857,13.65 L81.9642857,16.6833333 L72.8571429,16.6833333 L72.8571429,13.65 L72.8571429,13.65 Z M42.5,3.03333333 L42.5,4.55 L42.5,7.58333333 L31.875,7.58333333 L31.875,4.55 L31.875,3.03333333 L42.5,3.03333333 L42.5,3.03333333 Z M28.8392857,6.06666667 L28.8392857,9.1 L28.8392857,10.6166667 L30.3571429,10.6166667 L44.0178571,10.6166667 L45.5357143,10.6166667 L45.5357143,9.1 L45.5357143,6.06666667 L53.125,6.06666667 L53.125,10.6166667 L53.125,12.1333333 L21.25,12.1333333 L21.25,10.6166667 L21.25,6.06666667 L28.8392857,6.06666667 L28.8392857,6.06666667 Z M19.7321429,15.1666667 L54.6428571,15.1666667 L56.1607143,15.1666667 L56.1607143,13.65 L63.75,13.65 L63.75,80.3833333 L10.625,80.3833333 L10.625,13.65 L18.2142857,13.65 L18.2142857,15.1666667 L19.7321429,15.1666667 L19.7321429,15.1666667 Z M71.3392857,87.9666667 L3.03571429,87.9666667 L3.03571429,6.06666667 L18.2142857,6.06666667 L18.2142857,10.6166667 L7.58928571,10.6166667 L7.58928571,83.4166667 L66.7857143,83.4166667 L66.7857143,10.6166667 L56.1607143,10.6166667 L56.1607143,6.06666667 L69.8214286,6.06666667 L69.8214286,10.6166667 L69.8214286,19.7166667 L69.8214286,76.2367667 L71.3392857,78.8909333 L71.3392857,87.9666667 L71.3392857,87.9666667 Z M73.9545536,77.35 L80.866875,77.35 L77.4107143,83.3924 L74.375,78.0840667 L73.9545536,77.35 L73.9545536,77.35 Z M81.9642857,74.3166667 L72.8571429,74.3166667 L72.8571429,19.7166667 L81.9642857,19.7166667 L81.9642857,74.3166667 L81.9642857,74.3166667 Z M72.8571429,10.6166667 L72.8571429,4.52725 C72.8571429,3.7037 73.5280357,3.03333333 74.3522321,3.03333333 L80.4676786,3.03333333 C81.2933929,3.03333333 81.9642857,3.7037 81.9642857,4.52725 L81.9642857,10.6166667 L72.8571429,10.6166667 L72.8571429,10.6166667 Z" id="Shape" fill="#231F20"></path>
                    </g>
                </g>
            </g>
        </g>
    </g>
</svg>