<?xml version="1.0" encoding="UTF-8"?>
<svg width="250px" height="180px" viewBox="0 0 250 180" version="1.1" xmlns="http://www.w3.org/2000/svg" xmlns:xlink="http://www.w3.org/1999/xlink">
    <!-- Generator: Sketch 43.2 (39069) - http://www.bohemiancoding.com/sketch -->
    <title>document copy 8</title>
    <desc>Created with Sketch.</desc>
    <defs></defs>
    <g id="telegration" stroke="none" stroke-width="1" fill="none" fill-rule="evenodd">
        <g id="document-copy-8">
            <rect id="Rectangle-3-Copy-6" fill="#FFFFFF" x="0" y="0" width="250" height="180"></rect>
            <g id="document-copy-2" transform="translate(90.000000, 52.000000)">
                <g id="Capa_1">
                    <g id="Group">
                        <path d="M42.5139167,0 L0.645833333,0 L0.645833333,78 L61.3541667,78 L61.3541667,18.9618 L42.5139167,0 L42.5139167,0 Z M43.2708333,4.4382 L56.9444167,18.2 L43.2708333,18.2 L43.2708333,4.4382 L43.2708333,4.4382 Z M3.22916667,75.4 L3.22916667,2.6 L40.6875,2.6 L40.6875,20.8 L58.7708333,20.8 L58.7708333,75.4 L3.22916667,75.4 L3.22916667,75.4 Z" id="Shape" fill="#73A5FB"></path>
                        <path d="M13.5625,22.1 L25.1875,22.1 C25.9005,22.1 26.4791667,21.5189 26.4791667,20.8 C26.4791667,20.0811 25.9005,19.5 25.1875,19.5 L13.5625,19.5 C12.8495,19.5 12.2708333,20.0811 12.2708333,20.8 C12.2708333,21.5189 12.8495,22.1 13.5625,22.1 L13.5625,22.1 Z" id="Shape" fill="#3BD6DB"></path>
                        <path d="M35.5208333,48.1 L13.5625,48.1 C12.8495,48.1 12.2708333,48.6811 12.2708333,49.4 C12.2708333,50.1189 12.8495,50.7 13.5625,50.7 L35.5208333,50.7 C36.2338333,50.7 36.8125,50.1189 36.8125,49.4 C36.8125,48.6811 36.2338333,48.1 35.5208333,48.1 L35.5208333,48.1 Z" id="Shape" fill="#3BD6DB"></path>
                        <path d="M48.4375,39 L39.3958333,39 C38.6828333,39 38.1041667,39.5811 38.1041667,40.3 C38.1041667,41.0189 38.6828333,41.6 39.3958333,41.6 L48.4375,41.6 C49.1505,41.6 49.7291667,41.0189 49.7291667,40.3 C49.7291667,39.5811 49.1505,39 48.4375,39 L48.4375,39 Z" id="Shape" fill="#3BD6DB"></path>
                        <path d="M13.5625,32.5 L20.0208333,32.5 C20.7338333,32.5 21.3125,31.9189 21.3125,31.2 C21.3125,30.4811 20.7338333,29.9 20.0208333,29.9 L13.5625,29.9 C12.8495,29.9 12.2708333,30.4811 12.2708333,31.2 C12.2708333,31.9189 12.8495,32.5 13.5625,32.5 L13.5625,32.5 Z" id="Shape" fill="#3BD6DB"></path>
                        <path d="M32.9375,32.5 L41.9791667,32.5 C42.6921667,32.5 43.2708333,31.9189 43.2708333,31.2 C43.2708333,30.4811 42.6921667,29.9 41.9791667,29.9 L32.9375,29.9 C32.2245,29.9 31.6458333,30.4811 31.6458333,31.2 C31.6458333,31.9189 32.2245,32.5 32.9375,32.5 L32.9375,32.5 Z" id="Shape" fill="#3BD6DB"></path>
                        <path d="M25.1875,31.2 C25.1875,31.538 25.3295833,31.876 25.5620833,32.123 C25.8075,32.357 26.1433333,32.5 26.4791667,32.5 C26.815,32.5 27.1508333,32.357 27.39625,32.123 C27.62875,31.876 27.7708333,31.538 27.7708333,31.2 C27.7708333,30.8607 27.62875,30.5227 27.39625,30.277 C26.9183333,29.796 26.0529167,29.796 25.5620833,30.277 C25.3295833,30.5227 25.1875,30.8607 25.1875,31.2 L25.1875,31.2 Z" id="Shape" fill="#3BD6DB"></path>
                        <path d="M20.0208333,39 C19.3078333,39 18.7291667,39.5811 18.7291667,40.3 C18.7291667,41.0189 19.3078333,41.6 20.0208333,41.6 L32.9375,41.6 C33.6505,41.6 34.2291667,41.0189 34.2291667,40.3 C34.2291667,39.5811 33.6505,39 32.9375,39 L20.0208333,39 L20.0208333,39 Z" id="Shape" fill="#3BD6DB"></path>
                        <path d="M13.5625,41.6 C13.8983333,41.6 14.2341667,41.457 14.4795833,41.223 C14.7120833,40.976 14.8541667,40.638 14.8541667,40.3 C14.8541667,39.9607 14.7120833,39.6227 14.4795833,39.377 C14.0016667,38.896 13.1233333,38.896 12.6454167,39.377 C12.4129167,39.6227 12.2708333,39.9477 12.2708333,40.3 C12.2708333,40.638 12.4129167,40.976 12.6454167,41.223 C12.8908333,41.457 13.2266667,41.6 13.5625,41.6 L13.5625,41.6 Z" id="Shape" fill="#3BD6DB"></path>
                        <path d="M48.4375,57.2 L39.3958333,57.2 C38.6828333,57.2 38.1041667,57.7811 38.1041667,58.5 C38.1041667,59.2189 38.6828333,59.8 39.3958333,59.8 L48.4375,59.8 C49.1505,59.8 49.7291667,59.2189 49.7291667,58.5 C49.7291667,57.7811 49.1505,57.2 48.4375,57.2 L48.4375,57.2 Z" id="Shape" fill="#3BD6DB"></path>
                        <path d="M32.9375,57.2 L20.0208333,57.2 C19.3078333,57.2 18.7291667,57.7811 18.7291667,58.5 C18.7291667,59.2189 19.3078333,59.8 20.0208333,59.8 L32.9375,59.8 C33.6505,59.8 34.2291667,59.2189 34.2291667,58.5 C34.2291667,57.7811 33.6505,57.2 32.9375,57.2 L32.9375,57.2 Z" id="Shape" fill="#3BD6DB"></path>
                        <path d="M12.6454167,57.577 C12.4129167,57.811 12.2708333,58.1477 12.2708333,58.5 C12.2708333,58.851 12.4,59.176 12.6454167,59.423 C12.8908333,59.657 13.2266667,59.8 13.5625,59.8 C13.91125,59.8 14.2341667,59.657 14.4795833,59.423 C14.7120833,59.176 14.8541667,58.838 14.8541667,58.5 C14.8541667,58.1477 14.7120833,57.8227 14.4795833,57.59 C14.0016667,57.096 13.13625,57.096 12.6454167,57.577 L12.6454167,57.577 Z" id="Shape" fill="#3BD6DB"></path>
                        <path d="M47.5204167,30.277 C47.2879167,30.5227 47.1458333,30.8607 47.1458333,31.2 C47.1458333,31.538 47.2879167,31.876 47.5204167,32.123 C47.7658333,32.357 48.1016667,32.5 48.4375,32.5 C48.7733333,32.5 49.1091667,32.357 49.3545833,32.123 C49.6,31.876 49.7291667,31.538 49.7291667,31.2 C49.7291667,30.8607 49.6,30.5227 49.3545833,30.277 C48.86375,29.796 48.01125,29.796 47.5204167,30.277 L47.5204167,30.277 Z" id="Shape" fill="#3BD6DB"></path>
                        <path d="M42.89625,50.323 C43.12875,50.076 43.2708333,49.738 43.2708333,49.4 C43.2708333,49.0607 43.12875,48.7227 42.89625,48.477 C42.4054167,47.996 41.54,47.996 41.0620833,48.477 C40.8295833,48.7227 40.6875,49.0607 40.6875,49.4 C40.6875,49.738 40.8295833,50.076 41.0620833,50.323 C41.3075,50.5687 41.6304167,50.7 41.9791667,50.7 C42.3279167,50.7 42.6508333,50.557 42.89625,50.323 L42.89625,50.323 Z" id="Shape" fill="#3BD6DB"></path>
                        <path d="M47.5204167,48.477 C47.2879167,48.7227 47.1458333,49.0607 47.1458333,49.4 C47.1458333,49.738 47.2879167,50.076 47.5204167,50.323 C47.7658333,50.557 48.08875,50.7 48.4375,50.7 C48.78625,50.7 49.1091667,50.557 49.3545833,50.323 C49.5870833,50.076 49.7291667,49.738 49.7291667,49.4 C49.7291667,49.0607 49.5870833,48.7227 49.3545833,48.477 C48.8766667,47.996 47.9983333,47.996 47.5204167,48.477 L47.5204167,48.477 Z" id="Shape" fill="#3BD6DB"></path>
                    </g>
                </g>
            </g>
        </g>
    </g>
</svg>