<?xml version="1.0" encoding="UTF-8"?>
<svg width="250px" height="180px" viewBox="0 0 250 180" version="1.1" xmlns="http://www.w3.org/2000/svg" xmlns:xlink="http://www.w3.org/1999/xlink">
    <!-- Generator: Sketch 43.2 (39069) - http://www.bohemiancoding.com/sketch -->
    <title>image copy 4</title>
    <desc>Created with Sketch.</desc>
    <defs></defs>
    <g id="telegration" stroke="none" stroke-width="1" fill="none" fill-rule="evenodd">
        <g id="image-copy-4">
            <rect id="Rectangle-3-Copy-8" fill="#FFFFFF" x="0" y="0" width="250" height="180"></rect>
            <g id="picture-1-copy-2" transform="translate(76.000000, 39.000000)">
                <g id="Capa_1">
                    <g id="Group">
                        <path d="M6.83636364,90.1929825 L87.1636364,90.1929825 L87.1636364,32.3333333 L6.83636364,32.3333333 L6.83636364,90.1929825 L6.83636364,90.1929825 Z M83.7454545,86.7894737 L13.0728364,86.7894737 L37.5538545,65.3286491 L55.1609091,82.8584211 C55.8291636,83.523807 56.9093091,83.523807 57.5775636,82.8584211 C58.2458182,82.1930351 58.2458182,81.1175263 57.5775636,80.4521404 L49.3619636,72.271807 L65.0531273,55.1623684 L83.7454545,72.2224561 L83.7454545,86.7894737 L83.7454545,86.7894737 Z M10.2545455,35.7368421 L83.7454545,35.7368421 L83.7454545,67.6055965 L66.1008,51.500193 C65.7658182,51.1955789 65.3180364,51.0237018 64.8702545,51.0543333 C64.4173455,51.0747544 63.9900727,51.2738596 63.6841455,51.6074035 L46.9453091,69.8621228 L38.8390909,61.7907018 C38.1998909,61.1559474 37.1778545,61.1253158 36.5010545,61.7158246 L10.2545455,84.7252456 L10.2545455,35.7368421 L10.2545455,35.7368421 Z" id="Shape" fill="#73A5FB"></path>
                        <path d="M23.9272727,40.8421053 C18.6786545,40.8421053 14.4093455,45.0930877 14.4093455,50.3191754 C14.4093455,55.5435614 18.6786545,59.7945439 23.9272727,59.7945439 C29.1758909,59.7945439 33.4452,55.5435614 33.4452,50.3191754 C33.4452,45.0930877 29.1758909,40.8421053 23.9272727,40.8421053 L23.9272727,40.8421053 Z M23.9272727,56.3927368 C20.5637818,56.3927368 17.8275273,53.6682281 17.8275273,50.3208772 C17.8275273,46.9735263 20.5637818,44.245614 23.9272727,44.245614 C27.2907636,44.245614 30.0270182,46.9718246 30.0270182,50.3191754 C30.0270182,53.6665263 27.2907636,56.3927368 23.9272727,56.3927368 L23.9272727,56.3927368 Z" id="Shape" fill="#3BD6DB"></path>
                        <path d="M82.6858182,25.5263158 C79.6265455,22.8273333 63.3508727,8.58024561 54.0619636,2.6972807 C52.5032727,1.04657895 50.3053818,0 47.8545455,0 C45.4037091,0 43.2058182,1.04657895 41.6471273,2.6972807 C32.3582182,8.58024561 16.0825455,22.8273333 13.0232727,25.5263158 L0,25.5263158 L0,97 L94,97 L94,25.5263158 L82.6858182,25.5263158 L82.6858182,25.5263158 Z M42.8452,7.43496491 C42.8605818,7.36178947 42.8930545,7.2937193 42.9118545,7.22224561 C43.1596727,6.31180702 43.6211273,5.6072807 44.0398545,5.13929825 C44.0484,5.13078947 44.0501091,5.11887719 44.0586545,5.10866667 C44.9969455,4.06889474 46.3437091,3.40350877 47.8545455,3.40350877 C49.3653818,3.40350877 50.7121455,4.06889474 51.6504364,5.10866667 C51.6589818,5.11717544 51.6606909,5.12908772 51.6692364,5.13929825 C52.0879636,5.6072807 52.5494182,6.31350877 52.7972364,7.22394737 C52.8160364,7.29542105 52.8468,7.36349123 52.8638909,7.43666667 C52.9373818,7.76680702 52.9818182,8.12417544 52.9818182,8.50877193 C52.9818182,11.3234737 50.6813818,13.6140351 47.8545455,13.6140351 C45.0277091,13.6140351 42.7272727,11.3234737 42.7272727,8.50877193 C42.7272727,8.12417544 42.7717091,7.76680702 42.8452,7.43496491 L42.8452,7.43496491 Z M39.3090909,8.42368421 L39.3090909,8.50877193 C39.3090909,13.2005088 43.1425818,17.0175439 47.8545455,17.0175439 C52.5665091,17.0175439 56.4,13.2005088 56.4,8.50877193 L56.4,8.42368421 C63.5269091,13.5851053 72.6432,21.3246842 77.4987273,25.5263158 L18.2103636,25.5263158 C23.0658909,21.3246842 32.1838909,13.5851053 39.3090909,8.42368421 L39.3090909,8.42368421 Z M90.5818182,93.5964912 L3.41818182,93.5964912 L3.41818182,28.9298246 L13.6727273,28.9298246 L82.0363636,28.9298246 L90.5818182,28.9298246 L90.5818182,93.5964912 L90.5818182,93.5964912 Z" id="Shape" fill="#73A5FB"></path>
                    </g>
                </g>
            </g>
        </g>
    </g>
</svg>