<?xml version="1.0" encoding="UTF-8"?>
<svg width="250px" height="180px" viewBox="0 0 250 180" version="1.1" xmlns="http://www.w3.org/2000/svg" xmlns:xlink="http://www.w3.org/1999/xlink">
    <!-- Generator: Sketch 43.2 (39069) - http://www.bohemiancoding.com/sketch -->
    <title>webpage copy 4</title>
    <desc>Created with Sketch.</desc>
    <defs></defs>
    <g id="telegration" stroke="none" stroke-width="1" fill="none" fill-rule="evenodd">
        <g id="webpage-copy-4">
            <rect id="Rectangle-3-Copy-13" fill="#FFFFFF" x="0" y="0" width="250" height="180"></rect>
            <g id="domain-registration-copy-2" transform="translate(69.000000, 41.000000)">
                <g id="Group">
                    <path d="M104.308511,0.112676056 L1.69148936,0.112676056 C0.75733617,0.112676056 0,0.869183099 0,1.8028169 L0,94.1971831 C0,95.1308169 0.75733617,95.8873239 1.69148936,95.8873239 L104.308511,95.8873239 C105.242664,95.8873239 106,95.1308169 106,94.1971831 L106,76.1690141 C106,75.2353803 105.242664,74.4788732 104.308511,74.4788732 C103.374357,74.4788732 102.617021,75.2353803 102.617021,76.1690141 L102.617021,92.5070423 L3.38297872,92.5070423 L3.38297872,17.0140845 L102.617021,17.0140845 L102.617021,69.4084507 C102.617021,70.3420845 103.374357,71.0985915 104.308511,71.0985915 C105.242664,71.0985915 106,70.3420845 106,69.4084507 L106,1.8028169 C106,0.869183099 105.242664,0.112676056 104.308511,0.112676056 L104.308511,0.112676056 Z M3.38297872,3.49295775 L65.9680851,3.49295775 L65.9680851,13.6338028 L3.38297872,13.6338028 L3.38297872,3.49295775 L3.38297872,3.49295775 Z M69.3510638,13.6338028 L69.3510638,3.49295775 L102.617021,3.49295775 L102.617021,13.6338028 L69.3510638,13.6338028 L69.3510638,13.6338028 Z" id="Shape" fill="#73A5FB"></path>
                    <path d="M86.0404255,6.76056338 C85.0456043,6.76056338 84.2361702,7.56935211 84.2361702,8.56338028 C84.2361702,9.55740845 85.0456043,10.3661972 86.0404255,10.3661972 C87.0352468,10.3661972 87.8446809,9.55740845 87.8446809,8.56338028 C87.8446809,7.56935211 87.0352468,6.76056338 86.0404255,6.76056338 L86.0404255,6.76056338 Z" id="Shape" fill="#3BD6DB"></path>
                    <path d="M76.793617,6.76056338 C75.7987957,6.76056338 74.9893617,7.56935211 74.9893617,8.56338028 C74.9893617,9.55740845 75.7987957,10.3661972 76.793617,10.3661972 C77.7884383,10.3661972 78.5978723,9.55740845 78.5978723,8.56338028 C78.5978723,7.56935211 77.7884383,6.76056338 76.793617,6.76056338 L76.793617,6.76056338 Z" id="Shape" fill="#3BD6DB"></path>
                    <path d="M95.287234,6.76056338 C94.2924128,6.76056338 93.4829787,7.56935211 93.4829787,8.56338028 C93.4829787,9.55740845 94.2924128,10.3661972 95.287234,10.3661972 C96.2820553,10.3661972 97.0914894,9.55740845 97.0914894,8.56338028 C97.0914894,7.56935211 96.2820553,6.76056338 95.287234,6.76056338 L95.287234,6.76056338 Z" id="Shape" fill="#3BD6DB"></path>
                    <path d="M33.5397532,45.9693521 C34.2048468,45.8861972 34.7580766,45.4188169 34.9502298,44.7772394 L38.8413319,31.7983099 C39.1092638,30.9041127 38.601366,29.9621408 37.7064553,29.6941972 C36.8119957,29.4264789 35.8688213,29.9339718 35.6006638,30.828169 L32.8099319,40.1365634 L30.1197872,35.6502535 C29.8141915,35.140507 29.2634426,34.8286197 28.6687149,34.8286197 C28.0739872,34.8286197 27.5232383,35.140507 27.2176426,35.6502535 L24.5274979,40.1365634 L21.737217,30.8299718 C21.4692851,29.9357746 20.5263362,29.4280563 19.6314255,29.696 C18.7365149,29.9637183 18.2283915,30.9059155 18.4965489,31.8001127 L22.3872,44.7772394 C22.5795787,45.4188169 23.1328085,45.8861972 23.7976766,45.9693521 C23.8680426,45.9781408 23.938183,45.9824225 24.0078723,45.9824225 C24.5969617,45.9824225 25.150417,45.6745915 25.4584936,45.1607887 L28.6684894,39.8073239 L31.8784851,45.1607887 C32.2235489,45.7352113 32.8753362,46.0529577 33.5397532,45.9693521 L33.5397532,45.9693521 Z" id="Shape" fill="#3BD6DB"></path>
                    <path d="M46.5403149,45.9677746 C46.6106809,45.9765634 46.6808213,45.9808451 46.7505106,45.9808451 C47.3396,45.9808451 47.8930553,45.6730141 48.2011319,45.1592113 L51.4111277,39.8057465 L54.6211234,45.1592113 C54.9655106,45.7336338 55.6170723,46.0509296 56.2819404,45.9677746 C56.947034,45.8846197 57.5002638,45.4172394 57.692417,44.775662 L61.5835191,31.7967324 C61.8514511,30.9025352 61.3435532,29.9605634 60.4486426,29.6926197 C59.5537319,29.4246761 58.6110085,29.932169 58.3428511,30.8265915 L55.5521191,40.1352113 L52.8619745,35.6489014 C52.5563787,35.1391549 52.0056298,34.8272676 51.4109021,34.8272676 C50.8161745,34.8272676 50.2654255,35.1391549 49.9598298,35.6489014 L47.2701362,40.1352113 L44.4798553,30.8283944 C44.2119234,29.9341972 43.2694255,29.4262535 42.3740638,29.6944225 C41.4791532,29.9621408 40.9710298,30.904338 41.2391872,31.7985352 L45.1298383,44.7758873 C45.322217,45.4172394 45.8754468,45.8846197 46.5403149,45.9677746 L46.5403149,45.9677746 Z" id="Shape" fill="#3BD6DB"></path>
                    <path d="M83.1908298,29.6912676 C82.2961447,29.4235493 81.3531957,29.9310423 81.0850383,30.8252394 L78.2943064,40.1334085 L75.6041617,35.6470986 C75.298566,35.1373521 74.747817,34.8254648 74.1530894,34.8254648 C73.5583617,34.8254648 73.0076128,35.1373521 72.702017,35.6470986 L70.0118723,40.1334085 L67.2215915,30.8268169 C66.953434,29.9328451 66.0111617,29.4251268 65.1158,29.6928451 C64.2208894,29.9605634 63.712766,30.9027606 63.9809234,31.7969577 L67.8715745,44.7740845 C68.0639532,45.415662 68.617183,45.8830423 69.2820511,45.9661972 C69.9471447,46.0493521 70.5982553,45.7322817 70.9428681,45.1576338 L74.1528638,39.804169 L77.3628596,45.1576338 C77.6709362,45.6712113 78.224166,45.9792676 78.8134809,45.9792676 C78.8831702,45.9792676 78.9535362,45.9749859 79.0236766,45.9661972 C79.6887702,45.8830423 80.242,45.415662 80.4341532,44.7740845 L84.3252553,31.7953803 C84.5936383,30.9011831 84.0857404,29.9589859 83.1908298,29.6912676 L83.1908298,29.6912676 Z" id="Shape" fill="#3BD6DB"></path>
                    <path d="M30.8302128,55.5598873 C30.8302128,54.6262535 30.0728766,53.8697465 29.1387234,53.8697465 L20.1174468,53.8697465 C19.1832936,53.8697465 18.4259574,54.6262535 18.4259574,55.5598873 L18.4259574,64.5739718 C18.4259574,65.5076056 19.1832936,66.2641127 20.1174468,66.2641127 L29.1387234,66.2641127 C30.0728766,66.2641127 30.8302128,65.5076056 30.8302128,64.5739718 L30.8302128,55.5598873 L30.8302128,55.5598873 Z M27.447234,62.883831 L21.8089362,62.883831 L21.8089362,57.2500282 L27.447234,57.2500282 L27.447234,62.883831 L27.447234,62.883831 Z" id="Shape" fill="#3BD6DB"></path>
                    <path d="M29.1387234,69.6443944 L20.1174468,69.6443944 C19.1832936,69.6443944 18.4259574,70.4009014 18.4259574,71.3345352 L18.4259574,80.3486197 C18.4259574,81.2822535 19.1832936,82.0387606 20.1174468,82.0387606 L29.1387234,82.0387606 C30.0728766,82.0387606 30.8302128,81.2822535 30.8302128,80.3486197 L30.8302128,71.3345352 C30.8302128,70.4009014 30.0728766,69.6443944 29.1387234,69.6443944 L29.1387234,69.6443944 Z M27.447234,78.6584789 L21.8089362,78.6584789 L21.8089362,73.0246761 L27.447234,73.0246761 L27.447234,78.6584789 L27.447234,78.6584789 Z" id="Shape" fill="#3BD6DB"></path>
                    <path d="M82.7052596,58.3767887 L75.9393021,58.3767887 C75.0051489,58.3767887 74.2478128,59.1332958 74.2478128,60.0669296 C74.2478128,61.0005634 75.0051489,61.7570704 75.9393021,61.7570704 L82.7052596,61.7570704 C83.6394128,61.7570704 84.3967489,61.0005634 84.3967489,60.0669296 C84.3967489,59.1332958 83.6394128,58.3767887 82.7052596,58.3767887 L82.7052596,58.3767887 Z" id="Shape" fill="#3BD6DB"></path>
                    <path d="M69.1733447,58.3767887 L35.9046809,58.3767887 C34.9705277,58.3767887 34.2131915,59.1332958 34.2131915,60.0669296 C34.2131915,61.0005634 34.9705277,61.7570704 35.9046809,61.7570704 L69.1735702,61.7570704 C70.1077234,61.7570704 70.8650596,61.0005634 70.8650596,60.0669296 C70.8650596,59.1332958 70.1074979,58.3767887 69.1733447,58.3767887 L69.1733447,58.3767887 Z" id="Shape" fill="#3BD6DB"></path>
                    <path d="M82.7052596,74.1514366 L75.9393021,74.1514366 C75.0051489,74.1514366 74.2478128,74.9079437 74.2478128,75.8415775 C74.2478128,76.7752113 75.0051489,77.5317183 75.9393021,77.5317183 L82.7052596,77.5317183 C83.6394128,77.5317183 84.3967489,76.7752113 84.3967489,75.8415775 C84.3967489,74.9079437 83.6394128,74.1514366 82.7052596,74.1514366 L82.7052596,74.1514366 Z" id="Shape" fill="#3BD6DB"></path>
                    <path d="M69.1733447,74.1514366 L35.9046809,74.1514366 C34.9705277,74.1514366 34.2131915,74.9079437 34.2131915,75.8415775 C34.2131915,76.7752113 34.9705277,77.5317183 35.9046809,77.5317183 L69.1735702,77.5317183 C70.1077234,77.5317183 70.8650596,76.7752113 70.8650596,75.8415775 C70.8650596,74.9079437 70.1074979,74.1514366 69.1733447,74.1514366 L69.1733447,74.1514366 Z" id="Shape" fill="#3BD6DB"></path>
                </g>
            </g>
        </g>
    </g>
</svg>