<?xml version="1.0" encoding="UTF-8"?>
<svg width="250px" height="180px" viewBox="0 0 250 180" version="1.1" xmlns="http://www.w3.org/2000/svg" xmlns:xlink="http://www.w3.org/1999/xlink">
    <!-- Generator: Sketch 43.2 (39069) - http://www.bohemiancoding.com/sketch -->
    <title>spark</title>
    <desc>Created with Sketch.</desc>
    <defs>
        <polygon id="path-1" points="72.0132245 42.1647601 72.0132245 129.999779 179.91178 129.999779 179.91178 42.1647601"></polygon>
    </defs>
    <g id="telegration" stroke="none" stroke-width="1" fill="none" fill-rule="evenodd">
        <g id="spark">
            <rect id="Rectangle-3-Copy-11" fill="#FFFFFF" x="0" y="0" width="250" height="180"></rect>
            <mask id="mask-2" fill="white">
                <use xlink:href="#path-1"></use>
            </mask>
            <g id="Clip-2"></g>
            <path d="M177.410204,88.0985126 L155.620873,89.6979899 L155.620873,70.6623518 C155.620873,68.8035176 153.559616,67.6911357 152.014114,68.7146332 L138.49009,77.6685226 L132.013837,44.055397 C131.582498,41.8140503 128.529624,41.4651457 127.605673,43.5508342 L114.164302,73.8880603 L93.0439102,59.1129045 C91.3020245,57.894392 88.9782612,59.461809 89.4448653,61.5390955 L96.0064163,90.7292261 L78.2712735,94.5614271 C76.400449,94.9658291 75.7899184,97.337407 77.232049,98.6001407 L89.8393959,109.633085 L78.5331184,118.568844 L99.7610694,118.568844 L105.776669,113.813307 L97.1884653,106.298151 L109.0656,103.732221 L104.863298,85.0350955 L118.750555,94.749809 L127.521257,74.9531256 L131.72378,96.7665126 L140.860359,90.7172864 L140.860359,103.182111 L155.843706,102.082553 L143.235698,114.546492 L149.613869,118.568844 L172.066188,118.568844 L160.074661,111.007035 L179.212261,92.0870352 C180.753355,90.5642814 179.56778,87.9404221 177.410204,88.0985126 Z" id="Fill-1" fill="#77C0DF" mask="url(#mask-2)"></path>
            <path d="M74.9067429,129.999779 L176.055135,129.999779 C177.660808,129.999779 178.962539,128.694593 178.962539,127.083839 L178.962539,125.917065 C178.962539,124.306312 177.660808,123.001126 176.055135,123.001126 L74.9067429,123.001126 C73.3017306,123.001126 72,124.307196 72,125.917065 L72,127.083839 C72,128.694593 73.3017306,129.999779 74.9067429,129.999779 Z" id="Fill-3" fill="#3B7683" mask="url(#mask-2)"></path>
        </g>
    </g>
</svg>