<?xml version="1.0" encoding="UTF-8" standalone="no"?>
<svg width="250px" height="180px" viewBox="0 0 250 180" version="1.1" xmlns="http://www.w3.org/2000/svg" xmlns:xlink="http://www.w3.org/1999/xlink">
    <!-- Generator: Sketch 40.1 (33804) - http://www.bohemiancoding.com/sketch -->
    <title>audio</title>
    <desc>Created with Sketch.</desc>
    <defs></defs>
    <g id="Page-1" stroke="none" stroke-width="1" fill="none" fill-rule="evenodd">
        <g id="audio">
            <rect id="Rectangle-3-Copy-11" fill="#32456C" x="0" y="0" width="250" height="180"></rect>
            <g id="speaker-2-copy-2" transform="translate(68.000000, 37.000000)">
                <g id="Capa_1">
                    <g id="Group">
                        <path d="M63.1345,13.5905 C61.3396667,12.562 59.2056667,12.5766667 57.4236667,13.6253333 C57.3081667,13.6931667 57.2018333,13.7738333 57.1046667,13.8655 L32.8276667,36.4668333 C32.5526667,36.5988333 32.2538333,36.6666667 31.9495,36.6666667 L16.6906667,36.6666667 C13.552,36.6666667 11,39.2205 11,42.3573333 L11,65.8111667 C11,68.9461667 13.552,71.5 16.6906667,71.5 L31.9513333,71.5 C32.2556667,71.5 32.5545,71.5678333 32.8295,71.6998333 L57.1065,94.3011667 C57.2036667,94.3928333 57.3118333,94.4735 57.4255,94.5413333 C58.3275,95.0711667 59.3193333,95.337 60.3111667,95.337 C61.281,95.337 62.2508333,95.084 63.1363333,94.5761667 C64.9293333,93.5495 66,91.7051667 66,89.639 L66,18.5276667 C66,16.4615 64.9293333,14.6171667 63.1345,13.5905 L63.1345,13.5905 Z M62.3333333,89.639 C62.3333333,90.6968333 61.6201667,91.2193333 61.314,91.3953333 C61.0243333,91.5603333 60.2836667,91.8756667 59.4348333,91.4631667 L35.1541667,68.8581667 C35.0551667,68.7646667 34.947,68.684 34.8315,68.618 C33.957,68.1028333 32.9615,67.8333333 31.9495,67.8333333 L16.6906667,67.8333333 C15.5741667,67.8333333 14.6666667,66.9258333 14.6666667,65.8093333 L14.6666667,42.3573333 C14.6666667,41.2408333 15.5741667,40.3333333 16.6906667,40.3333333 L31.9513333,40.3333333 C32.9615,40.3333333 33.9588333,40.0638333 34.8333333,39.5486667 C34.9488333,39.4826667 35.057,39.402 35.156,39.3085 L59.4366667,16.7035 C60.2891667,16.2891667 61.028,16.6063333 61.3158333,16.7713333 C61.6201667,16.9473333 62.3333333,17.4698333 62.3333333,18.5276667 L62.3333333,89.639 L62.3333333,89.639 Z" id="Shape" fill="#FFFFFF"></path>
                        <path d="M79.288,31.7038333 C78.5711667,30.987 77.4125,30.987 76.6956667,31.7038333 C75.9788333,32.4206667 75.9788333,33.5793333 76.6956667,34.2961667 C88.132,45.7325 88.132,64.3445 76.6956667,75.7808333 C75.9788333,76.4976667 75.9788333,77.6563333 76.6956667,78.3731667 C77.0531667,78.7306667 77.5225,78.9103333 77.9918333,78.9103333 C78.4611667,78.9103333 78.9305,78.7306667 79.288,78.3731667 C92.1543333,65.505 92.1543333,44.572 79.288,31.7038333 L79.288,31.7038333 Z" id="Shape" fill="#FFA5A5"></path>
                        <path d="M72.7961667,37.2038333 C72.0793333,36.487 70.9206667,36.487 70.2038333,37.2038333 C69.487,37.9206667 69.487,39.0793333 70.2038333,39.7961667 C78.0816667,47.674 78.0816667,60.4926667 70.2038333,68.3705 C69.487,69.0873333 69.487,70.246 70.2038333,70.9628333 C70.5613333,71.3203333 71.0306667,71.5 71.5,71.5 C71.9693333,71.5 72.4386667,71.3203333 72.7961667,70.9628333 C82.104,61.655 82.104,46.5116667 72.7961667,37.2038333 L72.7961667,37.2038333 Z" id="Shape" fill="#FFA5A5"></path>
                        <path d="M84.6688333,22.5371667 C83.952,21.8203333 82.7933333,21.8203333 82.0765,22.5371667 C81.3596667,23.254 81.3596667,24.4126667 82.0765,25.1295 C90.0625,33.1136667 94.4606667,43.7231667 94.4606667,55 C94.4606667,66.2768333 90.0625,76.8863333 82.0765,84.8705 C81.3596667,85.5873333 81.3596667,86.746 82.0765,87.4628333 C82.434,87.8203333 82.9033333,88 83.3726667,88 C83.842,88 84.3113333,87.8203333 84.6688333,87.4628333 C93.3478333,78.7856667 98.1273333,67.2576667 98.1273333,55 C98.1273333,42.7423333 93.3478333,31.2143333 84.6688333,22.5371667 L84.6688333,22.5371667 Z" id="Shape" fill="#FFA5A5"></path>
                    </g>
                </g>
            </g>
        </g>
    </g>
</svg>