<?xml version="1.0" encoding="UTF-8" standalone="no"?><!DOCTYPE svg PUBLIC "-//W3C//DTD SVG 1.1//EN" "http://www.w3.org/Graphics/SVG/1.1/DTD/svg11.dtd"><svg width="100%" height="100%" viewBox="0 0 251 181" version="1.1" xmlns="http://www.w3.org/2000/svg" xmlns:xlink="http://www.w3.org/1999/xlink" xml:space="preserve" xmlns:serif="http://www.serif.com/" style="fill-rule:evenodd;clip-rule:evenodd;stroke-linejoin:round;stroke-miterlimit:1.41421;"><g><rect id="rect-0" x="0.209" y="0.076" width="250" height="180" style="fill:none;"/><g><path id="path-1" d="M150.257,54.476l5.143,6l-64.382,0l5.143,-6l54.096,0Zm6.552,8.4l0,9.6l-67.2,0l0,-9.6l67.2,0Zm-3.6,12l0,46.8l-60,0l0,-46.8l60,0Zm-58.152,-22.8l-7.387,8.618c-0.171,0.2 -0.273,0.442 -0.304,0.694c-0.095,0.203 -0.157,0.422 -0.157,0.661l0,12.827l3.6,0l0,49.2l64.8,0l0,-49.2l3.6,0l0,-12.827c0,-0.239 -0.062,-0.458 -0.157,-0.661c-0.033,-0.251 -0.135,-0.494 -0.305,-0.695l-7.386,-8.617l-56.304,0Z" style="fill:#b3b3b3;fill-rule:nonzero;"/><path id="path-2" d="M135.209,82.076l0,7.2l-24,0l0,-7.2l24,0Zm-26.4,-2.4l0,12l28.8,0l0,-12l-28.8,0Z" style="fill:#b3b3b3;fill-rule:nonzero;"/><path id="path-3" d="M138.809,100.076l0,12l-31.2,0l0,-12l31.2,0Zm-33.6,-2.4l0,16.8l36,0l0,-16.8l-36,0Z" style="fill:#b3b3b3;fill-rule:nonzero;"/><path id="path-4" d="M113.609,109.676l6,0c0.662,0 1.2,-0.536 1.2,-1.2c0,-0.664 -0.538,-1.2 -1.2,-1.2l-6,0c-0.662,0 -1.2,0.536 -1.2,1.2c0,0.664 0.538,1.2 1.2,1.2Z" style="fill:#fe9394;fill-rule:nonzero;"/><path id="path-5" d="M119.609,104.876l13.2,0c0.662,0 1.2,-0.536 1.2,-1.2c0,-0.664 -0.538,-1.2 -1.2,-1.2l-13.2,0c-0.662,0 -1.2,0.536 -1.2,1.2c0,0.664 0.538,1.2 1.2,1.2Z" style="fill:#fe9394;fill-rule:nonzero;"/><path id="path-6" d="M113.609,104.876c0.312,0 0.624,-0.132 0.852,-0.348c0.216,-0.228 0.348,-0.54 0.348,-0.852c0,-0.313 -0.132,-0.625 -0.348,-0.852c-0.456,-0.444 -1.248,-0.444 -1.704,0c-0.216,0.227 -0.348,0.539 -0.348,0.852c0,0.324 0.132,0.624 0.348,0.852c0.228,0.216 0.528,0.348 0.852,0.348Z" style="fill:#fe9394;fill-rule:nonzero;"/><path id="path-7" d="M124.757,107.624c-0.216,0.227 -0.348,0.539 -0.348,0.852c0,0.312 0.132,0.624 0.348,0.852c0.228,0.216 0.54,0.348 0.852,0.348c0.312,0 0.624,-0.132 0.852,-0.348c0.216,-0.228 0.348,-0.54 0.348,-0.852c0,-0.313 -0.132,-0.625 -0.348,-0.852c-0.444,-0.444 -1.26,-0.444 -1.704,0Z" style="fill:#fe9394;fill-rule:nonzero;"/><path id="path-8" d="M132.809,107.276l-1.2,0c-0.662,0 -1.2,0.536 -1.2,1.2c0,0.664 0.538,1.2 1.2,1.2l1.2,0c0.662,0 1.2,-0.536 1.2,-1.2c0,-0.664 -0.538,-1.2 -1.2,-1.2Z" style="fill:#fe9394;fill-rule:nonzero;"/></g></g></svg>