<?xml version="1.0" encoding="UTF-8" standalone="no"?><!DOCTYPE svg PUBLIC "-//W3C//DTD SVG 1.1//EN" "http://www.w3.org/Graphics/SVG/1.1/DTD/svg11.dtd"><svg width="100%" height="100%" viewBox="0 0 251 181" version="1.1" xmlns="http://www.w3.org/2000/svg" xmlns:xlink="http://www.w3.org/1999/xlink" xml:space="preserve" xmlns:serif="http://www.serif.com/" style="fill-rule:evenodd;clip-rule:evenodd;stroke-linejoin:round;stroke-miterlimit:1.41421;"><g id="event"><g id="Group"><path id="Shape" d="M149.331,47.757c-0.794,-3.89 -4.24,-6.828 -8.362,-6.828c-0.944,0 -1.707,0.763 -1.707,1.707c0,0.944 0.763,1.707 1.707,1.707c2.823,0 5.121,2.298 5.121,5.121c0,2.823 -2.298,5.121 -5.121,5.121c-0.944,0 -1.707,0.763 -1.707,1.707c0,0.943 0.763,1.706 1.707,1.706c4.121,0 7.568,-2.937 8.362,-6.827l22.362,0l0,15.362l-92.172,0l0,-15.362l29.017,0c0.944,0 1.707,-0.763 1.707,-1.707c0,-0.944 -0.763,-1.707 -1.707,-1.707l-3.1,0c0.707,-1.983 2.585,-3.414 4.807,-3.414c2.823,0 5.121,2.298 5.121,5.121c0,2.823 -2.298,5.121 -5.121,5.121c-0.944,0 -1.707,0.763 -1.707,1.707c0,0.943 0.763,1.706 1.707,1.706c4.706,0 8.534,-3.828 8.534,-8.534c0,-4.706 -3.828,-8.535 -8.534,-8.535c-4.121,0 -7.568,2.938 -8.362,6.828l-25.776,0l0,90.466l99,0l0,-68.276l0,-22.19l-25.776,0Zm22.362,87.052l-92.172,0l0,-64.862l92.172,0l0,64.862Z" style="fill:#fff;"/><path id="Shape1" serif:id="Shape" d="M120.486,44.343c2.824,0 5.121,2.298 5.121,5.121c0,2.823 -2.297,5.121 -5.121,5.121c-0.944,0 -1.707,0.763 -1.707,1.707c0,0.943 0.763,1.706 1.707,1.706c4.706,0 8.535,-3.828 8.535,-8.534c0,-4.706 -3.829,-8.535 -8.535,-8.535c-0.944,0 -1.707,0.763 -1.707,1.707c0,0.944 0.763,1.707 1.707,1.707Z" style="fill:#fff;"/><path id="Shape2" serif:id="Shape" d="M130.728,44.343c2.823,0 5.12,2.298 5.12,5.121c0,2.823 -2.297,5.121 -5.12,5.121c-0.944,0 -1.707,0.763 -1.707,1.707c0,0.943 0.763,1.706 1.707,1.706c4.706,0 8.534,-3.828 8.534,-8.534c0,-4.706 -3.828,-8.535 -8.534,-8.535c-0.944,0 -1.707,0.763 -1.707,1.707c0,0.944 0.763,1.707 1.707,1.707Z" style="fill:#fff;"/><circle id="Oval" cx="113.659" cy="81.895" r="1.707" style="fill:#fff;"/><circle id="Oval1" serif:id="Oval" cx="125.607" cy="81.895" r="1.707" style="fill:#fff;"/><circle id="Oval2" serif:id="Oval" cx="137.555" cy="81.895" r="1.707" style="fill:#fff;"/><circle id="Oval3" serif:id="Oval" cx="149.504" cy="81.895" r="1.707" style="fill:#fff;"/><circle id="Oval4" serif:id="Oval" cx="161.452" cy="81.895" r="1.707" style="fill:#fff;"/><circle id="Oval5" serif:id="Oval" cx="89.762" cy="95.55" r="1.707" style="fill:#fff;"/><circle id="Oval6" serif:id="Oval" cx="101.71" cy="95.55" r="1.707" style="fill:#fff;"/><circle id="Oval7" serif:id="Oval" cx="113.659" cy="95.55" r="1.707" style="fill:#fff;"/><circle id="Oval8" serif:id="Oval" cx="125.607" cy="95.55" r="1.707" style="fill:#fff;"/><circle id="Oval9" serif:id="Oval" cx="137.555" cy="95.55" r="1.707" style="fill:#fff;"/><circle id="Oval10" serif:id="Oval" cx="149.504" cy="95.55" r="1.707" style="fill:#fff;"/><circle id="Oval11" serif:id="Oval" cx="161.452" cy="95.55" r="1.707" style="fill:#fff;"/><circle id="Oval12" serif:id="Oval" cx="89.762" cy="107.498" r="1.707" style="fill:#fff;"/><circle id="Oval13" serif:id="Oval" cx="101.71" cy="107.498" r="1.707" style="fill:#fff;"/><circle id="Oval14" serif:id="Oval" cx="113.659" cy="107.498" r="1.707" style="fill:#fff;"/><circle id="Oval15" serif:id="Oval" cx="125.607" cy="107.498" r="1.707" style="fill:#fff;"/><circle id="Oval16" serif:id="Oval" cx="137.555" cy="107.498" r="1.707" style="fill:#fff;"/><circle id="Oval17" serif:id="Oval" cx="149.504" cy="107.498" r="1.707" style="fill:#fff;"/><circle id="Oval18" serif:id="Oval" cx="161.452" cy="107.498" r="1.707" style="fill:#fff;"/><circle id="Oval19" serif:id="Oval" cx="89.762" cy="121.154" r="1.707" style="fill:#fff;"/><circle id="Oval20" serif:id="Oval" cx="101.71" cy="121.154" r="1.707" style="fill:#fff;"/><circle id="Oval21" serif:id="Oval" cx="113.659" cy="121.154" r="1.707" style="fill:#fff;"/><circle id="Oval22" serif:id="Oval" cx="125.607" cy="121.154" r="1.707" style="fill:#fff;"/><circle id="Oval23" serif:id="Oval" cx="137.555" cy="121.154" r="1.707" style="fill:#fff;"/></g></g></svg>