<?xml version="1.0" encoding="UTF-8" standalone="no"?><!DOCTYPE svg PUBLIC "-//W3C//DTD SVG 1.1//EN" "http://www.w3.org/Graphics/SVG/1.1/DTD/svg11.dtd"><svg width="100%" height="100%" viewBox="0 0 251 181" version="1.1" xmlns="http://www.w3.org/2000/svg" xmlns:xlink="http://www.w3.org/1999/xlink" xml:space="preserve" xmlns:serif="http://www.serif.com/" style="fill-rule:evenodd;clip-rule:evenodd;stroke-linejoin:round;stroke-miterlimit:1.41421;"><g><g><path id="path-1" d="M159.853,74.792l0,31.869l-17.645,-16.105c-0.309,-0.281 -0.714,-0.45 -1.127,-0.45c-0.035,0 -0.069,0.002 -0.103,0.004c-0.453,0.02 -0.88,0.219 -1.186,0.553l-16.739,18.255l-8.106,-8.072c-0.334,-0.331 -0.771,-0.497 -1.21,-0.497c-0.402,0 -0.805,0.14 -1.128,0.422l-26.247,23.01l0,-48.989l73.491,0Zm-18.692,19.426l18.692,17.06l0,14.567l-70.673,0l24.481,-21.461l17.607,17.53c0.335,0.333 0.772,0.499 1.209,0.499c0.437,0 0.874,-0.166 1.208,-0.499c0.668,-0.665 0.668,-1.741 0,-2.406l-8.216,-8.181l15.692,-17.109Zm-58.217,-22.829l0,57.86l80.327,0l0,-57.86l-80.327,0Z" style="fill:#fff;fill-rule:nonzero;"/><path id="path-2" d="M100.035,83.301c3.363,0 6.1,2.726 6.1,6.074c0,3.347 -2.737,6.073 -6.1,6.073c-3.364,0 -6.1,-2.724 -6.1,-6.071c0,-3.348 2.736,-6.076 6.1,-6.076Zm0,-3.403c-5.249,0 -9.518,4.251 -9.518,9.477c0,5.224 4.269,9.475 9.518,9.475c5.248,0 9.518,-4.251 9.518,-9.475c0,-5.226 -4.27,-9.477 -9.518,-9.477Z" style="fill:#fff;fill-rule:nonzero;"/><path id="path-3" d="M123.962,42.459c1.511,0 2.858,0.666 3.796,1.705c0.008,0.009 0.01,0.021 0.019,0.031c0.418,0.468 0.88,1.174 1.128,2.085c0.019,0.071 0.049,0.139 0.066,0.212c0.074,0.33 0.118,0.688 0.118,1.072c0,2.815 -2.3,5.106 -5.127,5.106c-2.827,0 -5.127,-2.291 -5.127,-5.106c0,-0.384 0.044,-0.742 0.118,-1.073c0.015,-0.074 0.048,-0.142 0.066,-0.213c0.248,-0.911 0.71,-1.615 1.128,-2.083c0.009,-0.009 0.011,-0.02 0.019,-0.031c0.938,-1.039 2.285,-1.705 3.796,-1.705Zm8.545,5.02c7.127,5.162 16.244,12.901 21.099,17.103l-59.288,0c4.855,-4.202 13.973,-11.941 21.099,-17.103c0,0.029 0,0.056 0,0.085c0,4.692 3.833,8.509 8.545,8.509c4.712,0 8.545,-3.817 8.545,-8.509c0,-0.029 0,-0.056 0,-0.085Zm34.182,20.506l0,64.667l-87.163,0l0,-64.667l87.163,0Zm-42.727,-28.929c-2.451,0 -4.649,1.046 -6.207,2.697c-9.289,5.883 -25.565,20.13 -28.624,22.829l-13.024,0l0,71.474l94,0l0,-71.474l-11.314,0c-3.059,-2.699 -19.335,-16.946 -28.624,-22.829c-1.558,-1.651 -3.756,-2.697 -6.207,-2.697Z" style="fill:#fff;fill-rule:nonzero;"/></g></g></svg>