<?xml version="1.0" encoding="UTF-8" standalone="no"?>
<!DOCTYPE svg PUBLIC "-//W3C//DTD SVG 1.1//EN" "http://www.w3.org/Graphics/SVG/1.1/DTD/svg11.dtd">
<svg width="100%" height="100%" viewBox="0 0 250 180" version="1.1" xmlns="http://www.w3.org/2000/svg" xmlns:xlink="http://www.w3.org/1999/xlink" xml:space="preserve" xmlns:serif="http://www.serif.com/" style="fill-rule:evenodd;clip-rule:evenodd;stroke-linejoin:round;stroke-miterlimit:1.41421;">
    <g id="Artboard1" transform="matrix(0.488281,0,0,0.351562,0,0)">
        <rect x="0" y="0" width="512" height="512" style="fill:none;"/>
        <g transform="matrix(2.048,0,0,2.84444,0,0)">
            <path d="M250,0L250,180L0,180L0,0L250,0ZM125,65.44C111.458,65.44 100.44,76.457 100.44,90C100.44,103.543 111.458,114.56 125,114.56C138.542,114.56 149.56,103.543 149.56,90C149.56,76.457 138.542,65.44 125,65.44ZM125,112.671C112.5,112.671 102.329,102.5 102.329,90C102.329,77.5 112.5,67.329 125,67.329C137.5,67.329 147.671,77.5 147.671,90C147.671,102.5 137.5,112.671 125,112.671ZM125.945,89.055L125.945,78.664C125.945,78.142 125.521,77.72 125,77.72C124.479,77.72 124.055,78.142 124.055,78.664L124.055,89.055L113.192,89.055C112.671,89.055 112.248,89.478 112.248,90C112.248,90.522 112.671,90.945 113.192,90.945L124.055,90.945L124.055,102.28C124.055,102.803 124.479,103.225 125,103.225C125.521,103.225 125.945,102.803 125.945,102.28L125.945,90.945L136.808,90.945C137.329,90.944 137.752,90.522 137.752,90C137.752,89.478 137.329,89.056 136.808,89.055L125.945,89.055Z" style="fill:white;"/>
        </g>
    </g>
</svg>
