<?xml version="1.0" encoding="UTF-8" standalone="no"?><!DOCTYPE svg PUBLIC "-//W3C//DTD SVG 1.1//EN" "http://www.w3.org/Graphics/SVG/1.1/DTD/svg11.dtd"><svg width="100%" height="100%" viewBox="0 0 251 181" version="1.1" xmlns="http://www.w3.org/2000/svg" xmlns:xlink="http://www.w3.org/1999/xlink" xml:space="preserve" xmlns:serif="http://www.serif.com/" style="fill-rule:evenodd;clip-rule:evenodd;stroke-linejoin:round;stroke-miterlimit:1.41421;"><g><rect id="rect-0" x="0.107" y="0.2" width="250" height="180" style="fill:none;"/><g><path id="path-1" d="M135.076,44.693l0,10.14l-62.586,0l0,-10.14l62.586,0Zm36.649,0l0,10.14l-33.266,0l0,-10.14l33.266,0Zm-100.926,-3.381c-0.934,0 -1.692,0.757 -1.692,1.69l0,92.395c0,0.933 0.758,1.69 1.692,1.69l102.617,0c0.934,0 1.691,-0.757 1.691,-1.69l0,-18.028c0,-0.934 -0.757,-1.691 -1.691,-1.691c-0.934,0 -1.691,0.757 -1.691,1.691l0,16.338l-99.235,0l0,-75.493l99.235,0l0,52.394c0,0.934 0.757,1.69 1.691,1.69c0.934,0 1.691,-0.756 1.691,-1.69l0,-67.606c0,-0.933 -0.757,-1.69 -1.691,-1.69l-102.617,0Z" style="fill:#fff;fill-rule:nonzero;"/><path id="path-2" d="M155.148,47.96c-0.995,0 -1.804,0.809 -1.804,1.803c0,0.994 0.809,1.803 1.804,1.803c0.995,0 1.804,-0.809 1.804,-1.803c0,-0.994 -0.809,-1.803 -1.804,-1.803Z" style="fill:#fff;fill-rule:nonzero;"/><path id="path-3" d="M145.901,47.96c-0.995,0 -1.804,0.809 -1.804,1.803c0,0.994 0.809,1.803 1.804,1.803c0.995,0 1.804,-0.809 1.804,-1.803c0,-0.994 -0.809,-1.803 -1.804,-1.803Z" style="fill:#fff;fill-rule:nonzero;"/><path id="path-4" d="M164.395,47.96c-0.995,0 -1.805,0.809 -1.805,1.803c0,0.994 0.81,1.803 1.805,1.803c0.995,0 1.804,-0.809 1.804,-1.803c0,-0.994 -0.809,-1.803 -1.804,-1.803Z" style="fill:#fff;fill-rule:nonzero;"/><path id="path-5" d="M102.647,87.169c0.665,-0.083 1.219,-0.551 1.411,-1.192l3.891,-12.979c0.268,-0.894 -0.24,-1.836 -1.135,-2.104c-0.895,-0.268 -1.838,0.24 -2.106,1.134l-2.791,9.308l-2.69,-4.486c-0.305,-0.51 -0.856,-0.822 -1.451,-0.822c-0.595,0 -1.145,0.312 -1.451,0.822l-2.69,4.486l-2.79,-9.306c-0.268,-0.895 -1.211,-1.402 -2.106,-1.134c-0.895,0.267 -1.403,1.209 -1.135,2.104l3.891,12.977c0.192,0.641 0.745,1.109 1.41,1.192c0.071,0.009 0.141,0.013 0.21,0.013c0.589,0 1.143,-0.308 1.451,-0.822l3.21,-5.353l3.21,5.353c0.345,0.575 0.997,0.893 1.661,0.809Z" style="fill:#fff;fill-rule:nonzero;"/><path id="path-6" d="M115.648,87.167c0.07,0.009 0.14,0.013 0.21,0.013c0.589,0 1.143,-0.307 1.451,-0.821l3.21,-5.354l3.21,5.354c0.344,0.574 0.996,0.891 1.66,0.808c0.666,-0.083 1.219,-0.55 1.411,-1.192l3.891,-12.979c0.268,-0.894 -0.24,-1.836 -1.135,-2.104c-0.895,-0.268 -1.837,0.24 -2.106,1.134l-2.79,9.309l-2.691,-4.487c-0.305,-0.509 -0.856,-0.821 -1.451,-0.821c-0.594,0 -1.145,0.312 -1.451,0.821l-2.689,4.487l-2.791,-9.307c-0.268,-0.894 -1.21,-1.402 -2.105,-1.134c-0.895,0.268 -1.403,1.21 -1.135,2.104l3.89,12.977c0.193,0.642 0.746,1.109 1.411,1.192Z" style="fill:#fff;fill-rule:nonzero;"/><path id="path-7" d="M152.298,70.891c-0.894,-0.268 -1.837,0.24 -2.105,1.134l-2.791,9.308l-2.69,-4.486c-0.306,-0.51 -0.857,-0.822 -1.451,-0.822c-0.595,0 -1.146,0.312 -1.451,0.822l-2.691,4.486l-2.79,-9.307c-0.268,-0.894 -1.21,-1.401 -2.106,-1.134c-0.895,0.268 -1.403,1.21 -1.135,2.105l3.891,12.977c0.192,0.641 0.746,1.109 1.411,1.192c0.665,0.083 1.316,-0.234 1.66,-0.809l3.21,-5.353l3.21,5.353c0.308,0.514 0.862,0.822 1.451,0.822c0.07,0 0.14,-0.004 0.21,-0.013c0.665,-0.083 1.218,-0.551 1.411,-1.192l3.891,-12.979c0.268,-0.894 -0.24,-1.836 -1.135,-2.104Z" style="fill:#fff;fill-rule:nonzero;"/><path id="path-8" d="M96.555,98.45l0,5.633l-5.639,0l0,-5.633l5.639,0Zm-7.33,-3.381c-0.934,0 -1.692,0.757 -1.692,1.69l0,9.015c0,0.933 0.758,1.69 1.692,1.69l9.021,0c0.934,0 1.692,-0.757 1.692,-1.69l0,-9.015c0,-0.933 -0.758,-1.69 -1.692,-1.69l-9.021,0Z" style="fill:#fff;fill-rule:nonzero;"/><path id="path-9" d="M96.555,114.224l0,5.634l-5.639,0l0,-5.634l5.639,0Zm-7.33,-3.38c-0.934,0 -1.692,0.756 -1.692,1.69l0,9.014c0,0.934 0.758,1.69 1.692,1.69l9.021,0c0.934,0 1.692,-0.756 1.692,-1.69l0,-9.014c0,-0.934 -0.758,-1.69 -1.692,-1.69l-9.021,0Z" style="fill:#fff;fill-rule:nonzero;"/><path id="path-10" d="M151.813,99.576l-6.766,0c-0.934,0 -1.692,0.757 -1.692,1.69c0,0.934 0.758,1.691 1.692,1.691l6.766,0c0.934,0 1.691,-0.757 1.691,-1.691c0,-0.933 -0.757,-1.69 -1.691,-1.69Z" style="fill:#fff;fill-rule:nonzero;"/><path id="path-11" d="M138.281,99.576l-33.269,0c-0.934,0 -1.691,0.757 -1.691,1.69c0,0.934 0.757,1.691 1.691,1.691l33.269,0c0.934,0 1.692,-0.757 1.692,-1.691c0,-0.933 -0.758,-1.69 -1.692,-1.69Z" style="fill:#fff;fill-rule:nonzero;"/><path id="path-12" d="M151.813,115.351l-6.766,0c-0.934,0 -1.692,0.756 -1.692,1.69c0,0.934 0.758,1.69 1.692,1.69l6.766,0c0.934,0 1.691,-0.756 1.691,-1.69c0,-0.934 -0.757,-1.69 -1.691,-1.69Z" style="fill:#fff;fill-rule:nonzero;"/><path id="path-13" d="M138.281,115.351l-33.269,0c-0.934,0 -1.691,0.756 -1.691,1.69c0,0.934 0.757,1.69 1.691,1.69l33.269,0c0.934,0 1.692,-0.756 1.692,-1.69c0,-0.934 -0.758,-1.69 -1.692,-1.69Z" style="fill:#fff;fill-rule:nonzero;"/></g></g></svg>