<?xml version="1.0" encoding="UTF-8" standalone="no"?>
<!DOCTYPE svg PUBLIC "-//W3C//DTD SVG 1.1//EN" "http://www.w3.org/Graphics/SVG/1.1/DTD/svg11.dtd">
<svg width="100%" height="100%" viewBox="0 0 5000 4769" version="1.1" xmlns="http://www.w3.org/2000/svg" xmlns:xlink="http://www.w3.org/1999/xlink" xml:space="preserve" xmlns:serif="http://www.serif.com/" style="fill-rule:evenodd;clip-rule:evenodd;stroke-linejoin:round;stroke-miterlimit:1.41421;">
    <g id="Artboard1" transform="matrix(1,0,0,1.163,0,0)">
        <rect x="0" y="0" width="5000" height="4100" style="fill:none;"/>
        <g transform="matrix(4.16667,0,0,3.58268,-326.726,-423.314)">
            <g transform="matrix(1.55193,0,0,1.55193,-252.745,-142.401)">
                <path d="M565.374,417.405C565.374,374.507 600.151,339.729 643.05,339.729C676.117,339.729 711.584,356.23 722.789,385.347C728.704,400.733 717.807,403.857 728.462,419.16C733.544,426.46 738.976,434.248 738.976,436.477C738.976,444.353 716.749,423.938 699.631,406.923C691.792,399.133 679.635,384.343 670.937,378.15C663.067,372.551 653.442,369.257 643.05,369.257C616.459,369.257 594.901,390.815 594.901,417.405C594.901,452.333 638.469,472.796 664.923,491.959L664.999,491.937C681.201,504.492 700.322,518.107 716.316,536.552C733.09,555.892 743.04,574.651 746.824,592.014C775.957,558.799 793.619,515.271 793.619,467.618C793.619,363.382 709.117,278.881 604.882,278.881C500.646,278.881 416.146,363.382 416.146,467.618C416.146,487.415 419.193,506.5 424.846,524.429C471.01,496.762 527.9,487.119 583.991,502.149C646.881,519.002 683.994,560.357 702.543,587.894C691.968,549.727 651.894,518.548 627.028,501.869C594.209,479.85 565.374,459.344 565.374,417.405Z" style="fill:white;"/>
            </g>
            <g transform="matrix(1.55193,0,0,1.55193,-252.745,-142.401)">
                <path d="M420.831,598.088C485.104,547.433 561.238,534.84 633.446,562.387C611.641,551.188 585.45,542.335 554.807,539.41C500.031,534.182 448.022,549.445 406.381,578.927C409.046,584.034 417.748,593.22 420.831,598.088Z" style="fill:white;"/>
            </g>
            <g transform="matrix(1.55193,0,0,1.55193,-252.745,-142.401)">
                <path d="M466.046,648.663C508.877,605.52 564.854,580.632 625.207,587.32C562.708,574.651 497.518,593.033 450.515,636.187C454.024,639.375 462.307,645.71 466.046,648.663Z" style="fill:white;"/>
            </g>
            <g transform="matrix(1.55193,0,0,1.55193,-252.745,-142.401)">
                <path d="M604.882,670.289C664.361,670.289 712.58,671.894 712.58,673.873C712.58,675.851 664.361,677.457 604.882,677.457C545.403,677.457 497.184,675.851 497.184,673.873C497.184,671.894 545.403,670.289 604.882,670.289Z" style="fill:white;"/>
            </g>
            <g transform="matrix(1.55193,0,0,1.55193,-252.745,-142.401)">
                <path d="M604.882,684.07C649.884,684.07 686.365,685.676 686.365,687.655C686.365,689.633 649.884,691.239 604.882,691.239C559.88,691.239 523.398,689.633 523.398,687.655C523.398,685.676 559.88,684.07 604.882,684.07Z" style="fill:white;"/>
            </g>
            <g transform="matrix(1.55193,0,0,1.55193,-252.745,-142.401)">
                <path d="M604.882,697.95C631.021,697.95 652.213,699.555 652.213,701.534C652.213,703.513 631.021,705.119 604.882,705.119C578.742,705.119 557.551,703.513 557.551,701.534C557.551,699.555 578.742,697.95 604.882,697.95Z" style="fill:white;"/>
            </g>
        </g>
        <g transform="matrix(9.81019,0,0,8.43522,-15805,-20644.5)">
            <text x="1682.41px" y="2859.56px" style="font-family:'MyanmarMN', 'Myanmar MN';font-size:50px;fill:white;">C<tspan x="1723.7px 1757.31px 1799.41px 1837.6px 1875.84px 1907.74px 1920.49px 1949.6px 1984.5px 2020.06px " y="2859.56px 2859.56px 2859.56px 2859.56px 2859.56px 2859.56px 2859.56px 2859.56px 2859.56px 2859.56px ">YGNUS LABS</tspan></text>
        </g>
    </g>
</svg>