<?xml version="1.0" encoding="UTF-8" standalone="no"?>
<!DOCTYPE svg PUBLIC "-//W3C//DTD SVG 1.1//EN" "http://www.w3.org/Graphics/SVG/1.1/DTD/svg11.dtd">
<svg width="100%" height="100%" viewBox="0 0 251 181" version="1.1" xmlns="http://www.w3.org/2000/svg" xmlns:xlink="http://www.w3.org/1999/xlink" xml:space="preserve" xmlns:serif="http://www.serif.com/" style="fill-rule:evenodd;clip-rule:evenodd;stroke-linejoin:round;stroke-miterlimit:1.41421;"><g><rect id="rect-0" x="0.025" y="0.056" width="250" height="180" style="fill:none;"/><g><path id="path-1" d="M101.758,76.872l13.66,0c0.84,0 1.518,-0.678 1.518,-1.516c0,-0.839 -0.678,-1.517 -1.518,-1.517l-13.66,0c-0.84,0 -1.518,0.678 -1.518,1.517c0,0.838 0.678,1.516 1.518,1.516Z" style="fill:#fff;fill-rule:nonzero;"/><path id="path-2" d="M101.758,87.489l7.589,0c0.839,0 1.518,-0.678 1.518,-1.517c0,-0.838 -0.679,-1.516 -1.518,-1.516l-7.589,0c-0.84,0 -1.518,0.678 -1.518,1.516c0,0.839 0.678,1.517 1.518,1.517Z" style="fill:#fff;fill-rule:nonzero;"/><path id="path-3" d="M121.49,87.489l10.625,0c0.839,0 1.518,-0.678 1.518,-1.517c0,-0.838 -0.679,-1.516 -1.518,-1.516l-10.625,0c-0.84,0 -1.518,0.678 -1.518,1.516c0,0.839 0.678,1.517 1.518,1.517Z" style="fill:#fff;fill-rule:nonzero;"/><path id="path-4" d="M116.496,87.049c0.273,-0.288 0.44,-0.682 0.44,-1.077c0,-0.396 -0.167,-0.79 -0.44,-1.077c-0.577,-0.561 -1.579,-0.561 -2.155,0c-0.275,0.287 -0.441,0.681 -0.441,1.077c0,0.395 0.166,0.789 0.441,1.077c0.287,0.287 0.666,0.44 1.077,0.44c0.395,0 0.79,-0.167 1.078,-0.44Z" style="fill:#fff;fill-rule:nonzero;"/><path id="path-5" d="M138.186,87.489c0.41,0 0.789,-0.167 1.078,-0.44c0.273,-0.288 0.44,-0.682 0.44,-1.077c0,-0.396 -0.167,-0.79 -0.44,-1.077c-0.577,-0.561 -1.579,-0.561 -2.155,0c-0.275,0.287 -0.441,0.681 -0.441,1.077c0,0.395 0.166,0.789 0.441,1.077c0.286,0.287 0.666,0.44 1.077,0.44Z" style="fill:#fff;fill-rule:nonzero;"/><path id="path-6" d="M106.311,96.589c0,0.839 0.679,1.517 1.518,1.517l10.625,0c0.839,0 1.518,-0.678 1.518,-1.517c0,-0.839 -0.679,-1.517 -1.518,-1.517l-10.625,0c-0.839,0 -1.518,0.678 -1.518,1.517Z" style="fill:#fff;fill-rule:nonzero;"/><path id="path-7" d="M102.835,97.666c0.287,-0.288 0.44,-0.683 0.44,-1.077c0,-0.396 -0.153,-0.79 -0.44,-1.077c-0.576,-0.561 -1.578,-0.561 -2.155,0c-0.288,0.287 -0.44,0.666 -0.44,1.077c0,0.394 0.165,0.789 0.44,1.077c0.287,0.273 0.683,0.44 1.078,0.44c0.394,0 0.789,-0.167 1.077,-0.44Z" style="fill:#fff;fill-rule:nonzero;"/><path id="path-8" d="M110.144,104.38c-3.324,1.729 -4.443,5.037 -4.851,8.466c-0.629,-0.526 -1.257,-1.051 -1.884,-1.577c-1.487,-1.245 -3.646,0.889 -2.146,2.146c1.419,1.187 2.84,2.376 4.259,3.566c0.999,0.835 2.544,0.307 2.591,-1.073c0.111,-3.285 0.266,-7.192 3.564,-8.907c1.733,-0.904 0.2,-3.523 -1.533,-2.621Z" style="fill:#fff;fill-rule:nonzero;"/><path id="path-9" d="M120.238,110.429c-2.103,0.486 -4.495,3.159 -5.975,0.16c-0.863,-1.75 -3.483,-0.215 -2.621,1.531c0.786,1.591 2.277,2.705 4.051,2.93c0.902,0.114 1.717,-0.014 2.562,-0.343c0.621,-0.241 2.94,-1.984 3.441,-1.087c0.953,1.704 3.576,0.177 2.622,-1.531c-0.816,-1.459 -2.465,-2.035 -4.08,-1.66Z" style="fill:#fff;fill-rule:nonzero;"/><path id="path-10" d="M124.525,51.089l0,4.55l-10.625,0l0,-3.033l0,-1.517l10.625,0Zm37.968,0c0.826,0 1.497,0.67 1.497,1.494l0,6.089l-9.107,0l0,-6.089c0,-0.824 0.671,-1.494 1.495,-1.494l6.115,0Zm-27.343,3.033l0,6.067l-31.875,0l0,-1.517l0,-4.55l7.59,0l0,4.55l16.696,0l0,-1.516l0,-3.034l7.589,0Zm28.84,7.584l0,3.033l-9.107,0l0,-3.033l9.107,0Zm0,6.066l0,54.6l-9.107,0l0,-54.6l9.107,0Zm-18.215,-6.066l0,66.733l-53.125,0l0,-66.733l7.59,0l0,1.516l37.946,0l0,-1.516l7.589,0Zm17.117,63.7l-3.456,6.042l-3.036,-5.308l-0.42,-0.734l6.912,0Zm-11.045,-71.284l0,70.17l1.518,2.655l0,9.075l-68.304,0l0,-81.9l15.179,0l0,4.55l-10.625,0l0,72.8l59.196,0l0,-72.8l-10.625,0l0,-4.55l13.661,0Zm-39.464,-6.066c-0.84,0 -1.518,0.678 -1.518,1.516l0,1.517l-28.84,0l0,87.967l74.375,0l0,-6.801l1.518,2.654l0,2.63c0,0.839 0.679,1.517 1.518,1.517c0.84,0 1.518,-0.678 1.518,-1.517l0,-2.63l6.071,-10.617l0,-56.52l0,-9.1l0,-6.089c0,-2.497 -2.032,-4.527 -4.53,-4.527l-6.116,0c-1.971,0 -3.637,1.272 -4.257,3.033l-24.561,0l0,-1.517c0,-0.838 -0.678,-1.516 -1.518,-1.516l-13.66,0Z" style="fill:#fff;fill-rule:nonzero;"/></g></g></svg>