<?xml version="1.0" encoding="UTF-8" standalone="no"?>
<!DOCTYPE svg PUBLIC "-//W3C//DTD SVG 1.1//EN" "http://www.w3.org/Graphics/SVG/1.1/DTD/svg11.dtd">
<svg width="100%" height="100%" viewBox="0 0 56 20" version="1.1" xmlns="http://www.w3.org/2000/svg" xmlns:xlink="http://www.w3.org/1999/xlink" xml:space="preserve" xmlns:serif="http://www.serif.com/" style="fill-rule:evenodd;clip-rule:evenodd;stroke-linecap:round;stroke-linejoin:round;stroke-miterlimit:1.5;">
    <g transform="matrix(1,0,0,1,-6731,-4549)">
        <g transform="matrix(0.87226,0,0,0.87747,4022.21,4305.53)">
            <g transform="matrix(1.79127,0,0,1.18246,-8382.66,-2934.72)">
                <path d="M6448.54,2726.05C6448.54,2721.14 6445.89,2717.15 6442.63,2717.15L6419.85,2717.15C6416.59,2717.15 6413.94,2721.14 6413.94,2726.05L6413.94,2726.08C6413.94,2730.99 6416.59,2734.97 6419.85,2734.97L6442.63,2734.97C6445.89,2734.97 6448.54,2730.99 6448.54,2726.08L6448.54,2726.05Z" style="fill:rgb(102,102,102);stroke:black;stroke-width:0.72px;"/>
            </g>
            <g transform="matrix(1.14645,0,0,1.13964,-4247.97,-2816.26)">
                <text x="6423.73px" y="2727.72px" style="font-family:'AvenirNext-Regular', 'Avenir Next', sans-serif;font-size:10px;fill:white;">P<tspan x="6428.81px 6434.53px " y="2727.72px 2727.72px ">en</tspan>ding</text>
            </g>
        </g>
    </g>
</svg>
