
<svg width="250px" height="180px" viewBox="0 0 250 180" version="1.1" xmlns="http://www.w3.org/2000/svg" xmlns:xlink="http://www.w3.org/1999/xlink">
    <!-- Generator: Sketch 43.2 (39069) - http://www.bohemiancoding.com/sketch -->
    <desc>Created with Sketch.</desc>
    <defs></defs>
    <g id="Page-1" stroke="none" stroke-width="1" fill="none" fill-rule="evenodd">
        <g id="custom">
            <rect id="Rectangle-3-Copy-6" fill="#ffffff" x="0" y="0" width="250" height="180"></rect>
            <g id="school-material" transform="translate(78.000000, 44.000000)" fill-rule="nonzero">
                <path d="M54.2491523,0 L32.5492734,0 C28.2759961,0 24.7992129,3.47660156 24.7992129,7.75006055 L24.7992129,63.5500605 C24.7992129,64.4055879 25.4919902,65.1 26.3491523,65.1 L35.6491523,65.1 C36.5063145,65.1 37.1990918,64.4055879 37.1990918,63.5500605 C37.1990918,62.6945332 36.5063145,62.0001211 35.6491523,62.0001211 L27.8990918,62.0001211 L27.8990918,58.9000605 L29.4490313,58.9000605 C30.3061934,58.9000605 30.9989707,58.2056484 30.9989707,57.3501211 C30.9989707,56.4945937 30.3061934,55.8001816 29.4490313,55.8001816 L27.8990918,55.8001816 L27.8990918,52.7001211 L29.4490313,52.7001211 C30.3061934,52.7001211 30.9989707,52.005709 30.9989707,51.1501816 C30.9989707,50.2946543 30.3061934,49.6002422 29.4490313,49.6002422 L27.8990918,49.6002422 L27.8990918,46.5 L29.4490313,46.5 C30.3061934,46.5 30.9989707,45.8055879 30.9989707,44.9500605 C30.9989707,44.0945332 30.3061934,43.4001211 29.4490313,43.4001211 L27.8990918,43.4001211 L27.8990918,40.3000605 L35.6491523,40.3000605 C36.5063145,40.3000605 37.1990918,39.6056484 37.1990918,38.7501211 C37.1990918,37.8945938 36.5063145,37.2001816 35.6491523,37.2001816 L27.8990918,37.2001816 L27.8990918,34.1001211 L29.4490313,34.1001211 C30.3061934,34.1001211 30.9989707,33.405709 30.9989707,32.5501816 C30.9989707,31.6946543 30.3061934,31.0002422 29.4490313,31.0002422 L27.8990918,31.0002422 L27.8990918,27.9 L29.4490313,27.9 C30.3061934,27.9 30.9989707,27.2055879 30.9989707,26.3500605 C30.9989707,25.4945332 30.3061934,24.8001211 29.4490313,24.8001211 L27.8990918,24.8001211 L27.8990918,21.7000605 L29.4490313,21.7000605 C30.3061934,21.7000605 30.9989707,21.0056484 30.9989707,20.1501211 C30.9989707,19.2945938 30.3061934,18.6001816 29.4490313,18.6001816 L27.8990918,18.6001816 L27.8990918,15.4999395 L35.6491523,15.4999395 C36.5063145,15.4999395 37.1990918,14.8055273 37.1990918,13.95 C37.1990918,13.0944727 36.5063145,12.4000605 35.6491523,12.4000605 L27.8990918,12.4000605 L27.8990918,7.75006055 C27.8990918,5.18638477 29.985416,3.10006055 32.5490918,3.10006055 L54.2491523,3.10006055 C56.8128281,3.10006055 58.8991523,5.18638477 58.8991523,7.75006055 L58.8991523,85.2501211 C58.8991523,87.8137969 56.8128281,89.9001211 54.2491523,89.9001211 L32.5492734,89.9001211 C29.9855977,89.9001211 27.8992734,87.8137969 27.8992734,85.2501211 L27.8992734,69.75 C27.8992734,68.8944727 27.2064961,68.2000605 26.349334,68.2000605 C25.4921719,68.2000605 24.7993945,68.8944727 24.7993945,69.75 L24.7993945,85.2499395 C24.7993945,89.5232168 28.2759961,93 32.5494551,93 L54.2495156,93 C58.522793,93 61.9995762,89.5233984 61.9995762,85.2499395 L61.9995762,7.75006055 C61.9992129,3.47660156 58.5226113,0 54.2491523,0 Z" id="Shape" fill="#6D7077"></path>
                <path d="M6.20084766,20.1484863 L6.20084766,75.9484863 C6.20084766,76.8040137 6.893625,77.4984258 7.75078711,77.4984258 C8.60794922,77.4984258 9.30072656,76.8040137 9.30072656,75.9484863 L9.30072656,20.1484863 C9.30072656,19.292959 8.60794922,18.5985469 7.75078711,18.5985469 C6.893625,18.5985469 6.20084766,19.2927773 6.20084766,20.1484863 Z" id="Shape" fill="#fe7c24"></path>
                <path d="M9.13652344,0.855527344 C8.61103711,-0.195445313 6.89053711,-0.195445313 6.36359766,0.855527344 L0.163476562,13.2555879 C0.0564902344,13.4695605 0.0007265625,13.7082363 0.0007265625,13.9483652 L0.0007265625,85.2483047 C0.0007265625,89.521582 3.47732812,92.9983652 7.75078711,92.9983652 C12.0240645,92.9983652 15.5008477,89.5217637 15.5008477,85.2483047 L15.5008477,82.1482441 C15.5008477,81.2927168 14.8080703,80.5983047 13.9509082,80.5983047 L7.75078711,80.5983047 C6.893625,80.5983047 6.20084766,81.2927168 6.20084766,82.1482441 C6.20084766,83.0037715 6.893625,83.6981836 7.75078711,83.6981836 L12.4007871,83.6981836 L12.4007871,85.248123 C12.4007871,87.8117988 10.3144629,89.898123 7.75078711,89.898123 C5.18711133,89.898123 3.10078711,87.8117988 3.10078711,85.248123 L3.10078711,14.3141895 L7.75078711,5.01418945 L11.4428145,12.3984258 L7.75078711,12.3984258 C6.893625,12.3984258 6.20084766,13.0928379 6.20084766,13.9483652 C6.20084766,14.8038926 6.893625,15.4983047 7.75078711,15.4983047 L12.4007871,15.4983047 L12.4007871,75.9483047 C12.4007871,76.803832 13.0935645,77.4982441 13.9507266,77.4982441 C14.8078887,77.4982441 15.500666,76.803832 15.500666,75.9483047 L15.500666,13.9516348 L15.500666,13.9236621 C15.4959434,13.6726348 15.4325508,13.4354121 15.3239297,13.2277969 L9.13652344,0.855527344 Z" id="Shape" fill="#6D7077"></path>
                <path d="M49.5991523,77.5000605 C49.5991523,74.0806758 46.818416,71.3001211 43.3992129,71.3001211 C39.9800098,71.3001211 37.1992734,74.0808574 37.1992734,77.5000605 C37.1992734,80.9192637 39.9800098,83.7 43.3992129,83.7 C46.818416,83.7 49.5991523,80.9192637 49.5991523,77.5000605 Z M40.2991523,77.5000605 C40.2991523,75.790459 41.6894297,74.4 43.3992129,74.4 C45.1073613,74.4 46.4992734,75.7902773 46.4992734,77.5000605 C46.4992734,79.2098438 45.1073613,80.6001211 43.3992129,80.6001211 C41.6896113,80.5999395 40.2991523,79.2096621 40.2991523,77.5000605 Z" id="Shape" fill="#fe7c24"></path>
                <path d="M79.0492734,74.4 C78.1921113,74.4 77.499334,75.0944121 77.499334,75.9499395 C77.499334,76.8054668 78.1921113,77.4998789 79.0492734,77.4998789 L91.449334,77.4998789 C92.3064961,77.4998789 92.9992734,76.8054668 92.9992734,75.9499395 L92.9992734,66.6499395 C92.9992734,62.3766621 89.5226719,58.8998789 85.2492129,58.8998789 L79.0492734,58.8998789 C74.7759961,58.8998789 71.2992129,62.3764805 71.2992129,66.6499395 L71.2992129,85.2499395 C71.2992129,89.5232168 74.7758145,93 79.0492734,93 L85.2492129,93 C89.5224902,93 92.9992734,89.5233984 92.9992734,85.2499395 L92.9992734,82.1498789 C92.9992734,81.2943516 92.3064961,80.5999395 91.449334,80.5999395 C90.5921719,80.5999395 89.8993945,81.2943516 89.8993945,82.1498789 L89.8993945,85.2499395 C89.8993945,87.8136152 87.8130703,89.8999395 85.2493945,89.8999395 L79.0494551,89.8999395 C76.4857793,89.8999395 74.3994551,87.8136152 74.3994551,85.2499395 L74.3994551,66.6499395 C74.3994551,64.0862637 76.4857793,61.9999395 79.0494551,61.9999395 L85.2493945,61.9999395 C87.8130703,61.9999395 89.8993945,64.0862637 89.8993945,66.6499395 L89.8993945,74.4 L79.0492734,74.4 Z" id="Shape" fill="#6D7077"></path>
            </g>
        </g>
    </g>
</svg>