<svg class="css-1qw4ra5 emqmst50" viewBox="0 0 400 54" fill="none" xmlns="http://www.w3.org/2000/svg"><path d="M97.989 24.465c0-9.494-7.047-15.874-17.535-15.874H70V40.55h10.454c10.322-.028 17.535-6.634 17.535-16.084zM76.32 34.87v-20.63h4.1c6.825 0 11.08 3.912 11.08 10.215 0 6.304-4.432 10.415-11.08 10.415h-4.1zm59.651-12.459L131.59 25.8c-1.618-2.353-3.49-3.45-5.884-3.45-3.789 0-6.537 2.838-6.537 6.745s2.77 6.8 6.537 6.8c2.322 0 4.189-1.102 5.884-3.406l4.382 3.345c-2.111 3.697-5.878 5.813-10.36 5.813-7.202 0-12.864-5.51-12.864-12.552s5.651-12.453 12.864-12.453c4.499 0 8.272 2.1 10.36 5.77zm23.823-14.756a3.653 3.653 0 01.619-2.04 3.706 3.706 0 015.676-.565 3.657 3.657 0 01-.551 5.647 3.704 3.704 0 01-2.049.622 3.71 3.71 0 01-2.614-1.063 3.657 3.657 0 01-1.092-2.59l.011-.011zm6.881 32.868h-6.344V16.641h6.322l.022 23.881zm-58.128 0h-6.343V16.624h6.321l.022 23.898zM101.679 7.66c0-.726.217-1.436.623-2.04a3.684 3.684 0 011.658-1.352 3.708 3.708 0 014.023.803 3.655 3.655 0 01-.577 5.649 3.703 3.703 0 01-2.054.61 3.7 3.7 0 01-2.609-1.075 3.66 3.66 0 01-1.081-2.595h.017zm40.094 24.52V21.91h-3.529v-5.262h3.529v-6.111h6.321v6.11h6.881v5.263h-6.881v9.681c0 2.755 1.402 3.912 4.676 3.912.659 0 1.529-.066 2.532-.143l.46-.038v5.234c-1.449.365-2.938.55-4.432.551-6.25 0-9.557-3.085-9.557-8.932v.006zm41.972-16.078c-7.202 0-12.864 5.466-12.864 12.453 0 6.987 5.629 12.503 12.82 12.503 7.191 0 12.964-5.51 12.964-12.503 0-6.992-5.684-12.453-12.92-12.453zm0 19.197c-3.728 0-6.438-2.815-6.438-6.694 0-3.88 2.71-6.8 6.438-6.8 3.729 0 6.432 2.937 6.432 6.794 0 3.857-2.77 6.7-6.432 6.7zm162.094-19.22c-7.202 0-12.864 5.473-12.864 12.454 0 6.981 5.618 12.503 12.82 12.503s12.964-5.51 12.964-12.503c0-6.992-5.684-12.453-12.925-12.453h.005zm0 19.204c-3.734 0-6.443-2.816-6.443-6.7 0-3.885 2.709-6.8 6.443-6.8 3.734 0 6.444 2.926 6.444 6.8 0 3.873-2.771 6.7-6.455 6.7h.011zm-138.748-8.728v13.968h-6.326V16.647h5.783v2.413l.266-.264a9.804 9.804 0 017.014-2.689c5.457 0 8.981 3.757 8.981 9.57v14.845h-6.277V26.554c0-2.893-1.878-4.838-4.671-4.838-2.792 0-4.77 1.989-4.77 4.838zm45.219 13.963V16.635h-5.784v3.345l-.277-.38c-1.662-2.26-4.376-3.505-7.689-3.505-6.743 0-11.635 5.257-11.635 12.503s4.892 12.503 11.635 12.503c3.224 0 5.922-1.212 7.59-3.411l.277-.364v3.19h5.883zm-12.521-5.12c-3.734 0-6.443-2.86-6.443-6.799 0-3.94 2.709-6.844 6.443-6.844 3.131 0 6.294 2.116 6.294 6.844s-3.163 6.8-6.294 6.8zm24.012-6.799v11.919h-6.372V16.613h5.818v3.23l.271-.359a8.096 8.096 0 012.902-2.356 8.143 8.143 0 013.658-.807 7.07 7.07 0 012.011.254v5.549h-1.64c-4.233 0-6.648 2.341-6.648 6.474zm15.623 21.297a17.3 17.3 0 01-4.117-.551v-5.235l.405.033c.875.083 1.662.15 2.288.15 1.917 0 3.878-.409 5.202-3.368l.765-1.653-9.297-22.619h6.693l6.044 16.15 6.449-16.15h6.648l-11.546 26.074c-2.254 4.998-5.108 7.163-9.556 7.163l.022.006zm25.335-13.175a3.853 3.853 0 01-2.307 3.622 3.897 3.897 0 01-1.477.329h-.144a3.985 3.985 0 01-2.809-1.157 3.94 3.94 0 010-5.588 3.985 3.985 0 012.809-1.157 3.891 3.891 0 012.747 1.107 3.847 3.847 0 011.159 2.712v.143l.022-.01zm25.701-14.844l-4.388 3.388c-1.618-2.352-3.49-3.449-5.878-3.449-3.762 0-6.532 2.838-6.532 6.744 0 3.907 2.77 6.8 6.543 6.8 2.316 0 4.188-1.102 5.878-3.405l4.388 3.344c-2.116 3.698-5.884 5.814-10.366 5.814-7.202 0-12.864-5.51-12.864-12.553 0-7.042 5.651-12.453 12.864-12.453 4.499 0 8.25 2.083 10.366 5.748l-.011.022zm54.205 4.584v14.068h-6.327V26.587c0-2.943-1.756-4.844-4.477-4.844-2.72 0-4.626 1.946-4.626 4.844v13.919h-6.321V16.624h5.784V19l.26-.27a9.184 9.184 0 016.754-2.645c3.147 0 5.601 1.18 7.091 3.406l.117.165.127-.154a10.453 10.453 0 013.62-2.574 10.501 10.501 0 014.369-.843c5.573 0 9.036 3.67 9.036 9.572v14.877h-6.31V26.587c0-2.943-1.756-4.844-4.477-4.844-2.72 0-4.62 1.929-4.62 4.695v.022zM24.587.193L.67 0a.662.662 0 00-.616.395.653.653 0 00-.054.25v41.167a.73.73 0 00.366.617l17.916 10.386a.59.59 0 00.804-.203.592.592 0 00.083-.303V13.83a.73.73 0 00-.388-.645L9.27 7.99a.381.381 0 01-.186-.463.38.38 0 01.435-.248l17.202 2.937a.682.682 0 01.554.667v34.642a.676.676 0 00.682.678h.077C40.776 44.781 49.457 35.86 49.64 23.485 49.812 9.643 39.513.385 24.587.193z" fill="#fff"/></svg>