<?xml version="1.0" encoding="UTF-8" standalone="no"?>
<!DOCTYPE svg PUBLIC "-//W3C//DTD SVG 1.1//EN" "http://www.w3.org/Graphics/SVG/1.1/DTD/svg11.dtd">
<svg width="100%" height="100%" viewBox="0 0 685 151" version="1.1" xmlns="http://www.w3.org/2000/svg" xmlns:xlink="http://www.w3.org/1999/xlink" xml:space="preserve" style="fill-rule:evenodd;clip-rule:evenodd;stroke-linejoin:round;stroke-miterlimit:1.41421;">
    <g transform="matrix(1,0,0,1,-57.6986,-124.892)">
        <g id="Layer-1">
            <path d="M256.219,222.565C269.373,222.565 278.987,212.648 278.987,199.394C278.987,186.24 269.373,176.325 256.219,176.325L244.685,176.325L244.685,222.565L256.219,222.565ZM231.634,166.004C231.634,164.993 232.443,164.081 233.454,164.081L257.433,164.081C276.963,164.081 292.949,179.967 292.949,199.394C292.949,219.023 276.963,234.909 257.433,234.909L233.454,234.909C232.443,234.909 231.634,233.999 231.634,232.987L231.634,166.004Z" style="fill:white;fill-rule:nonzero;"/>
            <path d="M326.933,209.613C326.63,205.869 323.392,202.732 319.546,202.732C315.499,202.732 312.159,205.767 311.653,209.613L326.933,209.613ZM319.849,193.424C330.271,193.424 338.77,201.315 338.77,212.243C338.77,212.952 338.67,214.266 338.567,214.975C338.467,215.987 337.556,216.695 336.646,216.695L310.744,216.695C311.047,220.843 314.588,225.498 320.457,225.498C323.593,225.498 326.527,224.284 328.348,222.968C329.362,222.361 330.271,222.16 330.98,222.968L335.129,227.723C335.838,228.432 336.038,229.546 335.026,230.354C331.688,233.492 326.527,235.92 319.952,235.92C307.809,235.92 299.207,226.307 299.207,214.671C299.207,203.238 307.809,193.424 319.849,193.424" style="fill:white;fill-rule:nonzero;"/>
            <path d="M359.706,227.319C362.944,227.319 366.079,224.588 366.687,223.373L366.687,217.808C366.687,217.808 363.956,216.594 361.02,216.594C357.074,216.594 354.445,218.82 354.445,222.058C354.445,225.093 356.568,227.319 359.706,227.319M359.503,209.308C363.55,209.308 366.89,210.422 366.89,210.422C366.99,205.261 365.37,203.44 361.626,203.44C357.883,203.44 352.622,204.25 350.295,204.958C348.878,205.363 348.169,204.452 347.969,203.137L347.058,197.876C346.755,196.357 347.563,195.65 348.475,195.345C349.284,195.043 355.759,193.423 362.235,193.423C374.883,193.423 377.815,200.001 377.815,211.029L377.815,232.986C377.815,233.998 376.907,234.908 375.895,234.908L372.251,234.908C371.543,234.908 371.037,234.605 370.531,233.492L369.317,230.759C366.99,232.884 363.247,235.92 356.974,235.92C348.878,235.92 343.314,230.658 343.314,222.058C343.314,214.874 349.181,209.308 359.503,209.308" style="fill:white;fill-rule:nonzero;"/>
            <path d="M388.534,166.004C388.534,164.992 389.446,164.081 390.457,164.081L398.956,164.081C399.968,164.081 400.879,164.992 400.879,166.004L400.879,232.986C400.879,233.998 399.968,234.908 398.956,234.908L390.457,234.908C389.446,234.908 388.534,233.998 388.534,232.986L388.534,166.004Z" style="fill:white;fill-rule:nonzero;"/>
            <path d="M436.69,209.613C436.386,205.869 433.149,202.732 429.305,202.732C425.256,202.732 421.918,205.767 421.413,209.613L436.69,209.613ZM429.608,193.424C440.03,193.424 448.529,201.315 448.529,212.243C448.529,212.952 448.426,214.266 448.327,214.975C448.226,215.987 447.315,216.695 446.403,216.695L420.501,216.695C420.803,220.843 424.347,225.498 430.214,225.498C433.352,225.498 436.287,224.284 438.107,222.968C439.119,222.361 440.03,222.16 440.739,222.968L444.885,227.723C445.594,228.432 445.797,229.546 444.786,230.354C441.445,233.492 436.287,235.92 429.709,235.92C417.566,235.92 408.966,226.307 408.966,214.671C408.966,203.238 417.566,193.424 429.608,193.424" style="fill:white;fill-rule:nonzero;"/>
            <path d="M456.109,196.357C456.109,195.244 457.018,194.435 458.03,194.435L461.876,194.435C462.785,194.435 463.393,194.941 463.697,195.751L465.114,199.696C466.529,197.673 470.275,193.423 476.547,193.423C481.303,193.423 485.552,194.941 484.338,197.47L480.594,204.047C480.088,204.958 479.077,205.363 478.268,204.958C477.963,204.857 476.445,204.351 475.334,204.351C471.287,204.351 468.857,207.084 468.149,208.5L468.149,232.986C468.149,234.402 467.237,234.908 465.823,234.908L458.03,234.908C457.018,234.908 456.109,233.998 456.109,232.986L456.109,196.357Z" style="fill:white;fill-rule:nonzero;"/>
            <path d="M492.729,166.51C492.729,165.194 493.741,164.081 495.157,164.081L504.061,164.081C505.378,164.081 506.489,165.194 506.489,166.51L506.489,193.828L531.987,165.093C532.391,164.587 532.998,164.081 533.91,164.081L544.029,164.081C545.949,164.081 546.961,166.206 545.646,167.724L519.238,197.471L547.569,231.367C548.582,232.682 547.772,234.908 545.75,234.908L534.718,234.908C533.708,234.908 533.101,234.504 532.898,234.199L506.489,201.62L506.489,232.481C506.489,233.795 505.378,234.908 504.061,234.908L495.157,234.908C493.741,234.908 492.729,233.795 492.729,232.481L492.729,166.51Z" style="fill:white;fill-rule:nonzero;"/>
            <path d="M554.944,196.357C554.944,195.244 555.852,194.435 556.864,194.435L560.711,194.435C561.62,194.435 562.126,194.941 562.431,195.649L563.845,199.393C565.363,197.774 570.321,193.423 578.114,193.423C590.963,193.423 596.124,203.036 596.124,213.559L596.124,232.986C596.124,233.998 595.213,234.908 594.201,234.908L585.904,234.908C584.79,234.908 583.981,233.998 583.981,232.986L583.981,212.952C583.981,207.689 581.25,204.351 576.394,204.351C571.132,204.351 567.895,207.994 566.883,210.725L566.883,232.986C566.883,234.402 566.275,234.908 564.351,234.908L556.864,234.908C555.852,234.908 554.944,233.998 554.944,232.986L554.944,196.357Z" style="fill:white;fill-rule:nonzero;"/>
            <path d="M624.143,224.992C629.504,224.992 633.856,220.338 633.856,214.571C633.856,208.904 629.504,204.351 624.143,204.351C618.679,204.351 614.429,208.904 614.429,214.571C614.429,220.338 618.679,224.992 624.143,224.992M624.143,193.424C635.577,193.424 644.884,203.138 644.884,214.571C644.884,226.206 635.577,235.92 624.143,235.92C612.709,235.92 603.402,226.206 603.402,214.571C603.402,203.138 612.709,193.424 624.143,193.424" style="fill:white;fill-rule:nonzero;"/>
            <path d="M648.721,196.763C648.112,195.447 649.024,194.435 650.439,194.435L657.725,194.435C658.331,194.435 659.343,194.941 659.546,195.65L665.616,213.761L665.718,213.761L676.037,194.334C676.241,193.93 676.746,193.424 677.658,193.424L678.467,193.424C679.378,193.424 679.782,193.828 680.087,194.334L690.306,213.761L690.407,213.761L696.476,195.65C696.882,194.537 697.691,194.435 698.805,194.435L705.381,194.435C706.798,194.435 707.707,195.447 707.201,196.763L694.556,234.806C694.353,235.414 693.744,235.92 692.733,235.92L692.329,235.92C691.518,235.92 691.012,235.515 690.709,235.01L677.961,211.433L677.861,211.433L665.212,235.01C664.909,235.515 664.404,235.92 663.592,235.92L663.086,235.92C662.178,235.92 661.569,235.414 661.367,234.806L648.721,196.763Z" style="fill:white;fill-rule:nonzero;"/>
            <path d="M712.149,230.052L714.88,224.588C715.284,223.576 716.295,223.373 717.208,223.879C717.208,223.879 721.759,226.308 726.415,226.308C728.438,226.308 729.855,225.498 729.855,223.779C729.855,221.957 728.438,220.844 723.077,218.719C715.284,215.685 711.643,211.535 711.643,205.364C711.643,199.191 716.196,193.424 726.515,193.424C732.485,193.424 736.836,195.144 738.961,196.56C739.872,197.168 740.378,198.281 739.872,199.293L737.342,204.452C736.836,205.364 735.722,205.465 734.914,205.16C734.914,205.16 730.361,203.036 726.515,203.036C724.088,203.036 723.077,204.048 723.077,205.364C723.077,207.184 724.897,207.791 728.641,209.309C736.431,212.345 742.3,215.685 742.3,223.576C742.3,230.254 736.431,235.92 726.212,235.92C719.534,235.92 714.88,233.795 712.754,232.176C712.149,231.67 711.743,230.861 712.149,230.052" style="fill:white;fill-rule:nonzero;"/>
            <path d="M207.828,203.68L202.704,203.432C202.76,202.287 202.789,201.144 202.789,199.999C202.789,181.31 195.51,163.736 182.293,150.517C169.074,137.3 151.5,130.021 132.81,130.021C125.588,130.022 118.449,131.125 111.588,133.3L110.04,128.412C117.4,126.078 125.062,124.893 132.81,124.892C152.87,124.892 171.734,132.705 185.919,146.891C200.105,161.079 207.918,179.94 207.918,199.999C207.918,201.226 207.888,202.453 207.828,203.68M87.536,259.941C84.794,257.866 82.157,255.568 79.7,253.11C65.512,238.923 57.699,220.062 57.699,200.002C57.699,179.939 65.512,161.076 79.7,146.891C86.086,140.503 93.453,135.379 101.599,131.662L103.727,136.327C96.142,139.789 89.279,144.563 83.326,150.517C70.107,163.735 62.828,181.308 62.828,200.002C62.828,218.692 70.107,236.265 83.326,249.484C85.618,251.775 88.077,253.917 90.631,255.852L87.536,259.941ZM132.807,275.109C119.526,275.109 106.472,271.596 95.058,264.953L97.637,260.521C108.269,266.709 120.432,269.98 132.807,269.98C151.5,269.98 169.077,262.701 182.293,249.484C192.608,239.164 199.351,226.136 201.793,211.809L206.846,212.67C204.227,228.05 196.99,242.034 185.919,253.11C171.734,267.295 152.87,275.109 132.807,275.109" style="fill:white;fill-rule:nonzero;"/>
            <path d="M132.157,137.133C131.512,137.133 132.603,137.162 129.982,137.183L129.982,227.09L122.12,227.09L122.12,223.35C119.499,226.515 114.559,229.171 109.042,229.171C95.868,229.171 88.207,218.549 88.207,204.455C88.207,190.256 98.014,179.327 112.006,179.327C115.377,179.327 119.499,179.94 122.12,180.86L122.12,137.99C93.292,142.92 69.6,168.82 69.6,199.949C69.6,234.585 97.86,262.763 132.495,262.763C134.272,262.763 135.223,262.672 137.844,262.527L137.844,158.799L145.706,157.47L145.706,203.504L146.257,203.504L165.563,179.917L176.185,179.917L155.71,203.398L176.287,227.09L165.563,227.09L146.257,203.504L145.706,203.504L145.706,261.254C174.534,255.006 194.926,229.899 194.926,199.949C194.926,165.311 166.793,137.133 132.157,137.133" style="fill:white;fill-rule:nonzero;"/>
            <path d="M96.887,204.249C96.887,214.566 102.097,221.409 110.779,221.409C115.172,221.409 119.501,219.672 122.122,216.915L122.122,190.257C119.501,188.008 115.785,186.887 111.699,186.887C102.199,186.887 96.887,194.649 96.887,204.249" style="fill:white;fill-rule:nonzero;"/>
        </g>
    </g>
</svg>
