<?xml version="1.0" encoding="UTF-8" standalone="no"?>
<!DOCTYPE svg PUBLIC "-//W3C//DTD SVG 1.1//EN" "http://www.w3.org/Graphics/SVG/1.1/DTD/svg11.dtd">
<svg width="100%" height="100%" viewBox="0 0 121 155" version="1.1" xmlns="http://www.w3.org/2000/svg" xmlns:xlink="http://www.w3.org/1999/xlink" xml:space="preserve" xmlns:serif="http://www.serif.com/" style="fill-rule:evenodd;clip-rule:evenodd;stroke-linejoin:round;stroke-miterlimit:1.41421;">
    <g transform="matrix(1,0,0,1,-11617.9,-937.915)">
        <g transform="matrix(2.66667,0,0,2.66667,11016,0)">
            <clipPath id="_clip1">
                <path d="M197.64,326.864C197.64,326.864 191.832,326.864 191.832,332.672L191.832,428.762C191.832,428.762 191.832,434.57 197.64,434.57L298.909,434.57C298.909,434.57 304.717,434.57 304.717,428.762L304.717,332.672C304.717,332.672 304.717,326.864 298.909,326.864L197.64,326.864Z" clip-rule="nonzero"/>
            </clipPath>
            <g clip-path="url(#_clip1)">
                <g transform="matrix(1,0,0,1,265.356,407.675)">
                    <path d="M0,-53.962C-1.367,-55.294 -3.164,-56.002 -5.059,-55.954L-32.388,-55.954C-34.28,-56.002 -36.077,-55.294 -37.444,-53.962C-38.86,-52.581 -39.64,-50.716 -39.64,-48.711L-39.64,-5.302C-39.64,-1.254 -36.387,2.04 -32.388,2.04L-5.056,2.04C-1.057,2.04 2.196,-1.254 2.196,-5.302L2.196,-48.711C2.196,-50.717 1.416,-52.581 0,-53.962M-4.988,0.263L-32.456,0.263C-35.426,0.263 -37.843,-2.185 -37.843,-5.195L-37.843,-48.819C-37.843,-51.828 -35.426,-54.277 -32.456,-54.277L-4.988,-54.277C-2.017,-54.277 0.4,-51.828 0.4,-48.819L0.4,-5.195C0.4,-2.185 -2.017,0.263 -4.988,0.263" style="fill:white;fill-rule:nonzero;"/>
                </g>
                <g transform="matrix(1,0,0,1,269.187,409.672)">
                    <path d="M0,-3.3C-0.912,-3.3 -1.654,-2.562 -1.654,-1.654C-1.654,-0.742 -0.912,0 0,0C0.907,0 1.645,-0.742 1.645,-1.654C1.645,-2.562 0.907,-3.3 0,-3.3M0.51,-2.071L0.452,-1.899C0.366,-1.814 0.188,-1.817 0.031,-1.819L-0.042,-1.82L-0.305,-1.82L-0.305,-2.314L0.134,-2.314C0.408,-2.314 0.51,-2.248 0.51,-2.071M0.367,-1.533C0.692,-1.577 0.877,-1.759 0.877,-2.069C0.877,-2.428 0.65,-2.602 0.183,-2.602L-0.655,-2.602L-0.655,-0.702L-0.305,-0.702L-0.305,-1.516L-0.012,-1.516L0.494,-0.702L0.883,-0.702C0.658,-0.477 0.351,-0.341 0,-0.341C-0.724,-0.341 -1.271,-0.906 -1.271,-1.654C-1.271,-2.398 -0.724,-2.958 0,-2.958C0.719,-2.958 1.262,-2.398 1.262,-1.654C1.262,-1.281 1.126,-0.953 0.902,-0.719C0.835,-0.82 0.449,-1.408 0.367,-1.533" style="fill:white;fill-rule:nonzero;"/>
                </g>
                <g transform="matrix(1,0,0,1,234.641,365.471)">
                    <path d="M0,-4.859L-3.276,-4.859L-3.309,-4.859L-3.309,-4.156L-2.791,-4.156C-2.616,-4.156 -2.52,-4.065 -2.52,-3.9L-2.52,-0.957C-2.52,-0.793 -2.616,-0.702 -2.791,-0.702L-3.302,-0.702L-3.302,0L-0.154,0L-0.154,-0.702L-0.711,-0.702C-0.886,-0.702 -0.982,-0.793 -0.982,-0.957L-0.982,-2.066L-0.156,-2.066C1.387,-2.066 2.075,-2.498 2.075,-3.466C2.075,-4.416 1.416,-4.859 0,-4.859M-0.982,-4.156L-0.219,-4.156C0.227,-4.156 0.538,-3.869 0.538,-3.459C0.538,-3.04 0.192,-2.77 -0.344,-2.77L-0.982,-2.77L-0.982,-4.156Z" style="fill:white;fill-rule:nonzero;"/>
                </g>
                <g transform="matrix(1,0,0,1,242.941,363.208)">
                    <path d="M0,-0.333L-2.913,-0.333L-2.913,0.37L-2.474,0.37C-2.299,0.37 -2.202,0.461 -2.202,0.626L-2.202,1.24C-2.202,1.546 -2.524,1.655 -2.825,1.655C-3.715,1.655 -4.129,1.078 -4.129,-0.162C-4.129,-1.4 -3.702,-2.001 -2.825,-2.001C-2.045,-2.001 -1.604,-1.624 -1.581,-0.939L-1.58,-0.907L-0.788,-0.907L-0.79,-2.661L-1.549,-2.661L-1.699,-2.274C-2.047,-2.566 -2.561,-2.741 -3.091,-2.741C-4.819,-2.741 -5.893,-1.728 -5.893,-0.097C-5.893,1.448 -4.819,2.408 -3.091,2.408C-2.748,2.408 -2.101,2.348 -1.565,1.98L-1.4,2.321L-0.665,2.321L-0.665,0.626C-0.665,0.461 -0.569,0.37 -0.393,0.37L0,0.37L0,-0.333Z" style="fill:white;fill-rule:nonzero;"/>
                </g>
                <g transform="matrix(1,0,0,1,248.873,361.292)">
                    <path d="M0,3.565C-0.47,3.486 -0.513,3.39 -0.673,3.034L-0.713,2.947L-2.264,-0.629L-2.286,-0.629L-3.486,-0.629L-4.97,2.676L-5.001,2.743C-5.213,3.191 -5.365,3.516 -5.984,3.572L-6.015,3.575L-6.015,4.194L-3.598,4.194L-3.598,3.575L-3.705,3.565L-3.803,3.553C-3.991,3.534 -4.274,3.505 -4.274,3.334L-4.187,3.036L-4.103,2.829L-2.289,2.829L-2.194,3.037L-2.164,3.123L-2.092,3.389C-2.092,3.53 -2.399,3.551 -2.582,3.563L-2.724,3.575L-2.723,3.606L-2.723,4.194L0.112,4.194L0.112,3.575L0,3.565M-2.575,2.192L-3.85,2.192C-3.813,2.108 -3.241,0.826 -3.185,0.7C-3.132,0.828 -2.609,2.109 -2.575,2.192" style="fill:white;fill-rule:nonzero;"/>
                </g>
                <g transform="matrix(1,0,0,1,262.355,395.925)">
                    <path d="M0,-28.904C0.742,-29.657 0.759,-31.465 0.759,-31.465C0.012,-32.825 -1.553,-33.232 -1.553,-33.232C-1.902,-33.48 -2.183,-33.251 -2.296,-33.128L-2.303,-33.128L-14.863,-40.794C-15.778,-41.268 -17.041,-39.648 -17.359,-39.052C-17.487,-38.836 -17.077,-38.518 -16.799,-38.347C-15.658,-37.6 -15.112,-39.515 -14.695,-40.192L-2.546,-32.527L-2.475,-31.866C-2.483,-30.869 -1.684,-30.043 -2.156,-28.599C-2.283,-26.578 -4.476,-26.173 -5.667,-24.917C-6.765,-23.842 -8.927,-23.977 -9.833,-23.094L-9.857,-23.07L-9.866,-23.107C-10.647,-25.152 -11.111,-25.266 -11.351,-26.088C-12.309,-26.449 -13.437,-26.536 -14.352,-26.044C-15.229,-25.471 -15.671,-24.384 -15.522,-23.427C-15.502,-22.448 -14.118,-21.384 -13.394,-20.959C-13.86,-20.285 -14.082,-19.462 -14.092,-19.119C-14.209,-17.669 -13.059,-16.279 -12.736,-15.705C-11.377,-13.689 -10.607,-12.088 -10.308,-11.522C-10.26,-11.413 -10.188,-11.325 -10.257,-11.176C-10.275,-11.137 -11.432,-9.113 -9.522,-6.209C-8.744,-4.716 -7.629,-1.383 -7.617,-1.364C-7.173,-0.891 -8.221,-1.184 -8.327,-0.091C-9.077,0.202 -14.755,4.548 -16.033,5.697C-16.543,5.846 -17.204,5.824 -17.417,6.463C-17.449,6.512 -17.647,7.078 -17.77,7.214C-18.317,7.843 -18.955,8.963 -19.073,10.059C-19.198,10.621 -19.057,11.713 -18.403,12.004C-18.106,12.136 -17.982,12.042 -17.904,12.004C-17.817,11.961 -17.449,10.962 -17.402,10.847C-16.949,9.749 -16.287,9.455 -14.755,7.932C-13.99,8.144 -13.655,8.596 -12.867,8.788C-10.738,6.811 -8.595,4.999 -6.503,2.97C-6.823,6.112 -7.121,9.337 -7.113,10.2C-7.248,10.751 -7.264,11.695 -6.875,12.161C-6.875,12.161 -3.397,12.364 -2.727,12.315C-2.393,12.29 -2.374,12.092 -2.374,12.092C-2.374,12.092 -2.062,11.623 -2.907,10.997C-3.152,10.816 -3.738,10.088 -4.192,9.79C-3.593,9.655 -2.961,9.551 -2.821,9.551C-2.982,7.901 -3.017,4.334 -3.136,-0.334C-3.654,-5.168 -3.698,-6.797 -6.106,-16.701C-4.402,-18.639 -4.467,-19.842 -2.829,-21.843C-1.947,-23.561 -0.586,-27.053 0,-28.904M-7.266,-19.962C-7.306,-20.101 -7.765,-21.163 -7.888,-21.526C-7.64,-21.606 -4.827,-23.48 -4.827,-23.48C-4.827,-23.48 -4.779,-23.289 -4.763,-23.147C-4.763,-23.147 -7.039,-20.313 -7.266,-19.962" style="fill:white;fill-rule:nonzero;"/>
                </g>
                <g transform="matrix(1,0,0,1,236.634,384.332)">
                    <path d="M0,-6.716C-1.325,-6.716 -1.969,-5.618 -1.969,-3.358C-1.969,-0.382 -0.917,0 0,0C0.897,0 1.967,-0.583 1.967,-3.358C1.967,-5.743 1.397,-6.716 0,-6.716M0,-1.108C-0.28,-1.108 -0.861,-1.108 -0.861,-3.358C-0.861,-5.608 -0.258,-5.608 0,-5.608C0.363,-5.608 0.86,-5.608 0.86,-3.358C0.86,-2.332 0.711,-1.108 0,-1.108" style="fill:white;fill-rule:nonzero;"/>
                </g>
                <g transform="matrix(1,0,0,1,241.39,369.697)">
                    <path d="M0,32.307L-0.122,32.266L-0.149,32.173L-0.147,31.835C-0.147,31.307 -0.184,30.746 -0.454,30.228L-0.564,30.059C0.017,29.547 0.314,28.873 0.314,28.052C0.314,27.493 0.174,26.913 -0.08,26.419L-0.106,26.371C-0.409,25.866 -0.849,25.491 -1.41,25.25C-0.626,24.65 -0.223,23.751 -0.223,22.57L-0.223,18.609L0.866,18.609L0.847,15.486L-1.256,15.486C-0.043,14.558 0.628,13.071 0.628,11.278C0.628,9.441 0.008,8.039 -1.208,7.102L-0.667,7.102L-0.667,4.17L-2.584,4.17L-2.584,0.124C-2.386,0.242 -2.075,0.532 -2.057,0.977L-2.016,2.006L0.838,2.016L0.838,-3.101L-10.285,-3.101L-10.285,2.016L-7.409,2.006L-7.37,0.976C-7.354,0.58 -7.104,0.27 -6.862,0.125L-6.862,4.17L-8.78,4.17L-8.78,7.102L-8.403,7.102C-9.619,8.039 -10.24,9.441 -10.24,11.278C-10.24,13.07 -9.569,14.558 -8.355,15.486L-10.221,15.486L-10.221,18.605L-9.128,18.605L-9.128,22.832C-9.128,23.638 -8.787,24.359 -8.153,24.928C-8.299,24.928 -10.252,24.925 -10.252,24.925L-10.261,28.006L-9.049,28.011L-9.061,28.194L-9.064,32.291L-10.256,32.294L-10.255,32.494L-10.253,35.35L-3.346,35.35L-3.346,34.796C-2.825,35.199 -2.163,35.408 -1.373,35.408L1.064,35.408L1.064,32.317L0,32.307ZM-4.805,7.089C-3.791,7.089 -0.48,7.391 -0.48,11.278C-0.48,13.939 -2.056,15.465 -4.805,15.465C-7.554,15.465 -9.131,13.939 -9.131,11.278C-9.131,7.391 -5.82,7.089 -4.805,7.089M-7.671,5.278L-6.389,5.278C-6.009,5.278 -5.753,4.876 -5.753,4.5L-5.753,-0.593C-5.753,-1.079 -6.416,-1.079 -6.634,-1.079C-7.426,-1.079 -8.247,-0.465 -8.314,0.901L-9.177,0.904L-9.177,-1.992L-0.27,-1.992L-0.27,0.904L-1.13,0.901C-1.198,-0.465 -2.02,-1.079 -2.812,-1.079C-3.03,-1.079 -3.692,-1.079 -3.692,-0.593L-3.692,4.5C-3.692,4.876 -3.437,5.278 -3.057,5.278L-1.774,5.278L-1.774,5.994L-7.671,5.994L-7.671,5.278ZM-8.159,17.677C-8.28,17.554 -8.475,17.497 -8.773,17.497L-9.112,17.497L-9.112,16.594L-4.736,16.594L-4.736,17.5L-5.375,17.5C-5.542,17.5 -6.048,17.5 -6.048,18.268L-6.048,22.792C-6.048,23.592 -5.345,24.071 -4.168,24.071C-2.597,24.071 -2.386,23.092 -2.36,22.896C-2.358,22.871 -2.358,18.81 -2.358,18.347L-2.361,18.35L-2.356,18.237L-2.355,18.144C-2.355,17.978 -2.372,17.805 -2.497,17.677C-2.618,17.554 -2.813,17.497 -3.11,17.497L-3.612,17.497L-3.612,16.594L-0.255,16.594L-0.249,17.5L-0.659,17.5C-0.825,17.5 -1.331,17.5 -1.331,18.268L-1.331,22.57C-1.331,23.758 -1.694,24.971 -4.385,24.971C-7.065,24.971 -8.02,23.866 -8.02,22.832L-8.02,18.347L-8.023,18.35L-8.019,18.235L-8.017,18.137C-8.017,17.979 -8.035,17.804 -8.159,17.677M-3.466,18.606L-3.467,22.641C-3.467,22.941 -3.957,22.973 -4.168,22.973C-4.623,22.973 -4.94,22.837 -4.94,22.642L-4.94,18.603C-4.857,18.609 -4.564,18.609 -3.466,18.606M-0.004,34.299L-1.333,34.299C-2.228,34.299 -2.792,33.997 -3.107,33.346C-3.244,32.993 -3.256,32.698 -3.256,32.404L-3.255,32.284L-3.256,32.017L-3.268,32.029C-3.256,31.993 -3.253,31.879 -3.243,31.477L-3.243,31.444C-3.243,31.133 -3.335,30.881 -3.517,30.694C-3.8,30.407 -4.19,30.392 -4.266,30.392L-5.809,30.392L-6.008,30.392L-6.006,32.703C-6.006,33.024 -5.695,33.363 -5.4,33.363L-4.308,33.363L-4.306,34.241L-9.107,34.241L-9.11,33.363L-8.474,33.363C-8.179,33.363 -7.89,33.05 -7.89,32.731L-7.901,27.457C-7.922,27.251 -8.071,26.907 -8.496,26.907L-9.109,26.911L-9.108,26.461L-9.107,26.034L-3.023,26.045C-2.008,26.045 -1.39,26.32 -1.02,26.937C-0.849,27.269 -0.755,27.666 -0.755,28.052C-0.755,28.557 -0.924,28.948 -1.273,29.247C-1.527,29.444 -1.861,29.619 -2.167,29.716L-2.661,29.873L-2.189,30.088C-1.922,30.209 -1.551,30.407 -1.406,30.718C-1.229,31.047 -1.215,31.464 -1.215,31.829L-1.217,32.162C-1.217,32.559 -1.11,32.866 -0.9,33.075C-0.606,33.366 -0.193,33.38 -0.004,33.379L-0.004,34.299ZM-4.357,32.287L-4.939,32.287C-4.945,32.23 -4.952,31.999 -4.954,31.484L-4.475,31.485L-4.366,31.493L-4.359,31.554L-4.355,32.049L-4.357,32.192L-4.357,32.287" style="fill:white;fill-rule:nonzero;"/>
                </g>
                <g transform="matrix(1,0,0,1,236.321,398.343)">
                    <path d="M0,-0.993C0.137,-0.992 0.981,-0.992 0.981,-0.992C1.236,-0.992 1.421,-0.798 1.421,-0.53C1.421,-0.231 1.197,-0.031 0.987,-0.031C0.987,-0.031 0.137,-0.03 0,-0.03L0,-0.993ZM2.251,-1.056C2.119,-1.54 1.667,-1.829 1.041,-1.829L-0.859,-1.834L-0.858,-1.754L-0.858,0.841L1.035,0.839C1.613,0.839 2.016,0.573 2.201,0.068C2.276,-0.136 2.306,-0.368 2.306,-0.582C2.306,-0.762 2.285,-0.929 2.251,-1.056" style="fill:white;fill-rule:nonzero;"/>
                </g>
            </g>
        </g>
    </g>
</svg>
