<?xml version="1.0" encoding="UTF-8" standalone="no"?>
<!DOCTYPE svg PUBLIC "-//W3C//DTD SVG 1.1//EN" "http://www.w3.org/Graphics/SVG/1.1/DTD/svg11.dtd">
<svg width="100%" height="100%" viewBox="0 0 5905 2071" version="1.1" xmlns="http://www.w3.org/2000/svg" xmlns:xlink="http://www.w3.org/1999/xlink" xml:space="preserve" xmlns:serif="http://www.serif.com/" style="fill-rule:evenodd;clip-rule:evenodd;stroke-linejoin:round;stroke-miterlimit:1.41421;">
    <g transform="matrix(4.16667,0,0,4.16667,0,0)">
        <path d="M443.305,5.88L443.302,5.881C441.454,6.304 439.535,6.754 437.551,7.232C437.534,7.236 437.518,7.24 437.501,7.244C434.259,8.024 430.842,8.879 427.276,9.811C427.162,9.841 427.048,9.87 426.933,9.901C424.888,10.436 422.793,10.999 420.653,11.586C420.422,11.65 420.191,11.714 419.958,11.778C418.537,12.17 417.099,12.573 415.64,12.989L415.638,12.99C414.962,13.182 414.28,13.379 413.597,13.576C413.276,13.669 412.953,13.763 412.63,13.857C411.525,14.179 410.41,14.508 409.287,14.843C408.903,14.958 408.521,15.071 408.136,15.187C407.496,15.379 406.854,15.574 406.21,15.77C405.755,15.909 405.297,16.05 404.839,16.191C403.861,16.492 402.877,16.798 401.886,17.109C401.37,17.271 400.854,17.434 400.335,17.599C399.739,17.788 399.141,17.978 398.541,18.171C397.616,18.468 396.687,18.769 395.754,19.075C395.211,19.253 394.666,19.434 394.121,19.615C393.486,19.825 392.85,20.038 392.211,20.252C391.687,20.428 391.163,20.603 390.636,20.782C389.631,21.123 388.621,21.47 387.608,21.821C387.104,21.995 386.599,22.172 386.093,22.349C385.313,22.622 384.531,22.898 383.746,23.177C383.267,23.347 382.789,23.517 382.309,23.689C381.287,24.056 380.262,24.429 379.233,24.806C378.784,24.971 378.333,25.137 377.882,25.304C376.795,25.706 375.706,26.112 374.612,26.525C374.308,26.64 374.003,26.757 373.698,26.873C372.681,27.261 371.661,27.653 370.639,28.05C370.264,28.196 369.89,28.341 369.514,28.488C368.314,28.958 367.11,29.434 365.903,29.918C365.627,30.029 365.351,30.142 365.075,30.253C364,30.687 362.922,31.127 361.843,31.572C361.568,31.685 361.294,31.797 361.02,31.911C359.956,32.353 358.889,32.803 357.821,33.256C358.778,34.163 359.749,35.075 360.686,36.013C381.419,56.745 394.874,82.327 401.296,110.104C402.251,114.237 403.056,118.415 403.7,122.636C403.887,123.867 404.07,125.092 404.232,126.331C404.27,126.625 404.301,126.922 404.338,127.216C404.479,128.343 404.61,129.472 404.729,130.603C404.79,131.189 404.847,131.776 404.903,132.363C404.983,133.21 405.056,134.058 405.124,134.908C405.177,135.564 405.233,136.22 405.279,136.878C405.345,137.842 405.398,138.808 405.449,139.776C405.512,140.938 405.56,142.103 405.599,143.269C405.616,143.779 405.635,144.288 405.647,144.798C405.671,145.738 405.688,146.679 405.697,147.622C405.7,148.001 405.7,148.381 405.702,148.761C405.714,151.983 405.641,155.217 405.485,158.461C405.469,158.799 405.453,159.137 405.434,159.476C405.38,160.493 405.319,161.51 405.248,162.528C405.223,162.88 405.194,163.233 405.168,163.585C405.035,165.338 404.879,167.093 404.698,168.849C404.644,169.368 404.595,169.888 404.538,170.407C404.451,171.185 404.355,171.962 404.259,172.74C404.164,173.518 404.064,174.296 403.958,175.074C403.871,175.723 403.783,176.372 403.689,177.021C403.479,178.465 403.258,179.908 403.016,181.351C403.667,180.437 404.347,179.416 404.986,178.495C405.714,177.446 406.448,176.401 407.16,175.343C408.625,173.172 410.055,170.979 411.459,168.772C411.89,168.098 412.337,167.433 412.762,166.755C413.614,165.393 414.454,164.025 415.285,162.653C415.463,162.358 415.636,162.061 415.814,161.767C416.432,160.736 417.047,159.704 417.654,158.669C418.175,157.778 418.691,156.886 419.202,155.992C419.233,155.939 419.264,155.886 419.295,155.833C419.541,155.402 419.786,154.971 420.03,154.539C420.786,153.206 421.529,151.869 422.265,150.53C422.74,149.665 423.215,148.799 423.682,147.931C423.812,147.688 423.943,147.443 424.074,147.199C424.452,146.491 424.825,145.782 425.199,145.073C426.097,143.36 426.97,141.636 427.841,139.92C428.367,138.879 428.907,137.839 429.424,136.796C430.848,133.918 432.237,131.037 433.577,128.156C433.982,127.286 434.362,126.417 434.761,125.546C435.735,123.412 436.696,121.279 437.628,119.151C438.142,117.975 438.64,116.801 439.14,115.628C439.572,114.616 439.986,113.61 440.408,112.601C440.77,111.733 441.141,110.863 441.497,109.998C441.959,108.863 442.428,107.726 442.882,106.596C443.776,104.369 444.637,102.155 445.483,99.951C445.693,99.398 445.913,98.841 446.126,98.287C446.285,97.867 446.443,97.448 446.601,97.029C447.555,94.485 448.479,91.959 449.371,89.455C449.739,88.424 450.089,87.406 450.447,86.383C451.095,84.527 451.733,82.681 452.346,80.855C452.71,79.775 453.071,78.699 453.422,77.63C454.035,75.767 454.625,73.927 455.203,72.1C455.487,71.207 455.781,70.303 456.055,69.419C456.433,68.206 456.802,67.004 457.166,65.809C457.205,65.679 457.245,65.548 457.284,65.42C457.584,64.434 457.873,63.46 458.161,62.489C458.268,62.128 458.378,61.755 458.483,61.396C458.566,61.117 458.65,60.835 458.731,60.557C458.742,60.519 458.753,60.481 458.764,60.443C459.453,58.086 460.111,55.771 460.74,53.506C460.741,53.503 460.742,53.5 460.742,53.5C464.554,39.773 467.295,27.827 469.17,18.74C469.172,18.729 469.174,18.719 469.177,18.709C469.591,16.701 469.962,14.834 470.294,13.118C470.298,13.1 470.301,13.083 470.304,13.065C470.544,11.822 470.764,10.661 470.962,9.582C470.974,9.518 470.986,9.454 470.997,9.392C471.191,8.34 471.365,7.37 471.52,6.486C471.526,6.453 471.532,6.419 471.537,6.386C471.586,6.107 471.633,5.838 471.678,5.577C471.688,5.518 471.698,5.46 471.708,5.401C471.837,4.651 471.951,3.977 472.049,3.382C472.065,3.284 472.081,3.187 472.096,3.094C472.122,2.933 472.148,2.775 472.172,2.627C472.184,2.557 472.194,2.493 472.205,2.425C472.25,2.141 472.292,1.88 472.328,1.649C472.334,1.607 472.341,1.561 472.348,1.521C472.367,1.398 472.385,1.283 472.402,1.176C472.408,1.134 472.414,1.092 472.42,1.052C472.508,0.478 472.552,0.174 472.552,0.174C472.552,0.174 461.231,1.776 443.305,5.88Z" style="fill:rgb(89,201,244);fill-rule:nonzero;"/>
        <path d="M357.821,33.256C323.91,47.638 288.552,67.673 261.071,95.154C241.346,114.879 224.366,135.397 210.601,155.526C218.025,157.124 224.872,159.758 230.687,162.697C217.912,171.58 201.783,184.984 185.027,200.174C171.496,229.827 166.812,256.303 172.834,275.003C184.97,241.829 204.534,210.435 231.478,183.492C279.097,135.873 340.604,111.293 401.296,110.104C394.874,82.327 381.419,56.745 360.686,36.012C359.749,35.076 358.778,34.163 357.821,33.256Z" style="fill:rgb(40,170,225);fill-rule:nonzero;"/>
        <path d="M210.601,155.526C200.078,153.261 188.393,153.081 176.824,157.093C146.531,167.598 94.223,262.688 94.264,297.399C108.078,275.852 148.077,233.67 185.027,200.174C201.783,184.984 217.912,171.58 230.687,162.697C224.872,159.758 218.025,157.124 210.601,155.526Z" style="fill:rgb(4,77,120);fill-rule:nonzero;"/>
        <path d="M405.485,158.461C405.641,155.218 405.713,151.983 405.702,148.761C405.714,151.983 405.641,155.217 405.485,158.461ZM404.698,168.849C404.877,167.093 405.036,165.338 405.168,163.585C405.035,165.338 404.879,167.093 404.698,168.849ZM441.465,83.465C440.874,84.174 440.3,84.888 439.702,85.595C439.388,85.967 439.059,86.334 438.742,86.706C432.303,94.261 425.468,101.69 418.22,108.937C417.755,109.403 417.285,109.855 416.818,110.316C415.621,111.497 414.419,112.665 413.212,113.819C410.073,116.821 406.897,119.757 403.7,122.636C403.887,123.867 404.07,125.092 404.232,126.331C404.07,125.095 403.887,123.865 403.7,122.636C352.543,168.718 294.512,195.843 244.591,200.24C252.188,221.022 264.05,240.15 280.278,256.381C286.487,262.586 293.12,268.146 300.104,273.085C325.567,257.798 352.221,237.001 377.572,211.653C386.884,202.341 395.345,192.11 403.016,181.351C403.667,180.437 404.347,179.416 404.986,178.495C405.714,177.446 406.448,176.401 407.16,175.343C408.625,173.172 410.055,170.979 411.459,168.772C411.89,168.098 412.337,167.433 412.762,166.755C413.614,165.393 414.454,164.025 415.285,162.653C415.463,162.358 415.636,162.061 415.814,161.767C416.432,160.736 417.047,159.704 417.654,158.669C418.175,157.778 418.691,156.886 419.202,155.992C419.233,155.939 419.264,155.886 419.295,155.833C419.541,155.402 419.786,154.971 420.03,154.539C420.786,153.206 421.529,151.869 422.265,150.53C422.74,149.665 423.215,148.799 423.682,147.931C423.812,147.688 423.943,147.443 424.074,147.199C424.452,146.491 424.825,145.782 425.199,145.073C426.097,143.36 426.97,141.636 427.841,139.92C428.367,138.879 428.907,137.839 429.424,136.796C430.848,133.918 432.237,131.037 433.577,128.156C433.982,127.286 434.362,126.417 434.761,125.546C435.735,123.412 436.696,121.279 437.628,119.151C438.142,117.975 438.64,116.801 439.14,115.628C439.572,114.616 439.986,113.61 440.408,112.601C440.77,111.733 441.141,110.863 441.497,109.998C441.959,108.863 442.428,107.726 442.882,106.596C443.776,104.369 444.637,102.155 445.483,99.951C445.693,99.398 445.913,98.841 446.126,98.287C446.285,97.867 446.443,97.448 446.601,97.029C447.555,94.485 448.479,91.959 449.371,89.455C449.739,88.424 450.089,87.406 450.447,86.383C451.095,84.527 451.733,82.681 452.346,80.855C452.71,79.775 453.071,78.699 453.422,77.63C454.035,75.767 454.625,73.927 455.203,72.1C455.487,71.207 455.781,70.303 456.055,69.419C456.433,68.206 456.802,67.004 457.166,65.809C457.205,65.679 457.245,65.548 457.284,65.42C457.584,64.434 457.873,63.46 458.161,62.489C458.268,62.128 458.378,61.755 458.483,61.396C453.198,68.835 447.507,76.211 441.465,83.465Z" style="fill:rgb(17,129,148);fill-rule:nonzero;"/>
        <path d="M162.364,316.114C162.214,316.047 162.051,315.996 161.901,315.929L160.794,315.424L146.873,330.558L146.318,331.209L77.624,398.663L177.277,336.252C188.188,334.375 200.499,329.843 213.456,322.983C192.13,327.493 174.248,325.562 162.364,316.114Z" style="fill:rgb(218,34,42);fill-rule:nonzero;"/>
        <path d="M0,468.739L150.014,311.942L154.333,307.128C148.638,298.12 146.569,286.293 147.741,272.526L0,468.739Z" style="fill:rgb(247,154,32);fill-rule:nonzero;"/>
        <path d="M441.465,83.465C440.874,84.174 440.3,84.888 439.702,85.595C439.388,85.967 439.059,86.334 438.742,86.706C432.303,94.261 425.468,101.69 418.22,108.937C417.755,109.402 417.285,109.855 416.818,110.316C415.621,111.497 414.419,112.665 413.212,113.82C410.073,116.821 406.897,119.756 403.7,122.636C403.887,123.867 404.07,125.092 404.232,126.331C404.27,126.625 404.301,126.921 404.338,127.216C404.479,128.343 404.61,129.471 404.728,130.603C404.79,131.189 404.847,131.776 404.903,132.363C404.983,133.21 405.056,134.058 405.124,134.907C405.177,135.564 405.233,136.22 405.279,136.878C405.345,137.842 405.398,138.808 405.449,139.776C405.512,140.938 405.56,142.103 405.599,143.269C405.616,143.779 405.635,144.288 405.647,144.798C405.671,145.738 405.688,146.679 405.697,147.622C405.7,148.001 405.7,148.381 405.702,148.761C405.714,151.983 405.641,155.217 405.485,158.461C405.469,158.799 405.453,159.137 405.434,159.476C405.38,160.493 405.319,161.51 405.248,162.528C405.224,162.88 405.194,163.232 405.168,163.585C405.035,165.338 404.879,167.093 404.698,168.849C404.644,169.368 404.595,169.887 404.538,170.407C404.451,171.185 404.355,171.963 404.259,172.741C404.164,173.519 404.064,174.297 403.958,175.074C403.871,175.723 403.783,176.372 403.689,177.021C403.479,178.465 403.258,179.908 403.016,181.351C403.668,180.437 404.347,179.416 404.986,178.495C405.714,177.446 406.448,176.401 407.16,175.343C408.625,173.172 410.055,170.979 411.459,168.773C411.89,168.097 412.337,167.433 412.762,166.755C413.614,165.393 414.454,164.025 415.285,162.653C415.463,162.358 415.636,162.061 415.813,161.766C416.432,160.736 417.047,159.704 417.654,158.669C418.175,157.779 418.691,156.886 419.202,155.992C419.233,155.939 419.264,155.886 419.295,155.833C419.541,155.402 419.786,154.97 420.03,154.539C420.786,153.206 421.529,151.869 422.265,150.53C422.74,149.665 423.215,148.799 423.682,147.932C423.812,147.688 423.943,147.443 424.074,147.199C424.452,146.491 424.825,145.782 425.199,145.073C426.097,143.36 426.97,141.636 427.841,139.92C428.367,138.879 428.907,137.839 429.424,136.796C430.848,133.918 432.237,131.037 433.577,128.156C433.982,127.285 434.362,126.417 434.761,125.546C435.735,123.412 436.696,121.279 437.628,119.151C438.142,117.975 438.64,116.801 439.14,115.628C439.572,114.616 439.986,113.61 440.408,112.601C440.77,111.733 441.141,110.863 441.497,109.998C441.959,108.863 442.428,107.726 442.882,106.596C443.776,104.369 444.637,102.155 445.484,99.951C445.693,99.397 445.912,98.841 446.126,98.287C446.285,97.867 446.443,97.448 446.601,97.029C447.555,94.485 448.479,91.959 449.371,89.455C449.739,88.424 450.089,87.406 450.447,86.383C451.095,84.527 451.733,82.681 452.346,80.855C452.71,79.775 453.071,78.699 453.422,77.63C454.035,75.767 454.625,73.927 455.203,72.101C455.487,71.207 455.781,70.303 456.055,69.419C456.433,68.206 456.802,67.004 457.166,65.809C457.205,65.679 457.245,65.548 457.285,65.42C457.584,64.434 457.873,63.46 458.162,62.489C458.268,62.129 458.378,61.755 458.483,61.396C453.198,68.835 447.507,76.212 441.465,83.465Z" style="fill:rgb(40,38,99);fill-rule:nonzero;"/>
        <path d="M190.141,362.357C218.93,365.884 278.909,350.403 290.672,326.332C298.33,310.655 295.92,293.466 291.441,281.094C263.706,312.194 218.139,348.852 190.141,362.357Z" style="fill:rgb(4,77,120);fill-rule:nonzero;"/>
        <path d="M367.296,328.857C374.676,328.857 377.94,322.895 377.944,315.657C377.944,311.118 375.815,308.703 371.276,308.703L366.162,308.703L361.334,328.857L367.296,328.857ZM360.058,350.571L356.932,350.571L349.414,383.356L310.241,383.356L333.098,284.01L376.099,284.01C403.633,284.01 415.98,292.524 415.98,312.394C415.975,327.581 408.168,338.367 395.679,344.467L407.034,375.833L407.034,383.356L370.417,383.356L360.058,350.571Z" style="fill:white;fill-rule:nonzero;"/>
        <path d="M484.651,322.753C484.656,313.669 480.828,309.699 475.857,309.699C461.097,309.699 455.841,334.535 455.841,346.032C455.841,353.128 458.398,358.943 465.067,358.943C479.401,358.943 484.651,334.392 484.651,322.753ZM416.815,344.187C416.819,312.109 438.96,282.165 477.56,282.165C506.939,282.165 523.687,299.193 523.682,324.318C523.682,356.249 500.408,385.059 462.657,385.059C438.386,385.059 416.815,372.855 416.815,344.187Z" style="fill:white;fill-rule:nonzero;"/>
        <path d="M527.221,343.618C527.226,310.975 550.074,282.308 593.36,282.308C609.543,282.308 618.906,285.286 626.714,289.688L621.178,314.096L604.573,314.096C602.163,311.682 597.904,309.415 591.092,309.415C574.344,309.415 567.244,329.991 567.244,344.609C567.244,354.546 572.352,358.943 581.435,358.943C588.531,358.943 593.213,355.964 596.481,352.985L612.375,352.985L606.697,378.39C599.744,381.938 589.385,385.059 574.766,385.059C548.793,385.059 527.221,373.704 527.221,343.618Z" style="fill:white;fill-rule:nonzero;"/>
        <path d="M639.62,284.01L678.789,284.01L671.124,317.502L700.218,284.01L737.12,284.01L737.12,290.252L702.059,326.585L718.664,377.109L718.664,383.356L679.918,383.356L669.274,350.571L661.894,357.24L655.936,383.356L616.762,383.356L639.62,284.01Z" style="fill:white;fill-rule:nonzero;"/>
        <path d="M748.746,284.01L823.251,284.01L817.294,309.837L781.952,309.837L779.254,321.477L803.52,321.477L797.984,345.605L773.718,345.605L770.877,358.236L808.348,358.236L802.528,383.356L725.888,383.356L748.746,284.01Z" style="fill:white;fill-rule:nonzero;"/>
        <path d="M847.37,310.548L825.798,310.548L831.903,284.01L914.078,284.01L907.973,310.548L886.544,310.548L869.791,383.356L830.617,383.356L847.37,310.548Z" style="fill:white;fill-rule:nonzero;"/>
        <path d="M924.712,284.01L963.881,284.01L946.986,357.525L980.624,357.525L974.662,383.356L901.855,383.356L924.712,284.01Z" style="fill:white;fill-rule:nonzero;"/>
        <path d="M1054.56,322.753C1054.56,313.669 1050.73,309.699 1045.76,309.699C1031,309.699 1025.75,334.535 1025.75,346.032C1025.75,353.128 1028.3,358.943 1034.97,358.943C1049.31,358.943 1054.56,334.392 1054.56,322.753ZM986.719,344.187C986.724,312.109 1008.87,282.165 1047.46,282.165C1076.84,282.165 1093.59,299.193 1093.59,324.318C1093.59,356.249 1070.31,385.059 1032.56,385.059C1008.29,385.059 986.719,372.855 986.719,344.187Z" style="fill:white;fill-rule:nonzero;"/>
        <path d="M1133.74,341.63L1147.51,341.63L1146.95,315.657L1146.52,315.657L1133.74,341.63ZM1083.36,375.833L1133.18,284.01L1178.45,284.01L1187.11,375.833L1187.11,383.356L1148.36,383.356L1147.93,367.319L1121.11,367.319L1113.3,383.356L1083.36,383.356L1083.36,375.833Z" style="fill:white;fill-rule:nonzero;"/>
        <path d="M1216.06,284.01L1255.22,284.01L1266.72,328.43L1267.14,328.43L1277.37,284.01L1308.73,284.01L1285.87,383.356L1249.54,383.356L1236.34,333.965L1235.92,333.965L1224.56,383.356L1193.2,383.356L1216.06,284.01Z" style="fill:white;fill-rule:nonzero;"/>
        <path d="M1298.07,375.549L1303.04,353.408L1320.35,353.408C1323.62,356.533 1330.01,358.805 1336.96,358.805C1342.21,358.805 1345.61,357.809 1345.61,354.546C1345.61,351.847 1342.07,350.856 1333.27,348.442C1317.8,344.187 1309.71,336.807 1309.71,321.05C1309.71,293.658 1328.59,282.023 1355.98,282.023C1373.01,282.023 1383.8,285.856 1392.32,291.106L1387.06,313.247L1370.03,313.247C1366.63,310.264 1360.52,307.992 1354,307.992C1348.18,307.992 1346.19,309.415 1346.19,312.109C1346.19,314.95 1349.59,315.941 1357.12,317.929C1377.41,323.464 1384.79,332.263 1384.79,345.321C1384.79,369.871 1366.62,385.059 1336.39,385.059C1319.93,385.059 1307.15,382.222 1298.07,375.549Z" style="fill:white;fill-rule:nonzero;"/>
        <path d="M117.954,419.48L117.769,419.48L104.111,456.672L131.612,456.672L117.954,419.48ZM97.558,474.574C96.728,476.236 96.174,477.62 93.867,477.62C91.929,477.62 90.914,476.42 90.914,475.036C90.914,474.298 91.191,473.19 91.56,472.267L112.693,415.604C113.524,413.482 114.539,410.805 117.861,410.805C121.184,410.805 122.199,413.482 123.029,415.604L144.163,472.267C144.532,473.19 144.809,474.298 144.809,475.036C144.809,476.42 143.794,477.62 141.856,477.62C139.548,477.62 138.81,476.236 138.164,474.574L133.827,462.761L101.896,462.761L97.558,474.574Z" style="fill:white;fill-rule:nonzero;"/>
        <path d="M216.692,456.025C218.261,452.518 218.907,448.458 218.907,444.213C218.907,433.23 213.093,422.987 201.558,422.987C190.022,422.987 184.208,433.047 184.208,444.213C184.208,455.471 189.837,465.438 201.558,465.438C203.68,465.438 205.618,465.162 207.464,464.793L204.142,461.562C203.127,460.639 202.388,459.163 202.388,457.871C202.388,454.271 204.88,451.226 208.664,451.226C209.956,451.226 211.063,451.687 212.17,452.425L216.692,456.025ZM217.8,474.113C213.278,476.697 207.833,478.174 201.558,478.174C182.824,478.174 169.812,463.316 169.812,444.213C169.812,425.017 182.732,410.252 201.558,410.252C220.107,410.252 233.304,425.478 233.304,444.213C233.304,452.334 231.181,459.717 227.121,465.531L232.381,470.052C234.134,471.621 235.611,473.097 235.611,475.681C235.611,478.912 232.381,481.496 229.243,481.496C227.213,481.496 225.552,480.666 223.06,478.543L217.8,474.113Z" style="fill:white;fill-rule:nonzero;"/>
        <path d="M238.65,434.8C238.65,430.37 241.419,427.417 245.295,427.417C249.171,427.417 251.94,430.37 251.94,434.8L251.94,458.517C251.94,464.054 256.092,467.099 260.522,467.099C264.952,467.099 269.105,464.054 269.105,458.517L269.105,434.8C269.105,430.37 271.873,427.417 275.749,427.417C279.625,427.417 282.394,430.37 282.394,434.8L282.394,458.794C282.394,470.606 274.549,478.174 260.522,478.174C246.495,478.174 238.65,470.606 238.65,458.794L238.65,434.8Z" style="fill:white;fill-rule:nonzero;"/>
        <path d="M289.773,434.8C289.773,430.37 292.542,427.417 296.418,427.417C300.294,427.417 303.062,430.37 303.062,434.8L303.062,470.237C303.062,474.667 300.294,477.62 296.418,477.62C292.542,477.62 289.773,474.667 289.773,470.237L289.773,434.8ZM303.893,414.773C303.893,418.926 300.57,422.433 296.418,422.433C292.449,422.433 288.942,418.834 288.942,414.773C288.942,410.99 292.449,407.483 296.418,407.483C300.386,407.483 303.893,410.898 303.893,414.773Z" style="fill:white;fill-rule:nonzero;"/>
        <path d="M343.48,441.629C340.158,441.629 337.205,439.045 332.96,439.045C325.392,439.045 321.793,445.781 321.793,452.611C321.793,459.163 325.761,465.992 332.96,465.992C336.282,465.992 341.265,463.223 342.834,463.223C345.972,463.223 348.556,465.9 348.556,469.037C348.556,475.867 337.112,478.174 332.314,478.174C318.009,478.174 308.504,466.453 308.504,452.611C308.504,439.136 318.286,426.863 332.314,426.863C337.574,426.863 348.556,428.8 348.556,435.261C348.556,438.029 346.618,441.629 343.48,441.629Z" style="fill:white;fill-rule:nonzero;"/>
        <path d="M353.167,413.389C353.167,408.96 355.936,406.007 359.812,406.007C363.688,406.007 366.456,408.96 366.456,413.389L366.456,444.397L381.037,430.277C383.16,428.248 385.282,427.417 387.036,427.417C390.358,427.417 392.665,430.463 392.665,433.416C392.665,435.353 392.019,436.922 390.081,438.675L378.269,449.196L393.865,467.468C395.065,468.853 395.526,470.422 395.526,471.898C395.526,475.405 392.757,478.174 389.251,478.174C386.851,478.174 385.005,476.697 382.883,474.113L366.641,454.088L366.456,454.088L366.456,470.237C366.456,474.667 363.688,477.62 359.812,477.62C355.936,477.62 353.167,474.667 353.167,470.237L353.167,413.389Z" style="fill:white;fill-rule:nonzero;"/>
        <path d="M430.868,448.089C430.13,442.275 426.439,437.937 420.255,437.937C414.349,437.937 410.381,442.459 409.735,448.089L430.868,448.089ZM410.012,456.948C410.935,463.5 416.379,466.546 422.563,466.546C429.392,466.546 434.098,461.193 437.605,461.193C440.466,461.193 443.05,464.054 443.05,466.915C443.05,472.636 431.237,478.174 421.363,478.174C406.413,478.174 396.446,467.284 396.446,452.611C396.446,439.136 406.228,426.863 420.255,426.863C434.652,426.863 444.157,439.967 444.157,451.042C444.157,455.009 442.404,456.948 438.343,456.948L410.012,456.948Z" style="fill:white;fill-rule:nonzero;"/>
        <path d="M448.859,434.8C448.859,430.37 451.628,427.417 455.503,427.417C458.918,427.417 461.133,429.262 461.594,432.308C464.178,428.709 468.147,426.863 474.422,426.863C484.85,426.863 492.602,433.508 492.602,444.766L492.602,470.237C492.602,474.667 489.834,477.62 485.958,477.62C482.082,477.62 479.313,474.667 479.313,470.237L479.313,447.074C479.313,440.89 475.437,437.937 470.638,437.937C465.193,437.937 462.148,441.906 462.148,447.074L462.148,470.237C462.148,474.667 459.379,477.62 455.503,477.62C451.628,477.62 448.859,474.667 448.859,470.237L448.859,434.8Z" style="fill:white;fill-rule:nonzero;"/>
        <path d="M525.265,418.004C525.265,413.389 528.218,410.805 532.187,410.805C536.155,410.805 539.108,413.389 539.108,418.004L539.108,464.331L555.535,464.331C560.241,464.331 562.272,467.838 562.179,470.975C561.995,474.021 559.595,477.066 555.535,477.066L532.463,477.066C527.941,477.066 525.265,474.113 525.265,469.499L525.265,418.004Z" style="fill:white;fill-rule:nonzero;"/>
        <path d="M575.558,452.611C575.558,458.978 578.88,465.992 586.078,465.992C593.276,465.992 596.599,458.978 596.599,452.611C596.599,446.243 593.369,439.045 586.078,439.045C578.788,439.045 575.558,446.243 575.558,452.611ZM609.888,452.611C609.888,466.453 600.382,478.174 586.078,478.174C571.774,478.174 562.269,466.453 562.269,452.611C562.269,439.136 572.051,426.863 586.078,426.863C600.106,426.863 609.888,439.136 609.888,452.611Z" style="fill:white;fill-rule:nonzero;"/>
        <path d="M637.385,465.992C644.307,465.992 647.629,458.978 647.629,452.611C647.629,446.243 644.399,439.045 637.385,439.045C630.095,439.045 626.865,446.243 626.865,452.611C626.865,458.978 630.187,465.992 637.385,465.992ZM660.918,468.945C660.918,472.359 660.918,477.62 654.55,477.62C650.674,477.62 649.106,475.498 648.183,471.99C644.768,476.05 640.615,478.174 635.54,478.174C623.081,478.174 613.576,467.56 613.576,452.611C613.576,438.029 623.358,426.863 635.54,426.863C640.431,426.863 645.23,428.8 648.183,432.954C648.552,429.724 651.32,427.417 654.55,427.417C660.918,427.417 660.918,432.677 660.918,436.092L660.918,468.945Z" style="fill:white;fill-rule:nonzero;"/>
        <path d="M668.481,434.8C668.481,430.37 671.25,427.417 675.126,427.417C678.54,427.417 680.755,429.262 681.216,432.308C683.8,428.709 687.769,426.863 694.044,426.863C704.472,426.863 712.224,433.508 712.224,444.766L712.224,470.237C712.224,474.667 709.456,477.62 705.579,477.62C701.704,477.62 698.935,474.667 698.935,470.237L698.935,447.074C698.935,440.89 695.059,437.937 690.26,437.937C684.815,437.937 681.77,441.906 681.77,447.074L681.77,470.237C681.77,474.667 679.002,477.62 675.126,477.62C671.25,477.62 668.481,474.667 668.481,470.237L668.481,434.8Z" style="fill:white;fill-rule:nonzero;"/>
        <path d="M747.75,442.367C745.259,442.367 740.183,438.491 735.845,438.491C733.446,438.491 731.323,439.598 731.323,442.182C731.323,448.365 754.395,447.443 754.395,462.578C754.395,471.437 746.919,478.174 735.476,478.174C728.001,478.174 716.927,473.928 716.927,467.929C716.927,465.9 718.957,462.023 722.648,462.023C727.816,462.023 730.124,466.546 736.399,466.546C740.46,466.546 741.659,465.254 741.659,462.761C741.659,456.672 718.588,457.593 718.588,442.367C718.588,433.138 726.064,426.863 736.583,426.863C743.136,426.863 753.194,429.908 753.194,436.461C753.194,439.506 750.888,442.367 747.75,442.367Z" style="fill:white;fill-rule:nonzero;"/>
        <path d="M792.779,473.375C792.779,476.143 791.579,477.62 789.457,477.62C787.335,477.62 786.135,476.143 786.135,473.375L786.135,414.681C786.135,412.836 787.611,411.451 789.457,411.359L812.806,411.359C814.928,411.359 816.312,412.744 816.312,414.404C816.312,416.066 814.928,417.45 812.806,417.45L792.779,417.45L792.779,441.259L810.498,441.259C812.62,441.259 814.005,442.644 814.005,444.304C814.005,445.967 812.62,447.35 810.498,447.35L792.779,447.35L792.779,473.375Z" style="fill:white;fill-rule:nonzero;"/>
        <path d="M842.334,472.083C852.67,472.083 856.177,461.47 856.177,452.518C856.177,443.566 852.67,432.954 842.334,432.954C832.274,432.954 828.399,443.566 828.399,452.518C828.399,461.47 831.998,472.083 842.334,472.083ZM856.177,431.662C856.177,428.893 857.376,427.417 859.499,427.417C861.622,427.417 862.821,428.893 862.821,431.662L862.821,473.375C862.821,476.143 861.622,477.62 859.499,477.62C857.376,477.62 856.177,476.143 856.177,473.375L856.177,470.33L855.899,470.33C852.946,475.129 848.056,477.62 842.334,477.62C828.214,477.62 821.2,466.361 821.2,452.518C821.2,440.152 827.938,427.417 842.149,427.417C847.871,427.417 852.116,429.816 855.899,434.707L856.177,434.707L856.177,431.662Z" style="fill:white;fill-rule:nonzero;"/>
        <path d="M910.622,473.375C910.622,476.143 909.423,477.62 907.3,477.62C905.177,477.62 903.978,476.143 903.978,473.375L903.978,446.336C903.978,435.538 898.071,433.508 892.903,433.508C887.551,433.508 881.645,437.937 881.645,446.336L881.645,473.375C881.645,476.143 880.444,477.62 878.322,477.62C876.2,477.62 875,476.143 875,473.375L875,431.662C875,428.893 876.2,427.417 878.322,427.417C880.444,427.417 881.645,428.893 881.645,431.662L881.645,434.061L881.829,434.061C884.321,430.463 888.382,427.417 894.657,427.417C900.378,427.417 905.362,430.646 907.577,436C910.899,430.37 916.713,427.417 921.974,427.417C930.648,427.417 939.6,433.23 939.6,444.951L939.6,473.375C939.6,476.143 938.399,477.62 936.277,477.62C934.155,477.62 932.955,476.143 932.955,473.375L932.955,446.336C932.955,435.538 927.049,433.508 921.881,433.508C916.528,433.508 910.622,437.937 910.622,446.336L910.622,473.375Z" style="fill:white;fill-rule:nonzero;"/>
        <path d="M958.419,473.375C958.419,476.143 957.22,477.62 955.097,477.62C952.974,477.62 951.774,476.143 951.774,473.375L951.774,431.662C951.774,428.893 952.974,427.417 955.097,427.417C957.22,427.417 958.419,428.893 958.419,431.662L958.419,473.375ZM955.097,410.805C957.589,410.805 959.618,412.836 959.618,415.328C959.618,417.819 957.589,419.849 955.097,419.849C952.605,419.849 950.575,417.819 950.575,415.328C950.575,412.836 952.605,410.805 955.097,410.805Z" style="fill:white;fill-rule:nonzero;"/>
        <path d="M977.243,473.375C977.243,476.143 976.044,477.62 973.921,477.62C971.798,477.62 970.599,476.143 970.599,473.375L970.599,410.067C970.599,407.299 971.798,405.822 973.921,405.822C976.044,405.822 977.243,407.299 977.243,410.067L977.243,473.375Z" style="fill:white;fill-rule:nonzero;"/>
        <path d="M984.809,432.4C984.532,431.662 984.44,431.015 984.44,430.463C984.44,428.893 985.64,427.417 987.485,427.417C989.331,427.417 990.346,428.524 990.991,430.463L1002.9,466.084L1003.08,466.084L1014.99,430.463C1015.63,428.524 1016.65,427.417 1018.49,427.417C1020.34,427.417 1021.54,428.893 1021.54,430.463C1021.54,431.015 1021.45,431.662 1021.17,432.4L999.943,493.677C999.205,495.892 998.19,497 996.345,497C994.314,497 993.299,495.523 993.299,494.231C993.299,493.4 993.483,492.478 993.853,491.554L999.851,475.774L984.809,432.4Z" style="fill:white;fill-rule:nonzero;"/>
        <path d="M1097.02,420.679C1097.02,422.987 1095.45,424.187 1094.07,424.187C1091.3,424.187 1087.89,416.896 1077,416.896C1063.15,416.896 1055.68,431.754 1055.68,445.135C1055.68,458.701 1062.32,471.529 1078.2,471.529C1089.73,471.529 1093.24,465.069 1095.64,465.069C1097.3,465.069 1098.41,466.084 1098.41,468.391C1098.41,471.252 1089.92,477.62 1077.83,477.62C1057.71,477.62 1048.48,462.67 1048.48,445.135C1048.48,427.879 1057.71,410.805 1077.09,410.805C1088.16,410.805 1097.02,417.45 1097.02,420.679Z" style="fill:white;fill-rule:nonzero;"/>
        <path d="M1124.24,472.083C1134.58,472.083 1138.18,461.47 1138.18,452.518C1138.18,443.566 1134.58,432.954 1124.24,432.954C1113.91,432.954 1110.31,443.566 1110.31,452.518C1110.31,461.47 1113.91,472.083 1124.24,472.083ZM1124.24,477.62C1110.12,477.62 1103.11,466.361 1103.11,452.518C1103.11,440.152 1109.84,427.417 1124.24,427.417C1138.73,427.417 1145.37,440.152 1145.37,452.518C1145.37,466.361 1138.36,477.62 1124.24,477.62Z" style="fill:white;fill-rule:nonzero;"/>
        <path d="M1190.68,473.375C1190.68,476.143 1189.48,477.62 1187.36,477.62C1185.24,477.62 1184.04,476.143 1184.04,473.375L1184.04,446.336C1184.04,435.538 1178.13,433.508 1172.96,433.508C1167.61,433.508 1161.71,437.937 1161.71,446.336L1161.71,473.375C1161.71,476.143 1160.51,477.62 1158.38,477.62C1156.26,477.62 1155.06,476.143 1155.06,473.375L1155.06,431.662C1155.06,428.893 1156.26,427.417 1158.38,427.417C1160.51,427.417 1161.71,428.893 1161.71,431.662L1161.71,434.061L1161.89,434.061C1164.38,430.463 1168.44,427.417 1174.72,427.417C1180.44,427.417 1185.42,430.646 1187.64,436C1190.96,430.37 1196.77,427.417 1202.03,427.417C1210.71,427.417 1219.66,433.23 1219.66,444.951L1219.66,473.375C1219.66,476.143 1218.46,477.62 1216.34,477.62C1214.22,477.62 1213.02,476.143 1213.02,473.375L1213.02,446.336C1213.02,435.538 1207.11,433.508 1201.94,433.508C1196.59,433.508 1190.68,437.937 1190.68,446.336L1190.68,473.375Z" style="fill:white;fill-rule:nonzero;"/>
        <path d="M1252.32,472.083C1262.66,472.083 1266.26,461.47 1266.26,452.518C1266.26,443.566 1262.66,432.954 1252.32,432.954C1241.99,432.954 1238.39,443.566 1238.39,452.518C1238.39,461.47 1241.99,472.083 1252.32,472.083ZM1231.84,431.662C1231.84,428.893 1233.04,427.417 1235.16,427.417C1237.28,427.417 1238.48,428.893 1238.48,431.662L1238.48,434.707L1238.76,434.707C1241.71,429.908 1246.6,427.417 1252.32,427.417C1266.44,427.417 1273.46,438.675 1273.46,452.518C1273.46,464.884 1266.72,477.62 1252.51,477.62C1246.79,477.62 1242.54,475.22 1238.76,470.33L1238.48,470.33L1238.48,492.755C1238.48,495.523 1237.28,497 1235.16,497C1233.04,497 1231.84,495.523 1231.84,492.755L1231.84,431.662Z" style="fill:white;fill-rule:nonzero;"/>
        <path d="M1301.78,472.083C1312.12,472.083 1315.63,461.47 1315.63,452.518C1315.63,443.566 1312.12,432.954 1301.78,432.954C1291.73,432.954 1287.85,443.566 1287.85,452.518C1287.85,461.47 1291.45,472.083 1301.78,472.083ZM1315.63,431.662C1315.63,428.893 1316.83,427.417 1318.95,427.417C1321.07,427.417 1322.27,428.893 1322.27,431.662L1322.27,473.375C1322.27,476.143 1321.07,477.62 1318.95,477.62C1316.83,477.62 1315.63,476.143 1315.63,473.375L1315.63,470.33L1315.35,470.33C1312.4,475.129 1307.51,477.62 1301.78,477.62C1287.67,477.62 1280.65,466.361 1280.65,452.518C1280.65,440.152 1287.39,427.417 1301.6,427.417C1307.32,427.417 1311.57,429.816 1315.35,434.707L1315.63,434.707L1315.63,431.662Z" style="fill:white;fill-rule:nonzero;"/>
        <path d="M1341.09,473.375C1341.09,476.143 1339.9,477.62 1337.77,477.62C1335.65,477.62 1334.45,476.143 1334.45,473.375L1334.45,431.662C1334.45,428.893 1335.65,427.417 1337.77,427.417C1339.9,427.417 1341.09,428.893 1341.09,431.662L1341.09,434.061L1341.28,434.061C1343.77,430.463 1347.83,427.417 1354.11,427.417C1362.78,427.417 1371.73,433.23 1371.73,444.951L1371.73,473.375C1371.73,476.143 1370.53,477.62 1368.41,477.62C1366.29,477.62 1365.09,476.143 1365.09,473.375L1365.09,444.766C1365.09,437.937 1360.47,433.508 1353.09,433.508C1346.91,433.508 1341.09,437.937 1341.09,446.336L1341.09,473.375Z" style="fill:white;fill-rule:nonzero;"/>
        <path d="M1379.3,432.4C1379.02,431.662 1378.93,431.015 1378.93,430.463C1378.93,428.893 1380.13,427.417 1381.97,427.417C1383.82,427.417 1384.83,428.524 1385.48,430.463L1397.38,466.084L1397.57,466.084L1409.47,430.463C1410.12,428.524 1411.14,427.417 1412.98,427.417C1414.83,427.417 1416.03,428.893 1416.03,430.463C1416.03,431.015 1415.93,431.662 1415.66,432.4L1394.43,493.677C1393.69,495.892 1392.68,497 1390.83,497C1388.8,497 1387.79,495.523 1387.79,494.231C1387.79,493.4 1387.97,492.478 1388.34,491.554L1394.34,475.774L1379.3,432.4Z" style="fill:white;fill-rule:nonzero;"/>
        <path d="M1405,292.995L1406.07,292.995C1407.32,292.995 1408.34,292.578 1408.34,291.566C1408.34,290.673 1407.68,290.077 1406.25,290.077C1405.66,290.077 1405.24,290.136 1405,290.196L1405,292.995ZM1404.94,298.534L1402.68,298.534L1402.68,288.766C1403.57,288.588 1404.82,288.468 1406.43,288.468C1408.28,288.468 1409.11,288.766 1409.83,289.183C1410.36,289.6 1410.78,290.375 1410.78,291.328C1410.78,292.399 1409.95,293.233 1408.75,293.591L1408.75,293.71C1409.71,294.067 1410.24,294.782 1410.54,296.092C1410.84,297.581 1411.02,298.176 1411.26,298.534L1408.81,298.534C1408.52,298.176 1408.34,297.283 1408.04,296.151C1407.86,295.08 1407.27,294.603 1406.01,294.603L1404.94,294.603L1404.94,298.534ZM1398.93,293.412C1398.93,297.759 1402.14,301.214 1406.55,301.214C1410.84,301.214 1414,297.759 1414,293.471C1414,289.124 1410.84,285.61 1406.49,285.61C1402.14,285.61 1398.93,289.124 1398.93,293.412ZM1416.5,293.412C1416.5,298.951 1412.15,303.299 1406.49,303.299C1400.89,303.299 1396.43,298.951 1396.43,293.412C1396.43,287.993 1400.89,283.645 1406.49,283.645C1412.15,283.645 1416.5,287.993 1416.5,293.412Z" style="fill:white;fill-rule:nonzero;"/>
    </g>
</svg>
