<?xml version="1.0" encoding="UTF-8" standalone="no"?>
<!DOCTYPE svg PUBLIC "-//W3C//DTD SVG 1.1//EN" "http://www.w3.org/Graphics/SVG/1.1/DTD/svg11.dtd">
<svg width="100%" height="100%" viewBox="0 0 413 378" version="1.1" xmlns="http://www.w3.org/2000/svg" xmlns:xlink="http://www.w3.org/1999/xlink" xml:space="preserve" xmlns:serif="http://www.serif.com/" style="fill-rule:evenodd;clip-rule:evenodd;stroke-linejoin:round;stroke-miterlimit:2;">
    <g transform="matrix(1,0,0,1,-936.333,0)">
        <g id="Artboard1" transform="matrix(1,0,0,1.11965,936.333,0)">
            <rect x="0" y="0" width="412.084" height="337.136" style="fill:none;"/>
            <clipPath id="_clip1">
                <rect x="0" y="0" width="412.084" height="337.136"/>
            </clipPath>
            <g clip-path="url(#_clip1)">
                <g transform="matrix(1,0,0,0.893133,-5.68434e-14,0)">
                    <rect x="0" y="0" width="412.084" height="337.136" style="fill-opacity:0;"/>
                    <g transform="matrix(0.833403,0,0,0.833403,33.8024,30.7811)">
                        <path d="M203.444,228.322C190.414,224.502 188.558,160.993 201.161,130.364C213.764,99.734 266.033,40.724 279.063,44.545C292.093,48.365 291.943,122.659 279.34,153.288C266.737,183.918 216.474,232.143 203.444,228.322L203.444,228.322Z" style="fill:white;stroke:rgb(47,47,47);stroke-width:1.2px;"/>
                    </g>
                    <g transform="matrix(0.833403,0,0,0.833403,33.8024,30.7811)">
                        <path d="M203.444,228.322C190.414,224.502 188.558,160.993 201.161,130.364C213.764,99.734 266.033,40.724 279.063,44.545C292.093,48.365 291.943,122.659 279.34,153.288C266.737,183.918 216.474,232.143 203.444,228.322L203.444,228.322Z" style="fill:none;stroke:rgb(47,47,47);stroke-width:8px;stroke-miterlimit:10;"/>
                    </g>
                    <g transform="matrix(0.833403,0,0,0.833403,33.8024,30.7811)">
                        <path d="M199.559,229.415C187.577,235.807 141.793,191.745 129.353,161.044C116.913,130.343 112.938,51.603 124.919,45.211C136.901,38.818 188.803,91.989 201.243,122.69C213.683,153.39 211.541,223.023 199.559,229.415L199.559,229.415Z" style="fill:white;stroke:rgb(47,47,47);stroke-width:1.2px;"/>
                    </g>
                    <g transform="matrix(0.833403,0,0,0.833403,33.8024,30.7811)">
                        <path d="M199.559,229.415C187.577,235.807 141.793,191.745 129.353,161.044C116.913,130.343 112.938,51.603 124.919,45.211C136.901,38.818 188.803,91.989 201.243,122.69C213.683,153.39 211.541,223.023 199.559,229.415L199.559,229.415Z" style="fill:none;stroke:rgb(47,47,47);stroke-width:8px;stroke-miterlimit:10;"/>
                    </g>
                    <g transform="matrix(0.833403,0,0,0.833403,33.8024,30.7811)">
                        <path d="M212.345,231.895C205.568,220.129 247.405,173.152 277.295,159.836C307.185,146.521 384.907,140.234 391.685,151.999C398.463,163.765 347.851,217.113 317.961,230.429C288.071,243.745 219.123,243.66 212.345,231.895L212.345,231.895Z" style="fill:white;stroke:rgb(47,47,47);stroke-width:1.2px;"/>
                    </g>
                    <g transform="matrix(0.833403,0,0,0.833403,33.8024,30.7811)">
                        <path d="M212.345,231.895C205.568,220.129 247.405,173.152 277.295,159.836C307.185,146.521 384.907,140.234 391.685,151.999C398.463,163.765 347.851,217.113 317.961,230.429C288.071,243.745 219.123,243.66 212.345,231.895L212.345,231.895Z" style="fill:none;stroke:rgb(47,47,47);stroke-width:8px;stroke-miterlimit:10;"/>
                    </g>
                    <g transform="matrix(0.833403,0,0,0.833403,33.8024,30.7811)">
                        <path d="M214.501,228.433C203.451,220.541 222.064,160.412 243.758,135.879C265.452,111.346 333.614,73.342 344.664,81.234C355.714,89.126 331.754,158.698 310.06,183.231C288.366,207.764 225.552,236.325 214.501,228.433L214.501,228.433Z" style="fill:white;stroke:rgb(47,47,47);stroke-width:1.2px;"/>
                    </g>
                    <g transform="matrix(0.833403,0,0,0.833403,33.8024,30.7811)">
                        <path d="M214.501,228.433C203.451,220.541 222.064,160.412 243.758,135.879C265.452,111.346 333.614,73.342 344.664,81.234C355.714,89.126 331.754,158.698 310.06,183.231C288.366,207.764 225.552,236.325 214.501,228.433L214.501,228.433Z" style="fill:none;stroke:rgb(47,47,47);stroke-width:8px;stroke-miterlimit:10;"/>
                    </g>
                    <g transform="matrix(0.833403,0,0,0.833403,33.8024,30.7811)">
                        <path d="M208.759,229.438C205.572,242.647 139.802,246.36 107.277,234.582C74.752,222.803 10.422,171.976 13.609,158.767C16.796,145.558 93.874,143.548 126.399,155.326C158.924,167.105 211.946,216.229 208.759,229.438L208.759,229.438Z" style="fill:white;"/>
                    </g>
                    <g transform="matrix(0.833403,0,0,0.833403,33.8024,30.7811)">
                        <path d="M208.759,229.438C205.572,242.647 139.802,246.36 107.277,234.582C74.752,222.803 10.422,171.976 13.609,158.767C16.796,145.558 93.874,143.548 126.399,155.326C158.924,167.105 211.946,216.229 208.759,229.438L208.759,229.438Z" style="fill:none;stroke:rgb(47,47,47);stroke-width:8px;stroke-miterlimit:10;"/>
                    </g>
                    <g transform="matrix(0.833403,0,0,0.833403,36.2793,31.8405)">
                        <path d="M198.585,225.382C189.665,235.615 132.249,212.167 110.269,188.691C88.29,165.216 57.788,94.76 66.709,84.526C75.629,74.293 141.814,103.815 163.793,127.291C185.772,150.767 207.506,215.148 198.585,225.382Z" style="fill:white;stroke:rgb(47,47,47);stroke-width:1.2px;"/>
                    </g>
                    <g transform="matrix(0.833403,0,0,0.833403,36.2793,31.8405)">
                        <path d="M198.585,225.382C189.665,235.615 132.249,212.167 110.269,188.691C88.29,165.216 57.788,94.76 66.709,84.526C75.629,74.293 141.814,103.815 163.793,127.291C185.772,150.767 207.506,215.148 198.585,225.382Z" style="fill:none;stroke:rgb(47,47,47);stroke-width:8px;stroke-miterlimit:10;"/>
                    </g>
                    <g transform="matrix(0.833403,0,0,0.833403,33.8024,30.7811)">
                        <path d="M209.994,231.714C195.381,233.498 166.585,168.593 166.155,131.344C165.725,94.096 192.802,10.009 207.415,8.225C222.028,6.441 253.401,83.391 253.831,120.639C254.26,157.888 224.607,229.93 209.994,231.714L209.994,231.714Z" style="fill:white;stroke:rgb(47,47,47);stroke-width:1.2px;"/>
                    </g>
                    <g transform="matrix(0.833403,0,0,0.833403,33.8024,30.7811)">
                        <path d="M209.994,231.714C195.381,233.498 166.585,168.593 166.155,131.344C165.725,94.096 192.802,10.009 207.415,8.225C222.028,6.441 253.401,83.391 253.831,120.639C254.26,157.888 224.607,229.93 209.994,231.714L209.994,231.714Z" style="fill:none;stroke:rgb(47,47,47);stroke-width:8px;stroke-miterlimit:10;"/>
                    </g>
                    <g transform="matrix(1,0,0,1,4.02205,0)">
                        <g transform="matrix(1.10976,0,0,1,-33.7154,1.98688)">
                            <path d="M82.811,253.679C83.257,253.741 83.693,254.17 84.117,254.965C84.549,255.761 84.9,256.732 85.171,257.878C85.668,260.285 85.917,262.408 85.917,264.247C85.917,264.815 85.891,265.259 85.84,265.579L84.83,273.776C83.93,275.356 83.166,276.591 82.536,277.479C82.493,276.787 82.471,275.33 82.471,273.11C82.471,270.754 82.54,267.454 82.679,263.208L82.811,253.679L82.811,253.679ZM81.121,249.31C80.404,249.31 79.932,249.454 79.705,249.744C79.485,250.022 79.375,250.544 79.375,251.309L79.375,263.007C79.375,273.357 79.328,282.654 79.233,290.897L79.101,318.896L79.101,319.655C79.101,320.42 79.258,321.04 79.573,321.515C79.888,321.99 80.316,322.228 80.857,322.228C81.574,322.228 82.057,321.99 82.306,321.515C82.555,321.04 82.679,320.291 82.679,319.268L82.679,281.771C83.352,285.262 84.183,289.198 85.171,293.578C86.473,299.414 87.461,304.393 88.134,308.515C88.815,312.636 89.221,316.381 89.353,319.748L89.353,320.043C90.165,321.747 90.995,322.599 91.844,322.599C92.656,322.599 93.128,322.093 93.26,321.081C93.399,320.317 93.468,319.397 93.468,318.323L93.468,318.137L91.515,309.754C90.344,304.868 89.532,301.377 89.078,299.28C88.449,296.295 87.874,293.061 87.355,289.58C86.843,286.089 86.565,283.197 86.521,280.903L87.19,278.44L88.002,275.775C88.09,275.392 88.291,274.566 88.606,273.295C88.921,272.025 89.126,271.075 89.221,270.444C89.265,270.124 89.342,269.396 89.451,268.26C89.568,267.113 89.627,266.059 89.627,265.099C89.627,263.456 89.535,262 89.353,260.729C88.95,257.62 88.05,254.955 86.652,252.734C85.979,251.649 85.171,250.808 84.227,250.208C83.283,249.609 82.247,249.31 81.121,249.31L81.121,249.31Z" style="fill:white;stroke:white;stroke-width:0.33px;"/>
                        </g>
                        <g transform="matrix(1.10976,0,0,1,-33.7154,1.98688)">
                            <path d="M105.735,262.635C107.265,262.635 108.556,263.523 109.61,265.3C110.671,267.077 111.245,269.169 111.333,271.576L111.333,273.295C111.333,275.702 111.468,279.349 111.739,284.235C112.054,288.873 112.211,292.617 112.211,295.468C112.211,297.824 112.098,300.618 111.871,303.851C111.695,307.601 111.179,311.092 110.323,314.325C109.965,315.916 109.449,317.171 108.776,318.091C108.102,319.01 107.36,319.47 106.547,319.47C105.157,319.47 104.1,317.12 103.375,312.419C102.658,307.916 102.208,303.283 102.025,298.521C101.894,295.153 101.828,291.76 101.828,288.341C101.828,286.75 101.872,285.288 101.96,283.956L102.102,279.571L102.102,276.999C102.051,276.183 102.025,275.17 102.025,273.962C102.025,270.852 102.252,268.311 102.706,266.338C103.196,263.87 104.206,262.635 105.735,262.635L105.735,262.635ZM103.178,257.584C102.549,257.584 101.985,257.92 101.488,258.591C100.997,259.252 100.595,260.218 100.28,261.489C99.468,264.34 98.949,267.289 98.722,270.336C98.407,274.778 98.228,278.016 98.184,280.051L98.118,286.714L98.118,288.434C98.162,288.434 98.184,288.589 98.184,288.899L98.184,290.618C98.14,291.125 98.118,291.76 98.118,292.524C98.118,296.522 98.319,300.68 98.722,304.998C99.036,309.563 99.849,313.783 101.158,317.657C101.788,319.433 102.596,320.843 103.584,321.887C104.572,322.94 105.651,323.467 106.822,323.467C112.844,323.467 115.855,314.325 115.855,296.042L115.789,290.618C115.745,289.028 115.723,287.251 115.723,285.288L115.723,284.529C115.723,281.544 115.588,278.719 115.317,276.053C115.046,273.45 114.596,270.992 113.967,268.678C113.338,266.364 112.573,264.412 111.673,262.821C110.685,261.168 109.471,259.882 108.029,258.963C106.595,258.044 104.978,257.584 103.178,257.584L103.178,257.584Z" style="fill:white;stroke:white;stroke-width:0.33px;"/>
                        </g>
                        <g transform="matrix(1.10976,0,0,1,-33.7154,1.98688)">
                            <path d="M130.012,262.635C131.541,262.635 132.833,263.523 133.887,265.3C134.948,267.077 135.522,269.169 135.61,271.576L135.61,273.295C135.61,275.702 135.745,279.349 136.016,284.235C136.331,288.873 136.488,292.617 136.488,295.468C136.488,297.824 136.374,300.618 136.148,303.851C135.972,307.601 135.456,311.092 134.6,314.325C134.241,315.916 133.726,317.171 133.052,318.091C132.379,319.01 131.637,319.47 130.824,319.47C129.434,319.47 128.377,317.12 127.652,312.419C126.935,307.916 126.485,303.283 126.302,298.521C126.171,295.153 126.105,291.76 126.105,288.341C126.105,286.75 126.149,285.288 126.236,283.956L126.379,279.571L126.379,276.999C126.328,276.183 126.302,275.17 126.302,273.962C126.302,270.852 126.529,268.311 126.983,266.338C127.473,263.87 128.483,262.635 130.012,262.635L130.012,262.635ZM127.455,257.584C126.825,257.584 126.262,257.92 125.764,258.591C125.274,259.252 124.872,260.218 124.557,261.489C123.745,264.34 123.225,267.289 122.998,270.336C122.684,274.778 122.505,278.016 122.461,280.051L122.395,286.714L122.395,288.434C122.439,288.434 122.461,288.589 122.461,288.899L122.461,290.618C122.417,291.125 122.395,291.76 122.395,292.524C122.395,296.522 122.596,300.68 122.998,304.998C123.313,309.563 124.125,313.783 125.435,317.657C126.064,319.433 126.873,320.843 127.861,321.887C128.849,322.94 129.928,323.467 131.099,323.467C137.121,323.467 140.132,314.325 140.132,296.042L140.066,290.618C140.022,289.028 140,287.251 140,285.288L140,284.529C140,281.544 139.865,278.719 139.594,276.053C139.323,273.45 138.873,270.992 138.244,268.678C137.615,266.364 136.85,264.412 135.95,262.821C134.962,261.168 133.748,259.882 132.306,258.963C130.872,258.044 129.255,257.584 127.455,257.584L127.455,257.584Z" style="fill:white;stroke:white;stroke-width:0.33px;"/>
                        </g>
                        <g transform="matrix(1.10976,0,0,1,-33.7154,1.98688)">
                            <path d="M145.662,258.436C145.164,258.436 144.678,258.643 144.202,259.056C143.734,259.469 143.5,259.929 143.5,260.435C143.5,261.075 143.748,261.649 144.246,262.155C144.963,262.785 146.628,263.167 149.24,263.301C149.328,267.041 149.639,275.511 150.173,288.713C150.714,301.914 151.055,308.866 151.194,309.568L151.128,312.807C151.128,314.139 151.15,315.343 151.194,316.417L151.26,320.136L152.467,321.375C153.052,321.375 153.579,321.091 154.047,320.523C154.523,319.945 154.761,319.273 154.761,318.509C154.761,312.104 154.402,303.092 153.685,291.471C152.924,279.096 152.544,270.083 152.544,264.432L152.61,263.968L152.675,263.487L154.026,263.875C154.787,264.061 155.368,264.154 155.771,264.154C156.356,264.154 156.872,263.916 157.318,263.441C157.772,262.966 157.999,262.346 157.999,261.581C157.999,260.063 157.304,259.304 155.913,259.304L154.827,259.304C153.48,259.304 151.955,259.144 150.25,258.823C148.45,258.565 146.92,258.436 145.662,258.436L145.662,258.436Z" style="fill:white;stroke:white;stroke-width:0.33px;"/>
                        </g>
                        <g transform="matrix(1.10976,0,0,1,-33.7154,1.98688)">
                            <path d="M183.29,249.589C182.572,249.589 181.742,249.718 180.798,249.976C179.759,250.224 178.925,250.348 178.295,250.348C177.937,250.854 177.377,251.995 176.616,253.772L176.616,254.067C176.616,255.337 176.773,256.954 177.088,258.916C177.359,261.075 177.494,262.692 177.494,263.766L177.494,319.082C177.494,320.539 177.875,321.427 178.636,321.747C179.265,322.067 180.008,322.228 180.864,322.228L182.949,322.228L185.177,322.135C185.851,322 186.546,321.696 187.263,321.22C187.987,320.745 188.485,320.131 188.755,319.377L188.755,318.989C188.755,317.336 187.471,316.51 184.903,316.51L181.127,316.804L181.127,287.38C181.398,286.936 181.87,286.714 182.543,286.714L183.421,286.714L184.233,286.807C184.731,286.807 185.148,286.507 185.485,285.908C185.821,285.309 185.99,284.627 185.99,283.863C185.99,283.16 185.785,282.541 185.375,282.003C184.972,281.466 184.526,281.198 184.036,281.198C183.45,281.198 182.708,281.389 181.808,281.771L180.864,282.05L180.996,276.72C181.135,274.241 181.204,272.402 181.204,271.204L181.061,265.966L180.93,263.301C180.747,260.254 180.655,257.651 180.655,255.492C180.75,255.43 180.999,255.399 181.402,255.399C181.76,255.399 182.075,255.43 182.346,255.492L183.29,255.492C185.36,255.492 186.396,254.542 186.396,252.641C186.396,251.815 186.055,251.102 185.375,250.503C184.702,249.893 184.007,249.589 183.29,249.589L183.29,249.589Z" style="fill:white;stroke:white;stroke-width:0.33px;"/>
                        </g>
                        <g transform="matrix(1.10976,0,0,1,-33.7154,1.98688)">
                            <path d="M200.149,257.491C199.117,257.491 198.184,257.951 197.35,258.87C196.516,259.789 195.876,260.977 195.429,262.434C194.529,265.481 194.079,268.404 194.079,271.204C194.079,273.672 194.35,276.146 194.891,278.626C195.294,280.526 195.788,282.303 196.373,283.956C196.958,285.609 197.679,287.478 198.535,289.565L199.271,291.378C201.159,296.016 202.102,300.427 202.102,304.61C202.102,307.027 201.81,309.76 201.224,312.807C200.91,314.449 200.427,315.782 199.776,316.804C199.124,317.817 198.396,318.323 197.591,318.323C197.226,318.323 196.706,318.23 196.033,318.044C195.447,317.786 195.019,317.657 194.749,317.657L194.013,319.268C194.101,320.291 194.427,321.117 194.99,321.747C195.554,322.388 196.238,322.801 197.043,322.987L197.043,322.708C198.44,322.708 199.71,322.171 200.851,321.096C202,320.012 202.889,318.581 203.518,316.804C204.777,313.313 205.406,309.63 205.406,305.757C205.406,303.34 205.216,300.959 204.835,298.614C204.455,296.269 203.95,294.208 203.321,292.431L200.961,286.141L199.479,282.344C198.85,280.816 198.33,279.116 197.921,277.247C197.518,275.377 197.317,273.518 197.317,271.669C197.317,270.212 197.566,268.373 198.063,266.152C198.641,263.746 199.428,262.506 200.423,262.434C200.87,262.816 201.341,263.007 201.839,263.007C202.285,263.007 202.666,262.852 202.981,262.542C203.295,262.222 203.452,261.778 203.452,261.21C203.452,260.187 203.105,259.314 202.41,258.591C201.715,257.858 200.961,257.491 200.149,257.491L200.149,257.491Z" style="fill:white;stroke:white;stroke-width:0.33px;"/>
                        </g>
                        <g transform="matrix(1.10976,0,0,1,-33.7154,1.98688)">
                            <path d="M216.805,257.491C215.774,257.491 214.841,257.951 214.007,258.87C213.172,259.789 212.532,260.977 212.086,262.434C211.186,265.481 210.736,268.404 210.736,271.204C210.736,273.672 211.006,276.146 211.548,278.626C211.95,280.526 212.444,282.303 213.03,283.956C213.615,285.609 214.336,287.478 215.192,289.565L215.927,291.378C217.815,296.016 218.759,300.427 218.759,304.61C218.759,307.027 218.466,309.76 217.881,312.807C217.566,314.449 217.083,315.782 216.432,316.804C215.781,317.817 215.053,318.323 214.248,318.323C213.882,318.323 213.363,318.23 212.689,318.044C212.104,317.786 211.676,317.657 211.405,317.657L210.67,319.268C210.758,320.291 211.083,321.117 211.647,321.747C212.21,322.388 212.894,322.801 213.699,322.987L213.699,322.708C215.097,322.708 216.366,322.171 217.508,321.096C218.657,320.012 219.546,318.581 220.175,316.804C221.434,313.313 222.063,309.63 222.063,305.757C222.063,303.34 221.873,300.959 221.492,298.614C221.112,296.269 220.607,294.208 219.977,292.431L217.618,286.141L216.136,282.344C215.507,280.816 214.987,279.116 214.577,277.247C214.175,275.377 213.974,273.518 213.974,271.669C213.974,270.212 214.222,268.373 214.72,266.152C215.298,263.746 216.085,262.506 217.08,262.434C217.526,262.816 217.998,263.007 218.496,263.007C218.942,263.007 219.323,262.852 219.637,262.542C219.952,262.222 220.109,261.778 220.109,261.21C220.109,260.187 219.762,259.314 219.066,258.591C218.371,257.858 217.618,257.491 216.805,257.491L216.805,257.491Z" style="fill:url(#_Radial2);stroke:white;stroke-width:0.33px;"/>
                        </g>
                        <g transform="matrix(1.10976,0,0,1,-33.7154,1.98688)">
                            <path d="M232.386,258.823C230.499,258.823 229.555,261.075 229.555,265.579C229.555,266.405 229.62,267.738 229.752,269.577C229.891,271.353 229.961,272.686 229.961,273.574C229.961,277.324 229.869,281.957 229.686,287.473C229.555,293.63 229.489,298.263 229.489,301.372L229.62,307.477C229.752,310.204 229.818,312.234 229.818,313.566C229.818,314.32 229.84,314.986 229.884,315.565L229.884,319.934C229.935,320.761 230.195,321.458 230.663,322.026C231.139,322.605 231.666,322.894 232.244,322.894L237.984,322.894C238.789,322.894 239.473,322.656 240.037,322.181C240.6,321.706 240.882,321.024 240.882,320.136C240.882,318.607 240.026,317.843 238.313,317.843C237.238,317.843 236.316,317.874 235.547,317.936L233.33,318.044C233.235,318.044 233.188,316.262 233.188,312.698C233.188,310.798 233.257,307.911 233.396,304.037C233.44,301.506 233.462,298.65 233.462,295.468C233.462,292.297 233.418,289.885 233.33,288.232L235.01,288.232C235.463,288.367 236.093,288.434 236.897,288.434C237.527,288.434 238.043,288.196 238.445,287.721C238.855,287.246 239.06,286.657 239.06,285.955C239.06,284.178 237.98,283.29 235.822,283.29C235.28,283.29 234.83,283.321 234.472,283.382L233.396,283.475L233.188,281.957C233.188,280.428 233.257,278.145 233.396,275.108C233.44,273.073 233.462,270.785 233.462,268.244C233.462,266.467 233.44,265.104 233.396,264.154C234.925,264.474 236.634,265.109 238.522,266.059C239.063,265.739 239.524,265.311 239.905,264.773C240.285,264.236 240.476,263.647 240.476,263.007C240.476,261.871 239.495,260.889 237.534,260.063C235.58,259.237 233.864,258.823 232.386,258.823L232.386,258.823Z" style="fill:white;stroke:white;stroke-width:0.33px;"/>
                        </g>
                        <g transform="matrix(1.10976,0,0,1,-33.7154,1.98688)">
                            <path d="M251.802,258.343C250.184,260.058 249.376,262.408 249.376,265.393C249.376,267.294 249.31,270.243 249.178,274.241C249.039,278.114 248.97,281.069 248.97,283.104C248.97,289.126 248.992,294.58 249.036,299.466L249.112,315.751C249.112,319.625 249.83,321.561 251.264,321.561C251.849,321.561 252.343,321.277 252.745,320.709C253.155,320.131 253.36,319.428 253.36,318.602C253.36,318.292 253.291,317.977 253.152,317.657C253.02,317.336 252.932,317.114 252.888,316.99L252.614,316.324L252.614,268.446C254.37,274.282 256.785,283.295 259.858,295.484C262.938,307.663 264.479,314.8 264.479,316.897L264.479,317.378L264.885,319.175C265.024,320.198 265.225,320.916 265.488,321.329C265.759,321.732 266.165,321.933 266.707,321.933C267.021,321.933 267.83,321.68 269.132,321.174C269.762,319.717 270.299,313.277 270.746,301.852C271.2,290.427 271.47,279.829 271.558,270.057L271.558,262.914C271.558,261.84 271.39,260.957 271.053,260.264C270.717,259.562 270.234,259.211 269.604,259.211C268.529,259.211 267.991,260.161 267.991,262.062C267.991,262.506 268.013,262.919 268.057,263.301L268.057,264.541C268.057,283.135 267.607,299.254 266.707,312.9C266.165,310.679 265.379,306.996 264.347,301.852L263.677,298.428C262.009,290.112 260.67,283.703 259.66,279.199C258.65,274.695 257.516,270.408 256.258,266.338C254.685,261.266 253.378,258.73 252.339,258.73C252.252,258.73 252.072,258.792 251.802,258.916L251.802,258.343L251.802,258.343Z" style="fill:white;stroke:white;stroke-width:0.33px;"/>
                        </g>
                        <g transform="matrix(1.10976,0,0,1,-33.7154,1.98688)">
                            <path d="M278.78,258.436C278.282,258.436 277.796,258.643 277.32,259.056C276.852,259.469 276.618,259.929 276.618,260.435C276.618,261.075 276.866,261.649 277.364,262.155C278.081,262.785 279.746,263.167 282.358,263.301C282.446,267.041 282.757,275.511 283.291,288.713C283.832,301.914 284.173,308.866 284.312,309.568L284.246,312.807C284.246,314.139 284.268,315.343 284.312,316.417L284.378,320.136L285.585,321.375C286.17,321.375 286.697,321.091 287.165,320.523C287.641,319.945 287.879,319.273 287.879,318.509C287.879,312.104 287.52,303.092 286.803,291.471C286.042,279.096 285.662,270.083 285.662,264.432L285.728,263.968L285.793,263.487L287.143,263.875C287.904,264.061 288.486,264.154 288.889,264.154C289.474,264.154 289.99,263.916 290.436,263.441C290.89,262.966 291.117,262.346 291.117,261.581C291.117,260.063 290.422,259.304 289.031,259.304L287.945,259.304C286.598,259.304 285.073,259.144 283.368,258.823C281.568,258.565 280.038,258.436 278.78,258.436L278.78,258.436Z" style="fill:white;stroke:white;stroke-width:0.33px;"/>
                        </g>
                        <g transform="matrix(1.10976,0,0,1,-33.7154,1.98688)">
                            <path d="M303.727,258.25C302.336,258.25 300.741,258.503 298.941,259.009C297.909,259.268 297.053,259.681 296.373,260.249C295.7,260.817 295.363,261.483 295.363,262.248C295.363,263.777 295.904,264.541 296.987,264.541C297.302,264.541 297.818,264.412 298.535,264.154C298.674,265.548 298.743,267.294 298.743,269.391L298.678,274.241C298.626,275.707 298.601,277.329 298.601,279.106C298.601,284.054 298.806,291.383 299.215,301.093C299.391,305.029 299.548,307.756 299.687,309.274C299.775,311.557 299.819,313.241 299.819,314.325C299.819,315.152 299.75,315.725 299.611,316.045C299.479,316.355 299.234,316.51 298.875,316.51L298.206,316.417L297.459,316.417C296.062,316.417 295.363,317.182 295.363,318.71C295.363,320.611 297.32,321.561 301.235,321.561C301.637,321.561 302.559,321.499 304.001,321.375C304.674,321.375 305.135,321.36 305.384,321.329C305.633,321.288 305.779,321.267 305.823,321.267L307.502,319.655L307.502,319.082C307.502,316.861 306.558,315.751 304.67,315.751C304.041,315.751 303.591,315.782 303.32,315.844L303.32,312.234C303.32,309.186 303.211,306.201 302.991,303.278C302.72,298.836 302.541,295.473 302.453,293.191C301.912,280.816 301.641,271.55 301.641,265.393C301.641,264.629 301.74,264.107 301.937,263.828C302.142,263.539 302.472,263.394 302.925,263.394L303.463,263.394C303.639,263.456 303.862,263.487 304.133,263.487C304.586,263.487 304.956,263.234 305.241,262.728C305.534,262.222 305.68,261.618 305.68,260.915C305.68,260.223 305.49,259.608 305.109,259.071C304.729,258.524 304.268,258.25 303.727,258.25L303.727,258.25Z" style="fill:white;stroke:white;stroke-width:0.33px;"/>
                        </g>
                        <g transform="matrix(1.10976,0,0,1,-33.7154,1.98688)">
                            <path d="M319.977,268.91L320.657,278.812C321.374,287.695 321.733,294.993 321.733,300.706C321.733,302.1 321.802,303.278 321.941,304.238C318.656,303.856 316.677,303.345 316.004,302.704C316.721,295.091 318.045,283.827 319.977,268.91L319.977,268.91ZM318.166,257.878C317.8,258.57 317.536,259.614 317.375,261.008C317.222,262.403 317.079,264.278 316.947,266.633C316.904,267.769 316.86,268.642 316.816,269.251C316.772,269.85 316.75,270.279 316.75,270.537C315.221,286.404 312.971,302.493 310,318.803L309.934,319.175L309.802,319.655C309.802,320.358 310.025,320.947 310.472,321.422C310.925,321.897 311.419,322.135 311.953,322.135C312.539,322.135 312.989,321.845 313.303,321.267C313.889,320.255 314.317,318.194 314.588,315.085C315.085,310.643 315.466,307.694 315.729,306.237L322.413,307.663L322.677,309.661C323.13,314.227 323.357,317.466 323.357,319.377C323.357,320.575 323.602,321.396 324.093,321.84C324.59,322.284 325.355,322.506 326.387,322.506C327.104,322.124 327.462,321.236 327.462,319.841L327.462,319.748C327.462,318.86 327.261,316.892 326.859,313.845C326.412,310.488 326.189,308.587 326.189,308.143C326.189,307.699 326.076,306.743 325.849,305.276C325.622,303.696 325.509,302.715 325.509,302.332C325.509,298.397 325.059,291.543 324.159,281.771C323.215,272.247 322.743,265.073 322.743,260.249C322.743,259.485 322.516,258.901 322.062,258.498C321.616,258.085 321.078,257.878 320.449,257.878L318.166,257.878Z" style="fill:white;stroke:white;stroke-width:0.33px;"/>
                        </g>
                        <g transform="matrix(1.10976,0,0,1,-33.7154,1.98688)">
                            <path d="M336.233,258.637C334.659,258.637 333.873,261.649 333.873,267.671C333.873,269.644 334.008,272.629 334.279,276.627L334.279,277.293C334.279,281.993 334.144,289.069 333.873,298.521C333.558,307.404 333.401,314.511 333.401,319.841C333.401,320.606 333.591,321.319 333.972,321.98C334.359,322.651 334.82,322.987 335.355,322.987C336.167,322.987 336.931,322.672 337.648,322.042C340.034,322.042 342.035,322.419 343.652,323.173C344.238,323.049 344.732,322.765 345.134,322.321C345.536,321.876 345.738,321.339 345.738,320.709C345.738,318.798 344.527,317.843 342.105,317.843C341.475,317.843 340.956,317.874 340.546,317.936C340.188,317.936 339.906,317.956 339.701,317.998C339.503,318.029 339.361,318.044 339.273,318.044C337.788,318.044 337.045,315.854 337.045,311.474C337.045,308.613 337.089,306.072 337.177,303.851L337.308,296.336L337.308,295.189C337.308,293.475 337.422,292.142 337.648,291.192C337.648,286.936 337.627,283.129 337.583,279.772C337.539,276.343 337.517,272.5 337.517,268.244C337.517,267.418 337.583,266.214 337.714,264.634C337.853,262.981 337.923,261.773 337.923,261.008C337.923,260.378 337.755,259.825 337.418,259.35C337.081,258.875 336.686,258.638 336.233,258.638L336.233,258.637Z" style="fill:white;stroke:white;stroke-width:0.33px;"/>
                        </g>
                        <g transform="matrix(1.10976,0,0,1,-33.7154,1.98688)">
                            <path d="M82.811,253.679C83.257,253.741 83.693,254.17 84.117,254.965C84.549,255.761 84.9,256.732 85.171,257.878C85.668,260.285 85.917,262.408 85.917,264.247C85.917,264.815 85.891,265.259 85.84,265.579L84.83,273.776C83.93,275.356 83.166,276.591 82.536,277.479C82.493,276.787 82.471,275.33 82.471,273.11C82.471,270.754 82.54,267.454 82.679,263.208L82.811,253.679L82.811,253.679ZM81.121,249.31C80.404,249.31 79.932,249.454 79.705,249.744C79.485,250.022 79.375,250.544 79.375,251.309L79.375,263.007C79.375,273.357 79.328,282.654 79.233,290.897L79.101,318.896L79.101,319.655C79.101,320.42 79.258,321.04 79.573,321.515C79.888,321.99 80.316,322.228 80.857,322.228C81.574,322.228 82.057,321.99 82.306,321.515C82.555,321.04 82.679,320.291 82.679,319.268L82.679,281.771C83.352,285.262 84.183,289.198 85.171,293.578C86.473,299.414 87.461,304.393 88.134,308.515C88.815,312.636 89.221,316.381 89.353,319.748L89.353,320.043C90.165,321.747 90.995,322.599 91.844,322.599C92.656,322.599 93.128,322.093 93.26,321.081C93.399,320.317 93.468,319.397 93.468,318.323L93.468,318.137L91.515,309.754C90.344,304.868 89.532,301.377 89.078,299.28C88.449,296.295 87.874,293.061 87.355,289.58C86.843,286.089 86.565,283.197 86.521,280.903L87.19,278.44L88.002,275.775C88.09,275.392 88.291,274.566 88.606,273.295C88.921,272.025 89.126,271.075 89.221,270.444C89.265,270.124 89.342,269.396 89.451,268.26C89.568,267.113 89.627,266.059 89.627,265.099C89.627,263.456 89.535,262 89.353,260.729C88.95,257.62 88.05,254.955 86.652,252.734C85.979,251.649 85.171,250.808 84.227,250.208C83.283,249.609 82.247,249.31 81.121,249.31L81.121,249.31Z" style="fill:none;stroke:white;stroke-width:0.35px;stroke-miterlimit:10;"/>
                        </g>
                        <g transform="matrix(1.10976,0,0,1,-33.7154,1.98688)">
                            <path d="M105.735,262.635C107.265,262.635 108.556,263.523 109.61,265.3C110.671,267.077 111.245,269.169 111.333,271.576L111.333,273.295C111.333,275.702 111.468,279.349 111.739,284.235C112.054,288.873 112.211,292.617 112.211,295.468C112.211,297.824 112.098,300.618 111.871,303.851C111.695,307.601 111.179,311.092 110.323,314.325C109.965,315.916 109.449,317.171 108.776,318.091C108.102,319.01 107.36,319.47 106.547,319.47C105.157,319.47 104.1,317.12 103.375,312.419C102.658,307.916 102.208,303.283 102.025,298.521C101.894,295.153 101.828,291.76 101.828,288.341C101.828,286.75 101.872,285.288 101.96,283.956L102.102,279.571L102.102,276.999C102.051,276.183 102.025,275.17 102.025,273.962C102.025,270.852 102.252,268.311 102.706,266.338C103.196,263.87 104.206,262.635 105.735,262.635L105.735,262.635ZM103.178,257.584C102.549,257.584 101.985,257.92 101.488,258.591C100.997,259.252 100.595,260.218 100.28,261.489C99.468,264.34 98.949,267.289 98.722,270.336C98.407,274.778 98.228,278.016 98.184,280.051L98.118,286.714L98.118,288.434C98.162,288.434 98.184,288.589 98.184,288.899L98.184,290.618C98.14,291.125 98.118,291.76 98.118,292.524C98.118,296.522 98.319,300.68 98.722,304.998C99.036,309.563 99.849,313.783 101.158,317.657C101.788,319.433 102.596,320.843 103.584,321.887C104.572,322.94 105.651,323.467 106.822,323.467C112.844,323.467 115.855,314.325 115.855,296.042L115.789,290.618C115.745,289.028 115.723,287.251 115.723,285.288L115.723,284.529C115.723,281.544 115.588,278.719 115.317,276.053C115.046,273.45 114.596,270.992 113.967,268.678C113.338,266.364 112.573,264.412 111.673,262.821C110.685,261.168 109.471,259.882 108.029,258.963C106.595,258.044 104.978,257.584 103.178,257.584L103.178,257.584Z" style="fill:none;stroke:white;stroke-width:0.35px;stroke-miterlimit:10;"/>
                        </g>
                        <g transform="matrix(1.10976,0,0,1,-33.7154,1.98688)">
                            <path d="M130.012,262.635C131.541,262.635 132.833,263.523 133.887,265.3C134.948,267.077 135.522,269.169 135.61,271.576L135.61,273.295C135.61,275.702 135.745,279.349 136.016,284.235C136.331,288.873 136.488,292.617 136.488,295.468C136.488,297.824 136.374,300.618 136.148,303.851C135.972,307.601 135.456,311.092 134.6,314.325C134.241,315.916 133.726,317.171 133.052,318.091C132.379,319.01 131.637,319.47 130.824,319.47C129.434,319.47 128.377,317.12 127.652,312.419C126.935,307.916 126.485,303.283 126.302,298.521C126.171,295.153 126.105,291.76 126.105,288.341C126.105,286.75 126.149,285.288 126.236,283.956L126.379,279.571L126.379,276.999C126.328,276.183 126.302,275.17 126.302,273.962C126.302,270.852 126.529,268.311 126.983,266.338C127.473,263.87 128.483,262.635 130.012,262.635L130.012,262.635ZM127.455,257.584C126.825,257.584 126.262,257.92 125.764,258.591C125.274,259.252 124.872,260.218 124.557,261.489C123.745,264.34 123.225,267.289 122.998,270.336C122.684,274.778 122.505,278.016 122.461,280.051L122.395,286.714L122.395,288.434C122.439,288.434 122.461,288.589 122.461,288.899L122.461,290.618C122.417,291.125 122.395,291.76 122.395,292.524C122.395,296.522 122.596,300.68 122.998,304.998C123.313,309.563 124.125,313.783 125.435,317.657C126.064,319.433 126.873,320.843 127.861,321.887C128.849,322.94 129.928,323.467 131.099,323.467C137.121,323.467 140.132,314.325 140.132,296.042L140.066,290.618C140.022,289.028 140,287.251 140,285.288L140,284.529C140,281.544 139.865,278.719 139.594,276.053C139.323,273.45 138.873,270.992 138.244,268.678C137.615,266.364 136.85,264.412 135.95,262.821C134.962,261.168 133.748,259.882 132.306,258.963C130.872,258.044 129.255,257.584 127.455,257.584L127.455,257.584Z" style="fill:none;stroke:white;stroke-width:0.35px;stroke-miterlimit:10;"/>
                        </g>
                        <g transform="matrix(1.10976,0,0,1,-33.7154,1.98688)">
                            <path d="M145.662,258.436C145.164,258.436 144.678,258.643 144.202,259.056C143.734,259.469 143.5,259.929 143.5,260.435C143.5,261.075 143.748,261.649 144.246,262.155C144.963,262.785 146.628,263.167 149.24,263.301C149.328,267.041 149.639,275.511 150.173,288.713C150.714,301.914 151.055,308.866 151.194,309.568L151.128,312.807C151.128,314.139 151.15,315.343 151.194,316.417L151.26,320.136L152.467,321.375C153.052,321.375 153.579,321.091 154.047,320.523C154.523,319.945 154.761,319.273 154.761,318.509C154.761,312.104 154.402,303.092 153.685,291.471C152.924,279.096 152.544,270.083 152.544,264.432L152.61,263.968L152.675,263.487L154.026,263.875C154.787,264.061 155.368,264.154 155.771,264.154C156.356,264.154 156.872,263.916 157.318,263.441C157.772,262.966 157.999,262.346 157.999,261.581C157.999,260.063 157.304,259.304 155.913,259.304L154.827,259.304C153.48,259.304 151.955,259.144 150.25,258.823C148.45,258.565 146.92,258.436 145.662,258.436L145.662,258.436Z" style="fill:none;stroke:white;stroke-width:0.35px;stroke-miterlimit:10;"/>
                        </g>
                        <g transform="matrix(1.10976,0,0,1,-33.7154,1.98688)">
                            <path d="M183.29,249.589C182.572,249.589 181.742,249.718 180.798,249.976C179.759,250.224 178.925,250.348 178.295,250.348C177.937,250.854 177.377,251.995 176.616,253.772L176.616,254.067C176.616,255.337 176.773,256.954 177.088,258.916C177.359,261.075 177.494,262.692 177.494,263.766L177.494,319.082C177.494,320.539 177.875,321.427 178.636,321.747C179.265,322.067 180.008,322.228 180.864,322.228L182.949,322.228L185.177,322.135C185.851,322 186.546,321.696 187.263,321.22C187.987,320.745 188.485,320.131 188.755,319.377L188.755,318.989C188.755,317.336 187.471,316.51 184.903,316.51L181.127,316.804L181.127,287.38C181.398,286.936 181.87,286.714 182.543,286.714L183.421,286.714L184.233,286.807C184.731,286.807 185.148,286.507 185.485,285.908C185.821,285.309 185.99,284.627 185.99,283.863C185.99,283.16 185.785,282.541 185.375,282.003C184.972,281.466 184.526,281.198 184.036,281.198C183.45,281.198 182.708,281.389 181.808,281.771L180.864,282.05L180.996,276.72C181.135,274.241 181.204,272.402 181.204,271.204L181.061,265.966L180.93,263.301C180.747,260.254 180.655,257.651 180.655,255.492C180.75,255.43 180.999,255.399 181.402,255.399C181.76,255.399 182.075,255.43 182.346,255.492L183.29,255.492C185.36,255.492 186.396,254.542 186.396,252.641C186.396,251.815 186.055,251.102 185.375,250.503C184.702,249.893 184.007,249.589 183.29,249.589L183.29,249.589Z" style="fill:none;stroke:white;stroke-width:0.35px;stroke-miterlimit:10;"/>
                        </g>
                        <g transform="matrix(1.10976,0,0,1,-33.7154,1.98688)">
                            <path d="M200.149,257.491C199.117,257.491 198.184,257.951 197.35,258.87C196.516,259.789 195.876,260.977 195.429,262.434C194.529,265.481 194.079,268.404 194.079,271.204C194.079,273.672 194.35,276.146 194.891,278.626C195.294,280.526 195.788,282.303 196.373,283.956C196.958,285.609 197.679,287.478 198.535,289.565L199.271,291.378C201.159,296.016 202.102,300.427 202.102,304.61C202.102,307.027 201.81,309.76 201.224,312.807C200.91,314.449 200.427,315.782 199.776,316.804C199.124,317.817 198.396,318.323 197.591,318.323C197.226,318.323 196.706,318.23 196.033,318.044C195.447,317.786 195.019,317.657 194.749,317.657L194.013,319.268C194.101,320.291 194.427,321.117 194.99,321.747C195.554,322.388 196.238,322.801 197.043,322.987L197.043,322.708C198.44,322.708 199.71,322.171 200.851,321.096C202,320.012 202.889,318.581 203.518,316.804C204.777,313.313 205.406,309.63 205.406,305.757C205.406,303.34 205.216,300.959 204.835,298.614C204.455,296.269 203.95,294.208 203.321,292.431L200.961,286.141L199.479,282.344C198.85,280.816 198.33,279.116 197.921,277.247C197.518,275.377 197.317,273.518 197.317,271.669C197.317,270.212 197.566,268.373 198.063,266.152C198.641,263.746 199.428,262.506 200.423,262.434C200.87,262.816 201.341,263.007 201.839,263.007C202.285,263.007 202.666,262.852 202.981,262.542C203.295,262.222 203.452,261.778 203.452,261.21C203.452,260.187 203.105,259.314 202.41,258.591C201.715,257.858 200.961,257.491 200.149,257.491L200.149,257.491Z" style="fill:none;stroke:white;stroke-width:0.35px;stroke-miterlimit:10;"/>
                        </g>
                        <g transform="matrix(1.10976,0,0,1,-33.7154,1.98688)">
                            <path d="M216.805,257.491C215.774,257.491 214.841,257.951 214.007,258.87C213.172,259.789 212.532,260.977 212.086,262.434C211.186,265.481 210.736,268.404 210.736,271.204C210.736,273.672 211.006,276.146 211.548,278.626C211.95,280.526 212.444,282.303 213.03,283.956C213.615,285.609 214.336,287.478 215.192,289.565L215.927,291.378C217.815,296.016 218.759,300.427 218.759,304.61C218.759,307.027 218.466,309.76 217.881,312.807C217.566,314.449 217.083,315.782 216.432,316.804C215.781,317.817 215.053,318.323 214.248,318.323C213.882,318.323 213.363,318.23 212.689,318.044C212.104,317.786 211.676,317.657 211.405,317.657L210.67,319.268C210.758,320.291 211.083,321.117 211.647,321.747C212.21,322.388 212.894,322.801 213.699,322.987L213.699,322.708C215.097,322.708 216.366,322.171 217.508,321.096C218.657,320.012 219.546,318.581 220.175,316.804C221.434,313.313 222.063,309.63 222.063,305.757C222.063,303.34 221.873,300.959 221.492,298.614C221.112,296.269 220.607,294.208 219.977,292.431L217.618,286.141L216.136,282.344C215.507,280.816 214.987,279.116 214.577,277.247C214.175,275.377 213.974,273.518 213.974,271.669C213.974,270.212 214.222,268.373 214.72,266.152C215.298,263.746 216.085,262.506 217.08,262.434C217.526,262.816 217.998,263.007 218.496,263.007C218.942,263.007 219.323,262.852 219.637,262.542C219.952,262.222 220.109,261.778 220.109,261.21C220.109,260.187 219.762,259.314 219.066,258.591C218.371,257.858 217.618,257.491 216.805,257.491L216.805,257.491Z" style="fill:white;stroke:white;stroke-width:0.35px;stroke-miterlimit:10;"/>
                        </g>
                        <g transform="matrix(1.10976,0,0,1,-33.7154,1.98688)">
                            <path d="M232.386,258.823C230.499,258.823 229.555,261.075 229.555,265.579C229.555,266.405 229.62,267.738 229.752,269.577C229.891,271.353 229.961,272.686 229.961,273.574C229.961,277.324 229.869,281.957 229.686,287.473C229.555,293.63 229.489,298.263 229.489,301.372L229.62,307.477C229.752,310.204 229.818,312.234 229.818,313.566C229.818,314.32 229.84,314.986 229.884,315.565L229.884,319.934C229.935,320.761 230.195,321.458 230.663,322.026C231.139,322.605 231.666,322.894 232.244,322.894L237.984,322.894C238.789,322.894 239.473,322.656 240.037,322.181C240.6,321.706 240.882,321.024 240.882,320.136C240.882,318.607 240.026,317.843 238.313,317.843C237.238,317.843 236.316,317.874 235.547,317.936L233.33,318.044C233.235,318.044 233.188,316.262 233.188,312.698C233.188,310.798 233.257,307.911 233.396,304.037C233.44,301.506 233.462,298.65 233.462,295.468C233.462,292.297 233.418,289.885 233.33,288.232L235.01,288.232C235.463,288.367 236.093,288.434 236.897,288.434C237.527,288.434 238.043,288.196 238.445,287.721C238.855,287.246 239.06,286.657 239.06,285.955C239.06,284.178 237.98,283.29 235.822,283.29C235.28,283.29 234.83,283.321 234.472,283.382L233.396,283.475L233.188,281.957C233.188,280.428 233.257,278.145 233.396,275.108C233.44,273.073 233.462,270.785 233.462,268.244C233.462,266.467 233.44,265.104 233.396,264.154C234.925,264.474 236.634,265.109 238.522,266.059C239.063,265.739 239.524,265.311 239.905,264.773C240.285,264.236 240.476,263.647 240.476,263.007C240.476,261.871 239.495,260.889 237.534,260.063C235.58,259.237 233.864,258.823 232.386,258.823L232.386,258.823Z" style="fill:none;stroke:white;stroke-width:0.35px;stroke-miterlimit:10;"/>
                        </g>
                        <g transform="matrix(1.10976,0,0,1,-33.7154,1.98688)">
                            <path d="M251.802,258.343C250.184,260.058 249.376,262.408 249.376,265.393C249.376,267.294 249.31,270.243 249.178,274.241C249.039,278.114 248.97,281.069 248.97,283.104C248.97,289.126 248.992,294.58 249.036,299.466L249.112,315.751C249.112,319.625 249.83,321.561 251.264,321.561C251.849,321.561 252.343,321.277 252.745,320.709C253.155,320.131 253.36,319.428 253.36,318.602C253.36,318.292 253.291,317.977 253.152,317.657C253.02,317.336 252.932,317.114 252.888,316.99L252.614,316.324L252.614,268.446C254.37,274.282 256.785,283.295 259.858,295.484C262.938,307.663 264.479,314.8 264.479,316.897L264.479,317.378L264.885,319.175C265.024,320.198 265.225,320.916 265.488,321.329C265.759,321.732 266.165,321.933 266.707,321.933C267.021,321.933 267.83,321.68 269.132,321.174C269.762,319.717 270.299,313.277 270.746,301.852C271.2,290.427 271.47,279.829 271.558,270.057L271.558,262.914C271.558,261.84 271.39,260.957 271.053,260.264C270.717,259.562 270.234,259.211 269.604,259.211C268.529,259.211 267.991,260.161 267.991,262.062C267.991,262.506 268.013,262.919 268.057,263.301L268.057,264.541C268.057,283.135 267.607,299.254 266.707,312.9C266.165,310.679 265.379,306.996 264.347,301.852L263.677,298.428C262.009,290.112 260.67,283.703 259.66,279.199C258.65,274.695 257.516,270.408 256.258,266.338C254.685,261.266 253.378,258.73 252.339,258.73C252.252,258.73 252.072,258.792 251.802,258.916L251.802,258.343L251.802,258.343Z" style="fill:none;stroke:white;stroke-width:0.35px;stroke-miterlimit:10;"/>
                        </g>
                        <g transform="matrix(1.10976,0,0,1,-33.7154,1.98688)">
                            <path d="M278.78,258.436C278.282,258.436 277.796,258.643 277.32,259.056C276.852,259.469 276.618,259.929 276.618,260.435C276.618,261.075 276.866,261.649 277.364,262.155C278.081,262.785 279.746,263.167 282.358,263.301C282.446,267.041 282.757,275.511 283.291,288.713C283.832,301.914 284.173,308.866 284.312,309.568L284.246,312.807C284.246,314.139 284.268,315.343 284.312,316.417L284.378,320.136L285.585,321.375C286.17,321.375 286.697,321.091 287.165,320.523C287.641,319.945 287.879,319.273 287.879,318.509C287.879,312.104 287.52,303.092 286.803,291.471C286.042,279.096 285.662,270.083 285.662,264.432L285.728,263.968L285.793,263.487L287.143,263.875C287.904,264.061 288.486,264.154 288.889,264.154C289.474,264.154 289.99,263.916 290.436,263.441C290.89,262.966 291.117,262.346 291.117,261.581C291.117,260.063 290.422,259.304 289.031,259.304L287.945,259.304C286.598,259.304 285.073,259.144 283.368,258.823C281.568,258.565 280.038,258.436 278.78,258.436L278.78,258.436Z" style="fill:none;stroke:white;stroke-width:0.35px;stroke-miterlimit:10;"/>
                        </g>
                        <g transform="matrix(1.10976,0,0,1,-33.7154,1.98688)">
                            <path d="M303.727,258.25C302.336,258.25 300.741,258.503 298.941,259.009C297.909,259.268 297.053,259.681 296.373,260.249C295.7,260.817 295.363,261.483 295.363,262.248C295.363,263.777 295.904,264.541 296.987,264.541C297.302,264.541 297.818,264.412 298.535,264.154C298.674,265.548 298.743,267.294 298.743,269.391L298.678,274.241C298.626,275.707 298.601,277.329 298.601,279.106C298.601,284.054 298.806,291.383 299.215,301.093C299.391,305.029 299.548,307.756 299.687,309.274C299.775,311.557 299.819,313.241 299.819,314.325C299.819,315.152 299.75,315.725 299.611,316.045C299.479,316.355 299.234,316.51 298.875,316.51L298.206,316.417L297.459,316.417C296.062,316.417 295.363,317.182 295.363,318.71C295.363,320.611 297.32,321.561 301.235,321.561C301.637,321.561 302.559,321.499 304.001,321.375C304.674,321.375 305.135,321.36 305.384,321.329C305.633,321.288 305.779,321.267 305.823,321.267L307.502,319.655L307.502,319.082C307.502,316.861 306.558,315.751 304.67,315.751C304.041,315.751 303.591,315.782 303.32,315.844L303.32,312.234C303.32,309.186 303.211,306.201 302.991,303.278C302.72,298.836 302.541,295.473 302.453,293.191C301.912,280.816 301.641,271.55 301.641,265.393C301.641,264.629 301.74,264.107 301.937,263.828C302.142,263.539 302.472,263.394 302.925,263.394L303.463,263.394C303.639,263.456 303.862,263.487 304.133,263.487C304.586,263.487 304.956,263.234 305.241,262.728C305.534,262.222 305.68,261.618 305.68,260.915C305.68,260.223 305.49,259.608 305.109,259.071C304.729,258.524 304.268,258.25 303.727,258.25L303.727,258.25Z" style="fill:none;stroke:white;stroke-width:0.35px;stroke-miterlimit:10;"/>
                        </g>
                        <g transform="matrix(1.10976,0,0,1,-33.7154,1.98688)">
                            <path d="M319.977,268.91L320.657,278.812C321.374,287.695 321.733,294.993 321.733,300.706C321.733,302.1 321.802,303.278 321.941,304.238C318.656,303.856 316.677,303.345 316.004,302.704C316.721,295.091 318.045,283.827 319.977,268.91L319.977,268.91ZM318.166,257.878C317.8,258.57 317.536,259.614 317.375,261.008C317.222,262.403 317.079,264.278 316.947,266.633C316.904,267.769 316.86,268.642 316.816,269.251C316.772,269.85 316.75,270.279 316.75,270.537C315.221,286.404 312.971,302.493 310,318.803L309.934,319.175L309.802,319.655C309.802,320.358 310.025,320.947 310.472,321.422C310.925,321.897 311.419,322.135 311.953,322.135C312.539,322.135 312.989,321.845 313.303,321.267C313.889,320.255 314.317,318.194 314.588,315.085C315.085,310.643 315.466,307.694 315.729,306.237L322.413,307.663L322.677,309.661C323.13,314.227 323.357,317.466 323.357,319.377C323.357,320.575 323.602,321.396 324.093,321.84C324.59,322.284 325.355,322.506 326.387,322.506C327.104,322.124 327.462,321.236 327.462,319.841L327.462,319.748C327.462,318.86 327.261,316.892 326.859,313.845C326.412,310.488 326.189,308.587 326.189,308.143C326.189,307.699 326.076,306.743 325.849,305.276C325.622,303.696 325.509,302.715 325.509,302.332C325.509,298.397 325.059,291.543 324.159,281.771C323.215,272.247 322.743,265.073 322.743,260.249C322.743,259.485 322.516,258.901 322.062,258.498C321.616,258.085 321.078,257.878 320.449,257.878L318.166,257.878Z" style="fill:none;stroke:white;stroke-width:0.35px;stroke-miterlimit:10;"/>
                        </g>
                        <g transform="matrix(1.10976,0,0,1,-33.7154,1.98688)">
                            <path d="M336.233,258.637C334.659,258.637 333.873,261.649 333.873,267.671C333.873,269.644 334.008,272.629 334.279,276.627L334.279,277.293C334.279,281.993 334.144,289.069 333.873,298.521C333.558,307.404 333.401,314.511 333.401,319.841C333.401,320.606 333.591,321.319 333.972,321.98C334.359,322.651 334.82,322.987 335.355,322.987C336.167,322.987 336.931,322.672 337.648,322.042C340.034,322.042 342.035,322.419 343.652,323.173C344.238,323.049 344.732,322.765 345.134,322.321C345.536,321.876 345.738,321.339 345.738,320.709C345.738,318.798 344.527,317.843 342.105,317.843C341.475,317.843 340.956,317.874 340.546,317.936C340.188,317.936 339.906,317.956 339.701,317.998C339.503,318.029 339.361,318.044 339.273,318.044C337.788,318.044 337.045,315.854 337.045,311.474C337.045,308.613 337.089,306.072 337.177,303.851L337.308,296.336L337.308,295.189C337.308,293.475 337.422,292.142 337.648,291.192C337.648,286.936 337.627,283.129 337.583,279.772C337.539,276.343 337.517,272.5 337.517,268.244C337.517,267.418 337.583,266.214 337.714,264.634C337.853,262.981 337.923,261.773 337.923,261.008C337.923,260.378 337.755,259.825 337.418,259.35C337.081,258.875 336.686,258.638 336.233,258.638L336.233,258.637Z" style="fill:none;stroke:white;stroke-width:0.35px;stroke-miterlimit:10;"/>
                        </g>
                    </g>
                </g>
            </g>
        </g>
    </g>
    <defs>
        <radialGradient id="_Radial2" cx="0" cy="0" r="1" gradientUnits="userSpaceOnUse" gradientTransform="matrix(138.378,0,0,138.378,212.419,286.388)"><stop offset="0" style="stop-color:rgb(77,77,77);stop-opacity:1"/><stop offset="1" style="stop-color:black;stop-opacity:1"/></radialGradient>
    </defs>
</svg>
