<?xml version="1.0" encoding="UTF-8" standalone="no"?>
<!DOCTYPE svg PUBLIC "-//W3C//DTD SVG 1.1//EN" "http://www.w3.org/Graphics/SVG/1.1/DTD/svg11.dtd">
<svg width="100%" height="100%" viewBox="0 0 1500 525" version="1.1" xmlns="http://www.w3.org/2000/svg" xmlns:xlink="http://www.w3.org/1999/xlink" xml:space="preserve" xmlns:serif="http://www.serif.com/" style="fill-rule:evenodd;clip-rule:evenodd;stroke-linejoin:round;stroke-miterlimit:1.41421;">
    <g id="Layer-1" serif:id="Layer 1" transform="matrix(4.16667,0,0,4.16667,0,0)">
        <g transform="matrix(1,0,0,1,159.303,28.9802)">
            <path d="M0,37.595C8.134,28.3 27.636,19.171 27.636,5.477C27.636,-0.498 22.657,-2.49 17.512,-2.49C11.951,-2.49 6.557,-0.664 1.577,1.659L1.577,-8.881C7.968,-10.706 14.772,-11.951 21.412,-11.951C32.118,-11.951 44.65,-7.801 44.65,4.896C44.65,20.83 20.582,27.138 17.512,37.595L44.484,37.595L44.484,49.546L0,49.546L0,37.595Z" style="fill:white;fill-rule:nonzero;"/>
        </g>
        <g id="main-text" serif:id="main text">
            <g transform="matrix(1,0,0,1,213.45,78.5263)">
                <path d="M0,-59.31L7.656,-59.31L7.656,-6.424L32.999,-6.424L32.999,0L0,0L0,-59.31Z" style="fill:rgb(1,118,192);fill-rule:nonzero;"/>
            </g>
            <g transform="matrix(1,0,0,1,0,-28.345)">
                <path d="M252.962,64.281L260.706,64.281L260.706,106.872L252.962,106.872L252.962,64.281ZM261.586,52.313C261.674,54.953 259.737,57.065 256.658,57.065C253.93,57.065 251.994,54.953 251.994,52.313C251.994,49.585 254.018,47.473 256.834,47.473C259.737,47.473 261.586,49.585 261.586,52.313" style="fill:rgb(1,118,192);fill-rule:nonzero;"/>
            </g>
            <g transform="matrix(1,0,0,1,274.786,78.5265)">
                <path d="M0,-42.591L8.359,-18.655C9.768,-14.783 10.911,-11.264 11.791,-7.744L12.056,-7.744C13.023,-11.264 14.255,-14.783 15.663,-18.655L23.935,-42.591L32.031,-42.591L15.312,0L7.92,0L-8.272,-42.591L0,-42.591Z" style="fill:rgb(1,118,192);fill-rule:nonzero;"/>
            </g>
            <g transform="matrix(1,0,0,1,338.496,61.2797)">
                <path d="M0,-8.185C0.088,-13.113 -2.024,-20.768 -10.736,-20.768C-18.568,-20.768 -22,-13.552 -22.616,-8.185L0,-8.185ZM-22.704,-2.641C-22.527,7.831 -15.84,12.143 -8.097,12.143C-2.553,12.143 0.792,11.174 3.695,9.943L5.016,15.487C2.287,16.718 -2.376,18.127 -9.152,18.127C-22.264,18.127 -30.096,9.502 -30.096,-3.345C-30.096,-16.193 -22.527,-26.312 -10.12,-26.312C3.783,-26.312 7.479,-14.081 7.479,-6.248C7.479,-4.664 7.304,-3.433 7.216,-2.641L-22.704,-2.641Z" style="fill:rgb(1,118,192);fill-rule:nonzero;"/>
            </g>
            <g transform="matrix(1,0,0,1,32.1396,44.6733)">
                <path d="M0,-25.541C0.421,-25.687 0.843,-25.884 1.303,-25.855C3.488,-25.855 5.673,-25.847 7.86,-25.858C8.567,-25.884 9.226,-25.56 9.933,-25.585C12.119,-25.594 14.307,-25.594 16.494,-25.585C17.201,-25.56 17.86,-25.887 18.57,-25.858C21.442,-25.826 24.32,-25.892 27.193,-25.829C28.321,-25.509 29.506,-25.662 30.639,-25.371C33.36,-25.02 35.932,-23.953 38.24,-22.496C41.049,-20.356 43.006,-17.071 43.423,-13.55C43.459,-12.605 43.894,-11.682 43.637,-10.735C43.36,-9.615 43.443,-8.443 43.114,-7.331C42.719,-6.043 42.394,-4.693 41.669,-3.544C40.003,-2.613 38.001,-3.393 36.211,-2.982C35.403,-2.744 34.556,-2.828 33.727,-2.836C33.697,-3.723 34.082,-4.557 34.014,-5.444C33.925,-6.486 34.514,-7.485 34.218,-8.526C33.906,-9.502 34.11,-10.546 33.831,-11.528C33.297,-14.309 32.046,-16.98 30.016,-18.979C28.109,-20.543 25.785,-21.748 23.294,-21.933C21.69,-21.844 20.044,-22.106 18.464,-21.784C17.633,-21.721 17.208,-20.858 17.264,-20.104C17.274,-13.738 17.267,-7.373 17.269,-1.006C16.212,-1.096 15.197,-0.779 14.155,-0.693C12.051,-0.374 9.94,-0.091 7.86,0.351C7.831,-6.292 7.865,-12.935 7.844,-19.576C7.604,-20.766 7.658,-22.228 6.617,-23.053C5.942,-23.751 4.93,-23.888 4.038,-24.139C2.716,-24.534 1.265,-23.956 -0.002,-24.597C-0.002,-24.911 0,-25.225 0,-25.541" style="fill:rgb(1,118,192);fill-rule:nonzero;"/>
            </g>
            <g transform="matrix(1,0,0,1,91.3057,41.0966)">
                <path d="M0,-20.724C-0.801,-20.709 -0.801,-22.27 0,-22.266C1.996,-22.299 3.996,-22.26 5.992,-22.281C6.698,-22.307 7.36,-21.983 8.066,-22.009C10.34,-22.017 12.614,-22.017 14.887,-22.009C15.68,-21.998 16.428,-22.357 17.229,-22.286C19.037,-22.239 20.85,-22.336 22.655,-22.242C23.1,-22.004 23.021,-21.47 22.967,-21.048C22.64,-20.499 21.938,-20.777 21.417,-20.706C20.609,-20.777 19.869,-20.413 19.139,-20.128C19.021,-19.876 18.901,-19.625 18.778,-19.379C19.04,-18.194 19.458,-17.045 20.165,-16.049C23.131,-10.51 26.408,-5.138 29.594,0.278C33.202,-5.201 36.878,-10.635 40.248,-16.266C40.677,-17.302 41.229,-18.419 41.002,-19.57C40.091,-20.947 38.31,-20.696 36.889,-20.716C36.235,-20.714 36.329,-21.504 36.311,-21.959C37.807,-22.582 39.471,-22.145 41.043,-22.284C42.2,-22.425 43.291,-21.917 44.443,-22.007C46.02,-22.082 47.629,-21.828 49.173,-22.252C50.976,-22.317 52.783,-22.257 54.589,-22.273C54.801,-22.017 55.042,-21.779 55.209,-21.491C55.039,-21.203 54.801,-20.962 54.589,-20.709C52.378,-20.85 49.937,-20.28 48.443,-18.537C45.342,-14.61 42.695,-10.35 39.74,-6.313C37.933,-3.578 36.03,-0.912 34.178,1.788C33.534,1.796 32.88,1.858 32.252,1.691C31.332,1.398 30.345,1.67 29.427,1.379C28.553,1.144 27.631,1.401 26.758,1.165C25.879,0.893 24.956,1.073 24.055,0.989C22.365,0.501 20.573,1.005 18.896,0.422C16.353,-3.843 13.793,-8.095 11.232,-12.351C10.081,-14.146 9.081,-16.062 7.627,-17.642C5.654,-19.664 2.81,-20.753 0,-20.724" style="fill:rgb(1,118,192);fill-rule:nonzero;"/>
            </g>
            <g transform="matrix(1,0,0,1,128.398,77.6981)">
                <path d="M0,-24.703C2.844,-19.72 6.199,-14.565 9.137,-9.639C10.765,-7.349 11.916,-4.67 14.098,-2.818C15.283,-1.684 16.908,-1.214 18.485,-0.936C19.428,-0.711 20.542,-1.008 21.275,-0.22C20.989,0.296 20.555,0.818 19.901,0.769C15.544,0.793 11.186,0.769 6.83,0.778C4.993,0.746 3.138,0.915 1.322,0.542C0.804,0.524 0.375,0.24 -0.03,-0.047C0.286,-0.749 0.903,-1.162 1.63,-1.36C1.586,-1.823 1.662,-2.316 1.481,-2.75C-2.529,-9.94 -6.656,-17.064 -10.884,-24.131C-14.662,-18.093 -18.396,-12.022 -22.161,-5.973C-22.987,-4.618 -24.023,-2.948 -23.234,-1.346C-22.158,-0.963 -21.038,-0.759 -19.897,-0.762C-19.244,-0.766 -19.34,0.026 -19.285,0.477C-20.557,0.969 -21.933,0.734 -23.259,0.775C-24.853,0.738 -26.465,0.915 -28.037,0.594C-29.583,0.351 -31.137,0.574 -32.67,0.769C-37.038,0.79 -41.405,0.767 -45.771,0.779C-47.263,0.696 -48.756,0.426 -50.177,-0.037C-52.922,-1.065 -54.95,-3.263 -56.943,-5.31C-61.82,-11.102 -65.878,-17.507 -70.413,-23.55C-71.169,-23.548 -71.928,-23.516 -72.679,-23.605C-74.672,-23.989 -76.711,-23.762 -78.726,-23.814C-78.733,-19.369 -78.723,-14.922 -78.73,-10.475C-78.726,-9.463 -78.793,-8.443 -78.616,-7.441C-78.374,-6.279 -78.582,-5.064 -78.223,-3.92C-77.982,-2.853 -77.571,-1.594 -76.355,-1.326C-74.596,-0.905 -72.754,-0.861 -70.949,-0.745C-70.517,-0.486 -70.643,0.055 -70.567,0.474C-71.091,0.636 -71.624,0.801 -72.179,0.786C-74.974,0.775 -77.77,0.773 -80.564,0.786C-81.622,0.821 -82.642,0.474 -83.694,0.494C-84.929,0.434 -86.125,0.859 -87.357,0.788C-89.623,0.754 -91.891,0.803 -94.154,0.773C-94.693,0.835 -94.983,0.319 -95.337,0.017C-95.091,-0.246 -94.854,-0.511 -94.617,-0.779C-92.901,-0.856 -90.653,-0.591 -89.536,-2.192C-88.89,-3.723 -88.639,-5.424 -88.665,-7.082C-88.673,-8.046 -88.364,-8.976 -88.401,-9.942C-88.427,-14.406 -88.392,-19.353 -88.426,-23.814L-61.939,-25.672C-57.791,-20.718 -53.804,-15.212 -49.536,-10.364C-48.917,-9.427 -47.969,-8.77 -47.367,-7.818C-45.737,-6.043 -44.019,-4.317 -41.996,-2.988C-40.716,-2.298 -39.421,-1.608 -38.017,-1.209C-36.104,-0.678 -34.042,-1.251 -32.487,-2.43C-30,-4.633 -28.301,-7.519 -26.357,-10.175C-23.542,-14.32 -20.625,-18.396 -17.765,-22.509C-17.192,-23.509 -15.959,-24.606 -15.505,-25.672L0,-24.703Z" style="fill:rgb(1,118,192);fill-rule:nonzero;"/>
            </g>
            <g transform="matrix(1,0,0,1,349.385,39.0331)">
                <path d="M0,-0.392L0.588,-0.392C1.234,-0.392 1.795,-0.588 1.795,-1.15C1.795,-1.598 1.514,-1.907 0.672,-1.907C0.336,-1.907 0.141,-1.878 0,-1.851L0,-0.392ZM0,2.244L-0.869,2.244L-0.869,-2.44C-0.393,-2.524 0.111,-2.58 0.756,-2.58C1.541,-2.58 1.936,-2.44 2.242,-2.215C2.523,-2.019 2.721,-1.655 2.721,-1.234C2.721,-0.645 2.299,-0.28 1.795,-0.112L1.795,-0.056C2.215,0.113 2.439,0.477 2.58,1.066C2.721,1.796 2.805,2.076 2.916,2.244L2.02,2.244C1.879,2.076 1.766,1.655 1.654,1.01C1.541,0.505 1.234,0.281 0.561,0.281L0,0.281L0,2.244ZM0.785,-3.898C-1.234,-3.898 -2.777,-2.244 -2.777,-0.224C-2.777,1.851 -1.234,3.478 0.842,3.478C2.859,3.506 4.346,1.851 4.346,-0.196C4.346,-2.244 2.859,-3.898 0.812,-3.898L0.785,-3.898ZM0.842,-4.683C3.365,-4.683 5.354,-2.72 5.354,-0.224C5.354,2.328 3.365,4.291 0.812,4.291C-1.74,4.291 -3.758,2.328 -3.758,-0.224C-3.758,-2.72 -1.74,-4.683 0.812,-4.683L0.842,-4.683Z" style="fill:rgb(1,118,192);fill-rule:nonzero;"/>
            </g>
        </g>
        <g transform="matrix(1,0,0,1,76.7666,60.4673)">
            <path d="M0,-15.918C1,-16.099 2.022,-16.029 3.033,-16.034C10.361,-16.023 17.693,-16.044 25.021,-16.023C26.489,-15.805 27.969,-15.691 29.456,-15.777C31.042,-15.898 32.585,-15.374 34.171,-15.51C35.406,-15.584 36.602,-15.173 37.836,-15.243C42.525,-14.886 47.216,-14.445 51.89,-13.854C62.656,-12.444 73.438,-10.568 83.718,-6.975C87.488,-5.635 91.235,-4.113 94.558,-1.855C95.364,-1.25 96.243,-0.688 96.848,0.137C93.195,-0.892 89.484,-1.685 85.78,-2.491C74.579,-4.681 63.25,-6.316 51.874,-7.141C51.874,-7.141 14.081,-11.025 -36.75,-6.126C-46.938,-4.875 -57.106,-3.286 -67.087,-0.858C-68.312,-0.529 -69.579,-0.319 -70.751,0.181L-70.751,-0.22C-66.222,-4.026 -60.57,-6.078 -55.018,-7.891C-45.567,-10.899 -35.753,-12.564 -25.939,-13.854C-20.764,-14.492 -15.578,-15.016 -10.379,-15.325C-8.859,-15.686 -7.282,-15.334 -5.756,-15.657C-3.851,-15.979 -1.9,-15.543 0,-15.918" style="fill:white;fill-rule:nonzero;"/>
        </g>
        <g id="tagline">
            <g transform="matrix(1,0,0,1,85.2598,104.623)">
                <path d="M0,-6.855C0,-8.561 -1.434,-9.415 -4.301,-9.415C-5.055,-9.415 -5.898,-9.357 -6.829,-9.243L-7.527,-3.439C-7.22,-3.423 -6.843,-3.416 -6.396,-3.416C-2.132,-3.416 0,-4.562 0,-6.855M2.318,-7.3C2.318,-5.472 1.471,-4.125 -0.223,-3.255C-1.918,-2.387 -4.036,-1.953 -6.577,-1.953C-7.089,-1.953 -7.462,-1.96 -7.694,-1.976C-7.927,-0.186 -8.067,1.822 -8.113,4.045L-10.809,4.045C-10.623,3.085 -10.222,0.481 -9.608,-3.77C-9.272,-6.39 -9.077,-8.744 -9.021,-10.831L-7.01,-10.831C-6.806,-10.831 -6.219,-10.842 -5.25,-10.865C-4.283,-10.888 -3.463,-10.9 -2.793,-10.9C-1.238,-10.9 0.002,-10.557 0.929,-9.872C1.855,-9.186 2.318,-8.329 2.318,-7.3" style="fill:white;fill-rule:nonzero;"/>
            </g>
            <g transform="matrix(1,0,0,1,98.8198,108.531)">
                <path d="M0,-10.844L-0.838,-9.027C-1.49,-9.179 -2.114,-9.255 -2.709,-9.255C-4.841,-9.255 -6.028,-8.357 -6.271,-6.559C-6.615,-3.954 -6.862,-1.722 -7.011,0.136L-9.287,0.251C-8.635,-3.695 -8.309,-6.361 -8.309,-7.747C-8.309,-8.547 -8.384,-9.522 -8.533,-10.672L-6.173,-10.958C-6.098,-10.333 -6.061,-9.774 -6.061,-9.279L-5.949,-9.279C-4.832,-10.49 -3.636,-11.095 -2.36,-11.095C-1.69,-11.095 -0.903,-11.011 0,-10.844" style="fill:white;fill-rule:nonzero;"/>
            </g>
            <g transform="matrix(1,0,0,1,109.224,106.269)">
                <path d="M0,-6.25C0,-6.653 -0.229,-6.964 -0.685,-7.181C-1.141,-7.398 -1.727,-7.507 -2.444,-7.507C-3.459,-7.507 -4.401,-7.232 -5.272,-6.685C-6.143,-6.136 -6.708,-5.294 -6.969,-4.159C-4.111,-4.205 -2.151,-4.452 -1.089,-4.901C-0.363,-5.206 0,-5.655 0,-6.25M2.22,-6.296C2.22,-5.268 1.638,-4.486 0.475,-3.953C-1.006,-3.268 -3.529,-2.898 -7.094,-2.845C-7.094,-1.474 -6.804,-0.478 -6.222,0.143C-5.64,0.764 -4.66,1.074 -3.282,1.074C-1.932,1.074 -0.461,0.686 1.131,-0.092L0.782,1.6C-0.475,2.339 -2.03,2.708 -3.882,2.708C-5.782,2.708 -7.181,2.241 -8.079,1.309C-8.978,0.375 -9.426,-0.808 -9.426,-2.239C-9.426,-4.35 -8.675,-5.996 -7.171,-7.181C-5.668,-8.365 -3.934,-8.958 -1.969,-8.958C-0.778,-8.958 0.218,-8.722 1.019,-8.249C1.82,-7.777 2.22,-7.126 2.22,-6.296" style="fill:white;fill-rule:nonzero;"/>
            </g>
            <g transform="matrix(1,0,0,1,122.49,108.657)">
                <path d="M0,-10.924L-0.628,-9.267C-1.56,-9.549 -2.63,-9.69 -3.84,-9.69C-5.646,-9.69 -6.549,-9.195 -6.549,-8.204C-6.549,-7.847 -6.377,-7.546 -6.033,-7.302C-5.688,-7.058 -5.032,-6.769 -4.063,-6.434C-1.699,-5.604 -0.517,-4.548 -0.517,-3.269C-0.517,-0.922 -2.323,0.251 -5.935,0.251C-7.396,0.251 -8.747,0.147 -9.985,-0.058L-9.342,-1.737C-8.244,-1.403 -7.043,-1.235 -5.739,-1.235C-3.645,-1.235 -2.597,-1.726 -2.597,-2.709C-2.597,-3.395 -3.435,-4.038 -5.111,-4.64C-7.495,-5.492 -8.686,-6.548 -8.686,-7.805C-8.686,-8.894 -8.197,-9.728 -7.22,-10.307C-6.242,-10.886 -5.046,-11.175 -3.631,-11.175C-2.104,-11.175 -0.894,-11.091 0,-10.924" style="fill:white;fill-rule:nonzero;"/>
            </g>
            <g transform="matrix(1,0,0,1,134.918,108.793)">
                <path d="M0,-11.06L-0.572,-9.266C-1.466,-9.502 -2.393,-9.621 -3.352,-9.621C-4.748,-9.621 -5.868,-9.176 -6.71,-8.289C-7.553,-7.402 -7.974,-6.356 -7.974,-5.153C-7.974,-4.048 -7.678,-3.155 -7.087,-2.473C-6.496,-1.791 -5.623,-1.451 -4.469,-1.451C-3.249,-1.451 -1.964,-1.801 -0.614,-2.502L-0.963,-0.811C-1.922,-0.148 -3.245,0.183 -4.929,0.183C-6.717,0.183 -8.085,-0.334 -9.035,-1.371C-9.882,-2.277 -10.306,-3.451 -10.306,-4.89C-10.306,-6.642 -9.61,-8.139 -8.218,-9.38C-6.827,-10.622 -4.934,-11.243 -2.542,-11.243C-1.489,-11.243 -0.642,-11.182 0,-11.06" style="fill:white;fill-rule:nonzero;"/>
            </g>
            <g transform="matrix(1,0,0,1,146.105,108.531)">
                <path d="M0,-10.844L-0.838,-9.027C-1.49,-9.179 -2.114,-9.255 -2.709,-9.255C-4.841,-9.255 -6.028,-8.357 -6.271,-6.559C-6.615,-3.954 -6.862,-1.722 -7.011,0.136L-9.287,0.251C-8.635,-3.695 -8.309,-6.361 -8.309,-7.747C-8.309,-8.547 -8.384,-9.522 -8.533,-10.672L-6.173,-10.958C-6.098,-10.333 -6.061,-9.774 -6.061,-9.279L-5.949,-9.279C-4.832,-10.49 -3.636,-11.095 -2.36,-11.095C-1.69,-11.095 -0.903,-11.011 0,-10.844" style="fill:white;fill-rule:nonzero;"/>
            </g>
            <g transform="matrix(1,0,0,1,151.9,107.698)">
                <path d="M0,-13.472C0,-13.03 -0.177,-12.653 -0.531,-12.34C-0.885,-12.029 -1.332,-11.872 -1.872,-11.872C-2.719,-11.872 -3.142,-12.242 -3.142,-12.981C-3.142,-13.422 -2.965,-13.795 -2.612,-14.1C-2.258,-14.405 -1.811,-14.557 -1.271,-14.557C-0.424,-14.557 0,-14.196 0,-13.472M-1.006,-10.101C-0.997,-9.553 -1.078,-8.796 -1.25,-7.833C-1.422,-6.869 -1.602,-5.675 -1.788,-4.251C-1.927,-3.169 -2.081,-1.429 -2.249,0.97L-4.678,1.085C-4.464,-0.118 -4.176,-1.898 -3.813,-4.251C-3.617,-5.775 -3.52,-7.18 -3.52,-8.467C-3.52,-9.008 -3.538,-9.45 -3.575,-9.792L-1.006,-10.101Z" style="fill:white;fill-rule:nonzero;"/>
            </g>
            <g transform="matrix(1,0,0,1,164.133,108.794)">
                <path d="M0,-6.239C0,-8.585 -1.01,-9.758 -3.03,-9.758C-4.036,-9.758 -5.022,-9.236 -5.991,-8.192C-6.959,-7.148 -7.518,-5.93 -7.667,-4.536L-7.946,-1.942C-7.043,-1.501 -6.168,-1.28 -5.32,-1.28C-3.542,-1.28 -2.211,-1.739 -1.327,-2.657C-0.442,-3.574 0,-4.768 0,-6.239M2.388,-6.925C2.388,-4.86 1.746,-3.159 0.461,-1.822C-0.824,-0.486 -2.556,0.183 -4.734,0.183C-6.214,0.183 -7.299,-0.069 -7.988,-0.571L-8.1,-0.571C-8.37,1.546 -8.574,3.397 -8.714,4.982L-11.2,5.096C-10.027,-1.927 -9.44,-6.41 -9.44,-8.352C-9.44,-9.076 -9.515,-9.936 -9.664,-10.934L-7.304,-11.22C-7.248,-10.588 -7.22,-9.701 -7.22,-8.558L-7.108,-8.558C-5.879,-10.409 -4.194,-11.335 -2.053,-11.335C-0.731,-11.335 0.34,-10.936 1.159,-10.14C1.979,-9.344 2.388,-8.272 2.388,-6.925" style="fill:white;fill-rule:nonzero;"/>
            </g>
            <g transform="matrix(1,0,0,1,177.19,96.9331)">
                <path d="M0,9.644L-0.349,11.164C-1.327,11.705 -2.332,11.975 -3.366,11.975C-4.641,11.975 -5.53,11.717 -6.033,11.204C-6.536,10.689 -6.787,9.869 -6.787,8.742C-6.787,7.797 -6.521,5.759 -5.991,2.628C-6.484,2.628 -7.243,2.651 -8.267,2.697L-7.974,1.04C-7.099,1.086 -6.335,1.109 -5.684,1.109C-5.628,0.796 -5.428,-0.289 -5.083,-2.148L-2.989,-2.331C-3.156,-1.553 -3.375,-0.407 -3.645,1.109C-2.779,1.109 -1.541,1.071 0.07,0.995L-0.209,2.697C-1.746,2.651 -2.998,2.628 -3.966,2.628C-4.45,5.188 -4.692,7.02 -4.692,8.124C-4.692,8.993 -4.558,9.586 -4.287,9.907C-4.018,10.227 -3.561,10.386 -2.919,10.386C-1.988,10.386 -1.015,10.139 0,9.644" style="fill:white;fill-rule:nonzero;"/>
            </g>
            <g transform="matrix(1,0,0,1,184.369,107.698)">
                <path d="M0,-13.472C0,-13.03 -0.178,-12.653 -0.531,-12.34C-0.885,-12.029 -1.332,-11.872 -1.872,-11.872C-2.719,-11.872 -3.143,-12.242 -3.143,-12.981C-3.143,-13.422 -2.966,-13.795 -2.612,-14.1C-2.258,-14.405 -1.812,-14.557 -1.271,-14.557C-0.424,-14.557 0,-14.196 0,-13.472M-1.006,-10.101C-0.997,-9.553 -1.078,-8.796 -1.25,-7.833C-1.423,-6.869 -1.602,-5.675 -1.788,-4.251C-1.928,-3.169 -2.081,-1.429 -2.249,0.97L-4.679,1.085C-4.465,-0.118 -4.176,-1.898 -3.813,-4.251C-3.617,-5.775 -3.52,-7.18 -3.52,-8.467C-3.52,-9.008 -3.538,-9.45 -3.575,-9.792L-1.006,-10.101Z" style="fill:white;fill-rule:nonzero;"/>
            </g>
            <g transform="matrix(1,0,0,1,196.42,103.8)">
                <path d="M0,-1.176C0,-2.242 -0.295,-3.155 -0.887,-3.912C-1.479,-4.67 -2.332,-5.05 -3.449,-5.05C-4.836,-5.05 -5.943,-4.519 -6.773,-3.455C-7.602,-2.393 -8.016,-1.24 -8.016,0.001C-8.016,1.067 -7.715,1.979 -7.115,2.737C-6.514,3.495 -5.65,3.874 -4.523,3.874C-3.156,3.874 -2.061,3.343 -1.236,2.28C-0.412,1.218 0,0.065 0,-1.176M2.375,-1.508C2.375,0.328 1.697,1.924 0.342,3.28C-1.012,4.636 -2.797,5.313 -5.014,5.313C-6.475,5.313 -7.734,4.832 -8.79,3.868C-9.848,2.905 -10.375,1.657 -10.375,0.126C-10.375,-1.679 -9.7,-3.233 -8.351,-4.535C-7.001,-5.838 -5.205,-6.489 -2.961,-6.489C-1.48,-6.489 -0.221,-6.039 0.816,-5.141C1.855,-4.242 2.375,-3.031 2.375,-1.508" style="fill:white;fill-rule:nonzero;"/>
            </g>
            <g transform="matrix(1,0,0,1,213.29,105.388)">
                <path d="M0,-4.536C0,-3.934 -0.105,-2.708 -0.314,-0.856C-0.524,0.994 -0.629,2.373 -0.629,3.279L-2.989,3.394C-2.989,3.059 -2.854,1.981 -2.584,0.16C-2.314,-1.66 -2.179,-3.039 -2.179,-3.976C-2.179,-4.867 -2.377,-5.486 -2.772,-5.833C-3.168,-6.18 -3.79,-6.352 -4.637,-6.352C-5.651,-6.352 -6.627,-5.809 -7.562,-4.724C-8.498,-3.639 -9.045,-2.441 -9.203,-1.131C-9.408,0.575 -9.566,2.045 -9.678,3.279L-11.954,3.394C-11.303,-0.552 -10.977,-3.218 -10.977,-4.604C-10.977,-5.404 -11.052,-6.379 -11.2,-7.529L-8.84,-7.815C-8.784,-7.144 -8.756,-6.257 -8.756,-5.153L-8.645,-5.153C-7.435,-7.004 -5.768,-7.93 -3.646,-7.93C-1.215,-7.93 0,-6.798 0,-4.536" style="fill:white;fill-rule:nonzero;"/>
            </g>
            <g transform="matrix(1,0,0,1,231.416,113.639)">
                <path d="M0,-21.207L-0.433,-19.768C-0.936,-19.82 -1.452,-19.847 -1.983,-19.847C-2.812,-19.847 -3.405,-19.565 -3.764,-19.002C-4.122,-18.437 -4.413,-17.303 -4.636,-15.597C-3.762,-15.597 -2.532,-15.635 -0.949,-15.711L-1.229,-14.009C-2.942,-14.055 -4.139,-14.077 -4.817,-14.077C-5.078,-11.281 -5.32,-8.671 -5.544,-6.245C-5.768,-3.818 -6.229,-2.213 -6.927,-1.429C-7.625,-0.645 -8.579,-0.111 -9.789,0.171L-10.348,-0.721C-9.482,-1.299 -8.87,-1.96 -8.512,-2.703C-8.153,-3.445 -7.849,-4.864 -7.597,-6.959C-7.346,-9.054 -7.099,-11.426 -6.856,-14.077C-7.396,-14.077 -8.342,-14.055 -9.691,-14.009L-9.37,-15.688C-8.16,-15.627 -7.257,-15.597 -6.661,-15.597C-6.4,-17.592 -5.886,-19.055 -5.118,-19.984C-4.35,-20.913 -3.198,-21.378 -1.662,-21.378C-1.122,-21.378 -0.568,-21.321 0,-21.207" style="fill:white;fill-rule:nonzero;"/>
            </g>
            <g transform="matrix(1,0,0,1,241.499,103.8)">
                <path d="M0,-1.176C0,-2.242 -0.296,-3.155 -0.887,-3.912C-1.479,-4.67 -2.332,-5.05 -3.449,-5.05C-4.837,-5.05 -5.944,-4.519 -6.773,-3.455C-7.602,-2.393 -8.017,-1.24 -8.017,0.001C-8.017,1.067 -7.716,1.979 -7.115,2.737C-6.515,3.495 -5.651,3.874 -4.524,3.874C-3.156,3.874 -2.061,3.343 -1.236,2.28C-0.412,1.218 0,0.065 0,-1.176M2.374,-1.508C2.374,0.328 1.696,1.924 0.342,3.28C-1.013,4.636 -2.798,5.313 -5.014,5.313C-6.476,5.313 -7.734,4.832 -8.791,3.868C-9.848,2.905 -10.376,1.657 -10.376,0.126C-10.376,-1.679 -9.701,-3.233 -8.352,-4.535C-7.002,-5.838 -5.205,-6.489 -2.961,-6.489C-1.48,-6.489 -0.222,-6.039 0.816,-5.141C1.854,-4.242 2.374,-3.031 2.374,-1.508" style="fill:white;fill-rule:nonzero;"/>
            </g>
            <g transform="matrix(1,0,0,1,255.7,108.531)">
                <path d="M0,-10.844L-0.838,-9.027C-1.489,-9.179 -2.113,-9.255 -2.709,-9.255C-4.841,-9.255 -6.028,-8.357 -6.27,-6.559C-6.614,-3.954 -6.861,-1.722 -7.01,0.136L-9.286,0.251C-8.635,-3.695 -8.309,-6.361 -8.309,-7.747C-8.309,-8.547 -8.384,-9.522 -8.532,-10.672L-6.172,-10.958C-6.098,-10.333 -6.061,-9.774 -6.061,-9.279L-5.949,-9.279C-4.832,-10.49 -3.636,-11.095 -2.359,-11.095C-1.689,-11.095 -0.903,-11.011 0,-10.844" style="fill:white;fill-rule:nonzero;"/>
            </g>
            <g transform="matrix(1,0,0,1,273.366,95.4723)">
                <path d="M0,11.516L-0.321,13.196L-10.768,13.196C-10.6,12.388 -10.204,9.784 -9.58,5.38C-9.217,2.524 -9.013,0.17 -8.966,-1.68L-6.382,-1.68C-6.513,-1.033 -6.866,1.321 -7.443,5.38C-7.778,7.986 -8.077,10.073 -8.337,11.642C-6.178,11.642 -3.398,11.6 0,11.516" style="fill:white;fill-rule:nonzero;"/>
            </g>
            <g transform="matrix(1,0,0,1,280.391,107.698)">
                <path d="M0,-13.472C0,-13.03 -0.177,-12.653 -0.53,-12.34C-0.885,-12.029 -1.331,-11.872 -1.871,-11.872C-2.719,-11.872 -3.142,-12.242 -3.142,-12.981C-3.142,-13.422 -2.965,-13.795 -2.611,-14.1C-2.258,-14.405 -1.811,-14.557 -1.271,-14.557C-0.424,-14.557 0,-14.196 0,-13.472M-1.005,-10.101C-0.996,-9.553 -1.077,-8.796 -1.25,-7.833C-1.422,-6.869 -1.602,-5.675 -1.787,-4.251C-1.927,-3.169 -2.08,-1.429 -2.248,0.97L-4.678,1.085C-4.464,-0.118 -4.175,-1.898 -3.813,-4.251C-3.616,-5.775 -3.519,-7.18 -3.519,-8.467C-3.519,-9.008 -3.538,-9.45 -3.575,-9.792L-1.005,-10.101Z" style="fill:white;fill-rule:nonzero;"/>
            </g>
            <g transform="matrix(1,0,0,1,291.436,113.639)">
                <path d="M0,-21.207L-0.433,-19.768C-0.936,-19.82 -1.452,-19.847 -1.983,-19.847C-2.812,-19.847 -3.405,-19.565 -3.764,-19.002C-4.122,-18.437 -4.413,-17.303 -4.636,-15.597C-3.762,-15.597 -2.532,-15.635 -0.949,-15.711L-1.229,-14.009C-2.942,-14.055 -4.139,-14.077 -4.817,-14.077C-5.078,-11.281 -5.32,-8.671 -5.544,-6.245C-5.768,-3.818 -6.229,-2.213 -6.927,-1.429C-7.625,-0.645 -8.579,-0.111 -9.789,0.171L-10.348,-0.721C-9.482,-1.299 -8.87,-1.96 -8.512,-2.703C-8.153,-3.445 -7.849,-4.864 -7.597,-6.959C-7.346,-9.054 -7.099,-11.426 -6.856,-14.077C-7.396,-14.077 -8.342,-14.055 -9.691,-14.009L-9.37,-15.688C-8.16,-15.627 -7.257,-15.597 -6.661,-15.597C-6.4,-17.592 -5.886,-19.055 -5.118,-19.984C-4.35,-20.913 -3.198,-21.378 -1.662,-21.378C-1.122,-21.378 -0.568,-21.321 0,-21.207" style="fill:white;fill-rule:nonzero;"/>
            </g>
            <g transform="matrix(1,0,0,1,300.569,106.269)">
                <path d="M0,-6.25C0,-6.653 -0.228,-6.964 -0.684,-7.181C-1.141,-7.398 -1.727,-7.507 -2.443,-7.507C-3.458,-7.507 -4.401,-7.232 -5.271,-6.685C-6.142,-6.136 -6.708,-5.294 -6.968,-4.159C-4.11,-4.205 -2.15,-4.452 -1.089,-4.901C-0.363,-5.206 0,-5.655 0,-6.25M2.221,-6.296C2.221,-5.268 1.639,-4.486 0.475,-3.953C-1.005,-3.268 -3.528,-2.898 -7.094,-2.845C-7.094,-1.474 -6.803,-0.478 -6.221,0.143C-5.64,0.764 -4.659,1.074 -3.281,1.074C-1.932,1.074 -0.461,0.686 1.132,-0.092L0.782,1.6C-0.475,2.339 -2.029,2.708 -3.882,2.708C-5.781,2.708 -7.18,2.241 -8.078,1.309C-8.977,0.375 -9.426,-0.808 -9.426,-2.239C-9.426,-4.35 -8.674,-5.996 -7.171,-7.181C-5.667,-8.365 -3.934,-8.958 -1.969,-8.958C-0.777,-8.958 0.219,-8.722 1.02,-8.249C1.82,-7.777 2.221,-7.126 2.221,-6.296" style="fill:white;fill-rule:nonzero;"/>
            </g>
        </g>
    </g>
</svg>
