<?xml version="1.0" encoding="UTF-8" standalone="no"?>
<!DOCTYPE svg PUBLIC "-//W3C//DTD SVG 1.1//EN" "http://www.w3.org/Graphics/SVG/1.1/DTD/svg11.dtd">
<svg width="100%" height="100%" viewBox="0 0 11263 3192" version="1.1" xmlns="http://www.w3.org/2000/svg" xmlns:xlink="http://www.w3.org/1999/xlink" xml:space="preserve" xmlns:serif="http://www.serif.com/" style="fill-rule:evenodd;clip-rule:evenodd;stroke-linejoin:round;stroke-miterlimit:1.41421;">
    <g transform="matrix(4.16667,0,0,4.16667,0,0)">
        <path d="M0,612.983L343.387,276.384L499.482,429.402L156.096,766L0,612.983Z" style="fill:rgb(54,95,172);fill-rule:nonzero;"/>
        <path d="M156.072,459.99L390.204,322.267L343.387,276.384L156.072,459.99Z" style="fill:rgb(22,70,154);fill-rule:nonzero;"/>
        <path d="M0,306.949L312.192,0.926L468.262,153.943L156.096,459.942L0,306.949Z" style="fill:rgb(106,131,193);fill-rule:nonzero;"/>
        <path d="M2668.48,325.806L2701.83,284.71C2672.78,255.369 2629.14,237.335 2586.34,237.335C2496.95,237.335 2428.09,302.319 2428.09,387.445C2428.09,472.569 2496.12,538.813 2584.21,538.813C2627.42,538.813 2671.47,518.695 2702.25,488.058L2668.48,451.168C2646.23,472.569 2615.89,485.973 2587.21,485.973C2530.74,485.973 2486.7,441.932 2486.7,386.62C2486.7,330.823 2530.74,287.655 2587.21,287.655C2616.71,287.655 2647.08,301.906 2668.48,325.806Z" style="fill:white;fill-rule:nonzero;"/>
        <path d="M2303.21,241.13L2303.21,443.653L2148.81,241.13L2094.47,241.13L2094.47,534.644L2150.51,534.644L2150.51,332.52L2304.49,534.644L2358.81,534.644L2358.81,241.13L2303.21,241.13Z" style="fill:white;fill-rule:nonzero;"/>
        <path d="M2038.29,241.13L1980.5,241.13L1900.13,379.082L1818.39,241.13L1760.25,241.13L1871.86,440.721L1871.86,534.644L1929.19,534.644L1929.19,438.588L2038.29,241.13Z" style="fill:white;fill-rule:nonzero;"/>
        <path d="M1697.83,316.584L1720.91,267.537C1692.25,249.08 1652.5,236.511 1612.71,236.511C1545.57,236.511 1500.65,269.634 1500.65,321.201C1500.65,426.856 1661.47,391.65 1661.47,453.713C1661.47,474.654 1642.23,487.234 1610.14,487.234C1578.07,487.234 1537.44,470.898 1506.64,443.217L1482.69,491.016C1514.76,519.108 1561.39,537.965 1609.29,537.965C1675.14,537.965 1723.91,505.705 1723.91,450.757C1724.37,344.263 1563.53,376.962 1563.53,316.159C1563.53,297.714 1581.05,287.655 1608,287.655C1631.1,287.655 1665.76,297.302 1697.83,316.584Z" style="fill:white;fill-rule:nonzero;"/>
        <path d="M1450.96,241.552L1420.18,241.552L1321.38,399.224L1220.43,241.552L1189.64,241.552L1306.38,430.249L1306.38,534.644L1335.93,534.644L1335.93,430.249L1450.96,241.552Z" style="fill:white;fill-rule:nonzero;"/>
        <path d="M1158.28,534.644L1029.53,369.435L1149.74,241.13L1113.8,241.13L947.845,419.754L947.845,241.13L918.334,241.13L918.334,534.644L947.845,534.644L947.845,456.645L1008.59,392.074L1121.92,534.644L1158.28,534.644Z" style="fill:white;fill-rule:nonzero;"/>
        <path d="M804.814,289.315L817.636,264.579C793.252,249.067 758.604,238.595 725.238,238.595C664.084,238.595 623.026,267.513 623.026,312.378C623.026,418.882 793.688,374.864 793.252,459.14C793.252,490.143 764.602,509.461 718.841,509.461C685.053,509.461 646.974,494.359 620.021,468.352L606.337,492.253C634.139,518.695 676.06,536.705 718.403,536.705C782.138,536.705 825.756,505.679 825.756,457.881C826.192,350.13 655.529,392.462 655.529,310.294C655.529,283.024 682.482,265.84 723.531,265.84C747.914,265.84 779.133,273.39 804.814,289.315Z" style="fill:white;fill-rule:nonzero;"/>
    </g>
</svg>
