<?xml version="1.0" encoding="UTF-8" standalone="no"?>
<!DOCTYPE svg PUBLIC "-//W3C//DTD SVG 1.1//EN" "http://www.w3.org/Graphics/SVG/1.1/DTD/svg11.dtd">
<svg width="100%" height="100%" viewBox="0 0 185 102" version="1.1" xmlns="http://www.w3.org/2000/svg" xmlns:xlink="http://www.w3.org/1999/xlink" xml:space="preserve" xmlns:serif="http://www.serif.com/" style="fill-rule:evenodd;clip-rule:evenodd;stroke-linejoin:round;stroke-miterlimit:2;">
    <g transform="matrix(1,0,0,1,-10813.6,-13362.2)">
        <g transform="matrix(0.179592,0,0,0.12771,7063.28,13362.2)">
            <g transform="matrix(5.57889,0,0,5.55783,-48566.1,-73978.9)">
                <rect x="12448.5" y="13377.8" width="183.969" height="47.507" style="fill:rgb(56,56,56);"/>
            </g>
            <g transform="matrix(5.57889,0,0,5.55783,-48566.1,-73819.3)">
                <rect x="12448.5" y="13377.8" width="183.969" height="47.507" style="fill:rgb(95,95,95);"/>
            </g>
            <g transform="matrix(5.57889,0,0,0.750023,-48566.1,-9302.01)">
                <rect x="12448.5" y="13377.8" width="183.969" height="47.507" style="fill:rgb(62,62,62);"/>
            </g>
            <g transform="matrix(5.57889,0,0,0.750023,-48566.1,-10033.6)">
                <rect x="12448.5" y="13377.8" width="183.969" height="47.507" style="fill:rgb(91,91,91);"/>
            </g>
            <g transform="matrix(5.57889,0,0,3.98922,-48566.1,-53246)">
                <rect x="12448.5" y="13377.8" width="183.969" height="47.507" style="fill:rgb(54,54,54);"/>
            </g>
            <g transform="matrix(5.57889,0,0,2.23616,-48566.1,-29882.3)">
                <rect x="12448.5" y="13377.8" width="183.969" height="47.507" style="fill:rgb(42,42,42);"/>
            </g>
            <g transform="matrix(5.57889,0,0,1.58862,-48566.1,-20808.2)">
                <rect x="12448.5" y="13377.8" width="183.969" height="47.507" style="fill:rgb(64,64,64);"/>
            </g>
            <g transform="matrix(5.57889,0,0,4.70616,-48566.1,-62445.1)">
                <rect x="12448.5" y="13377.8" width="183.969" height="47.507" style="fill:rgb(41,41,41);"/>
            </g>
            <g transform="matrix(5.57889,0,0,4.47663,-48566.1,-59624)">
                <rect x="12448.5" y="13377.8" width="183.969" height="47.507" style="fill:rgb(12,12,12);"/>
            </g>
            <g transform="matrix(5.57889,0,0,2.77314,-48566.1,-36461.9)">
                <rect x="12448.5" y="13377.8" width="183.969" height="47.507" style="fill:rgb(12,12,12);"/>
            </g>
            <g transform="matrix(6.05715,0,0,8.51786,-54313.8,-113938)">
                <text x="12475.9px" y="13424px" style="font-family:'AvenirNext-Regular', 'Avenir Next', sans-serif;font-size:12px;fill:white;">Ar<tspan x="12488.4px 12494.4px " y="13424px 13424px ">ch</tspan>ived</text>
            </g>
        </g>
    </g>
</svg>
