<?xml version="1.0" encoding="UTF-8"?>
<svg width="250px" height="180px" viewBox="0 0 250 180" version="1.1" xmlns="http://www.w3.org/2000/svg" xmlns:xlink="http://www.w3.org/1999/xlink">
    <!-- Generator: Sketch 43.2 (39069) - http://www.bohemiancoding.com/sketch -->
    <title>video copy 5</title>
    <desc>Created with Sketch.</desc>
    <defs></defs>
    <g id="telegration" stroke="none" stroke-width="1" fill="none" fill-rule="evenodd">
        <g id="video-copy-5" transform="translate(0.000000, 0.000000)">
            <rect id="Rectangle-3-Copy-12" fill="#FFFFFF" x="0" y="0" width="250" height="180"></rect>
            <g id="video-player-2-copy" transform="translate(75.000000, 42.000000)">
                <g id="Capa_1">
                    <g id="Group">
                        <path d="M37.2321273,43.7556545 C37.4857636,43.8943091 37.7664545,43.9636364 38.0454545,43.9636364 C38.3616545,43.9636364 38.6761636,43.8740182 38.9534727,43.6998545 L57.5534727,31.8634909 C58.0404545,31.5523636 58.3363636,31.0146545 58.3363636,30.4363636 C58.3363636,29.8580727 58.0404545,29.3203636 57.5534727,29.0092364 L38.9534727,17.1728727 C38.4292909,16.8431455 37.7749091,16.8211636 37.2304364,17.1170727 C36.6910364,17.4146727 36.3545455,17.9828182 36.3545455,18.6 L36.3545455,42.2727273 C36.3545455,42.8899091 36.6910364,43.4580545 37.2321273,43.7556545 L37.2321273,43.7556545 Z M39.7363636,21.6791455 L53.4969818,30.4363636 L39.7363636,39.1935818 L39.7363636,21.6791455 L39.7363636,21.6791455 Z" id="Shape" fill="#78be20"></path>
                        <path d="M0.845454545,0 L0.845454545,93 L92.1545455,93 L92.1545455,0 L0.845454545,0 L0.845454545,0 Z M88.7727273,3.38181818 L88.7727273,59.1818182 L4.22727273,59.1818182 L4.22727273,3.38181818 L88.7727273,3.38181818 L88.7727273,3.38181818 Z M4.22727273,89.6181818 L4.22727273,62.5636364 L88.7727273,62.5636364 L88.7727273,89.6181818 L4.22727273,89.6181818 L4.22727273,89.6181818 Z" id="Shape" fill="#6D7077"></path>
                        <path d="M80.3181818,74.4 L39.7363636,74.4 L39.7363636,71.0181818 C39.7363636,70.0831091 38.9805273,69.3272727 38.0454545,69.3272727 C37.1103818,69.3272727 36.3545455,70.0831091 36.3545455,71.0181818 L36.3545455,74.4 L29.5909091,74.4 C28.6558364,74.4 27.9,75.1558364 27.9,76.0909091 C27.9,77.0259818 28.6558364,77.7818182 29.5909091,77.7818182 L36.3545455,77.7818182 L36.3545455,81.1636364 C36.3545455,82.0987091 37.1103818,82.8545455 38.0454545,82.8545455 C38.9805273,82.8545455 39.7363636,82.0987091 39.7363636,81.1636364 L39.7363636,77.7818182 L80.3181818,77.7818182 C81.2532545,77.7818182 82.0090909,77.0259818 82.0090909,76.0909091 C82.0090909,75.1558364 81.2532545,74.4 80.3181818,74.4 L80.3181818,74.4 Z" id="Shape" fill="#78be20"></path>
                        <path d="M12.6818182,69.3272727 C11.7467455,69.3272727 10.9909091,70.0831091 10.9909091,71.0181818 L10.9909091,81.1636364 C10.9909091,82.0987091 11.7467455,82.8545455 12.6818182,82.8545455 C13.6168909,82.8545455 14.3727273,82.0987091 14.3727273,81.1636364 L14.3727273,71.0181818 C14.3727273,70.0831091 13.6168909,69.3272727 12.6818182,69.3272727 L12.6818182,69.3272727 Z" id="Shape" fill="#78be20"></path>
                        <path d="M19.4454545,69.3272727 C18.5103818,69.3272727 17.7545455,70.0831091 17.7545455,71.0181818 L17.7545455,81.1636364 C17.7545455,82.0987091 18.5103818,82.8545455 19.4454545,82.8545455 C20.3805273,82.8545455 21.1363636,82.0987091 21.1363636,81.1636364 L21.1363636,71.0181818 C21.1363636,70.0831091 20.3805273,69.3272727 19.4454545,69.3272727 L19.4454545,69.3272727 Z" id="Shape" fill="#78be20"></path>
                    </g>
                </g>
            </g>
        </g>
    </g>
</svg>