<?xml version="1.0" encoding="UTF-8"?>
<svg width="250px" height="180px" viewBox="0 0 250 180" version="1.1" xmlns="http://www.w3.org/2000/svg" xmlns:xlink="http://www.w3.org/1999/xlink">
    <!-- Generator: Sketch 43.2 (39069) - http://www.bohemiancoding.com/sketch -->
    <title>event copy 5</title>
    <desc>Created with Sketch.</desc>
    <defs></defs>
    <g id="telegration" stroke="none" stroke-width="1" fill="none" fill-rule="evenodd">
        <g id="event-copy-5">
            <rect id="Rectangle-3-Copy-9" fill="#FFFFFF" x="0" y="0" width="250" height="180"></rect>
            <g id="calendar-6-copy" transform="translate(76.000000, 40.000000)">
                <g id="Capa_1">
                    <g id="Group">
                        <path d="M73.2241552,7.68103448 C72.4304483,3.79101724 68.9842241,0.853448276 64.862069,0.853448276 C63.9181552,0.853448276 63.1551724,1.61643103 63.1551724,2.56034483 C63.1551724,3.50425862 63.9181552,4.26724138 64.862069,4.26724138 C67.6852759,4.26724138 69.9827586,6.56472414 69.9827586,9.38793103 C69.9827586,12.2111379 67.6852759,14.5086207 64.862069,14.5086207 C63.9181552,14.5086207 63.1551724,15.2716034 63.1551724,16.2155172 C63.1551724,17.159431 63.9181552,17.9224138 64.862069,17.9224138 C68.9825172,17.9224138 72.4304483,14.9848448 73.2241552,11.0948276 L95.5862069,11.0948276 L95.5862069,26.4568966 L3.4137931,26.4568966 L3.4137931,11.0948276 L27.3103448,11.0948276 L32.4310345,11.0948276 C33.3749483,11.0948276 34.137931,10.3318448 34.137931,9.38793103 C34.137931,8.44401724 33.3749483,7.68103448 32.4310345,7.68103448 L29.3313103,7.68103448 C30.0379655,5.69762069 31.9155517,4.26724138 34.137931,4.26724138 C36.9611379,4.26724138 39.2586207,6.56472414 39.2586207,9.38793103 C39.2586207,12.2111379 36.9611379,14.5086207 34.137931,14.5086207 C33.1940172,14.5086207 32.4310345,15.2716034 32.4310345,16.2155172 C32.4310345,17.159431 33.1940172,17.9224138 34.137931,17.9224138 C38.8438448,17.9224138 42.6724138,14.0938448 42.6724138,9.38793103 C42.6724138,4.68201724 38.8438448,0.853448276 34.137931,0.853448276 C30.0174828,0.853448276 26.5695517,3.79101724 25.7758448,7.68103448 L0,7.68103448 L0,29.8706897 L0,98.1465517 L99,98.1465517 L99,29.8706897 L99,7.68103448 L73.2241552,7.68103448 L73.2241552,7.68103448 Z M95.5862069,94.7327586 L3.4137931,94.7327586 L3.4137931,29.8706897 L95.5862069,29.8706897 L95.5862069,94.7327586 L95.5862069,94.7327586 Z" id="Shape" fill="#6A8598"></path>
                        <path d="M44.3793103,4.26724138 C47.2025172,4.26724138 49.5,6.56472414 49.5,9.38793103 C49.5,12.2111379 47.2025172,14.5086207 44.3793103,14.5086207 C43.4353966,14.5086207 42.6724138,15.2716034 42.6724138,16.2155172 C42.6724138,17.159431 43.4353966,17.9224138 44.3793103,17.9224138 C49.0852241,17.9224138 52.9137931,14.0938448 52.9137931,9.38793103 C52.9137931,4.68201724 49.0852241,0.853448276 44.3793103,0.853448276 C43.4353966,0.853448276 42.6724138,1.61643103 42.6724138,2.56034483 C42.6724138,3.50425862 43.4353966,4.26724138 44.3793103,4.26724138 L44.3793103,4.26724138 Z" id="Shape" fill="#6A8598"></path>
                        <path d="M54.6206897,4.26724138 C57.4438966,4.26724138 59.7413793,6.56472414 59.7413793,9.38793103 C59.7413793,12.2111379 57.4438966,14.5086207 54.6206897,14.5086207 C53.6767759,14.5086207 52.9137931,15.2716034 52.9137931,16.2155172 C52.9137931,17.159431 53.6767759,17.9224138 54.6206897,17.9224138 C59.3266034,17.9224138 63.1551724,14.0938448 63.1551724,9.38793103 C63.1551724,4.68201724 59.3266034,0.853448276 54.6206897,0.853448276 C53.6767759,0.853448276 52.9137931,1.61643103 52.9137931,2.56034483 C52.9137931,3.50425862 53.6767759,4.26724138 54.6206897,4.26724138 L54.6206897,4.26724138 Z" id="Shape" fill="#6A8598"></path>
                        <circle id="Oval" fill="#FF9696" cx="37.5517241" cy="41.8189655" r="1.70689655"></circle>
                        <circle id="Oval" fill="#FF9696" cx="49.5" cy="41.8189655" r="1.70689655"></circle>
                        <circle id="Oval" fill="#FF9696" cx="61.4482759" cy="41.8189655" r="1.70689655"></circle>
                        <circle id="Oval" fill="#FF9696" cx="73.3965517" cy="41.8189655" r="1.70689655"></circle>
                        <circle id="Oval" fill="#FF9696" cx="85.3448276" cy="41.8189655" r="1.70689655"></circle>
                        <circle id="Oval" fill="#FF9696" cx="13.6551724" cy="55.4741379" r="1.70689655"></circle>
                        <circle id="Oval" fill="#FF9696" cx="25.6034483" cy="55.4741379" r="1.70689655"></circle>
                        <circle id="Oval" fill="#FF9696" cx="37.5517241" cy="55.4741379" r="1.70689655"></circle>
                        <circle id="Oval" fill="#FF9696" cx="49.5" cy="55.4741379" r="1.70689655"></circle>
                        <circle id="Oval" fill="#FF9696" cx="61.4482759" cy="55.4741379" r="1.70689655"></circle>
                        <circle id="Oval" fill="#FF9696" cx="73.3965517" cy="55.4741379" r="1.70689655"></circle>
                        <circle id="Oval" fill="#FF9696" cx="85.3448276" cy="55.4741379" r="1.70689655"></circle>
                        <circle id="Oval" fill="#FF9696" cx="13.6551724" cy="67.4224138" r="1.70689655"></circle>
                        <circle id="Oval" fill="#FF9696" cx="25.6034483" cy="67.4224138" r="1.70689655"></circle>
                        <circle id="Oval" fill="#FF9696" cx="37.5517241" cy="67.4224138" r="1.70689655"></circle>
                        <circle id="Oval" fill="#FF9696" cx="49.5" cy="67.4224138" r="1.70689655"></circle>
                        <circle id="Oval" fill="#FF9696" cx="61.4482759" cy="67.4224138" r="1.70689655"></circle>
                        <circle id="Oval" fill="#FF9696" cx="73.3965517" cy="67.4224138" r="1.70689655"></circle>
                        <circle id="Oval" fill="#FF9696" cx="85.3448276" cy="67.4224138" r="1.70689655"></circle>
                        <circle id="Oval" fill="#FF9696" cx="13.6551724" cy="81.0775862" r="1.70689655"></circle>
                        <circle id="Oval" fill="#FF9696" cx="25.6034483" cy="81.0775862" r="1.70689655"></circle>
                        <circle id="Oval" fill="#FF9696" cx="37.5517241" cy="81.0775862" r="1.70689655"></circle>
                        <circle id="Oval" fill="#FF9696" cx="49.5" cy="81.0775862" r="1.70689655"></circle>
                        <circle id="Oval" fill="#FF9696" cx="61.4482759" cy="81.0775862" r="1.70689655"></circle>
                    </g>
                </g>
            </g>
        </g>
    </g>
</svg>