<?xml version="1.0" encoding="UTF-8"?>
<svg width="250px" height="180px" viewBox="0 0 250 180" version="1.1" xmlns="http://www.w3.org/2000/svg" xmlns:xlink="http://www.w3.org/1999/xlink">
    <!-- Generator: Sketch 43.2 (39069) - http://www.bohemiancoding.com/sketch -->
    <title>scorm copy 6</title>
    <desc>Created with Sketch.</desc>
    <defs></defs>
    <g id="telegration" stroke="none" stroke-width="1" fill="none" fill-rule="evenodd">
        <g id="scorm-copy-6">
            <rect id="Rectangle-3-Copy-10" fill="#FFFFFF" x="0" y="0" width="250" height="180"></rect>
            <g id="archive-copy" transform="translate(87.000000, 52.000000)">
                <g id="Capa_1">
                    <g id="Group">
                        <path d="M72,9.9732 C72,9.7344 71.9376,9.5148 71.8428,9.312 C71.8104,9.0612 71.7084,8.8176 71.538,8.6172 L64.152,0 L7.848,0 L0.4608,8.6184 C0.2904,8.8176 0.1884,9.06 0.1572,9.312 C0.0624,9.5148 0,9.7344 0,9.9732 L0,22.8 L3.6,22.8 L3.6,72 L68.4,72 L68.4,22.8 L72,22.8 L72,9.9732 L72,9.9732 Z M8.952,2.4 L63.048,2.4 L68.1912,8.4 L3.8088,8.4 L8.952,2.4 L8.952,2.4 Z M66,69.6 L6,69.6 L6,22.8 L66,22.8 L66,69.6 L66,69.6 Z M69.6,20.4 L68.4,20.4 L3.6,20.4 L2.4,20.4 L2.4,10.8 L69.6,10.8 L69.6,20.4 L69.6,20.4 Z" id="Shape" fill="#6D7077"></path>
                        <path d="M50.4,27.6 L21.6,27.6 L21.6,39.6 L50.4,39.6 L50.4,27.6 L50.4,27.6 Z M48,37.2 L24,37.2 L24,30 L48,30 L48,37.2 L48,37.2 Z" id="Shape" fill="#8FB300"></path>
                        <path d="M54,45.6 L18,45.6 L18,62.4 L54,62.4 L54,45.6 L54,45.6 Z M51.6,60 L20.4,60 L20.4,48 L51.6,48 L51.6,60 L51.6,60 Z" id="Shape" fill="#8FB300"></path>
                        <path d="M26.4,57.6 L32.4,57.6 C33.0624,57.6 33.6,57.0636 33.6,56.4 C33.6,55.7364 33.0624,55.2 32.4,55.2 L26.4,55.2 C25.7376,55.2 25.2,55.7364 25.2,56.4 C25.2,57.0636 25.7376,57.6 26.4,57.6 L26.4,57.6 Z" id="Shape" fill="#8FB300"></path>
                        <path d="M32.4,52.8 L45.6,52.8 C46.2624,52.8 46.8,52.2636 46.8,51.6 C46.8,50.9364 46.2624,50.4 45.6,50.4 L32.4,50.4 C31.7376,50.4 31.2,50.9364 31.2,51.6 C31.2,52.2636 31.7376,52.8 32.4,52.8 L32.4,52.8 Z" id="Shape" fill="#8FB300"></path>
                        <path d="M26.4,52.8 C26.712,52.8 27.024,52.668 27.252,52.452 C27.468,52.224 27.6,51.912 27.6,51.6 C27.6,51.2868 27.468,50.9748 27.252,50.748 C26.796,50.304 26.004,50.304 25.548,50.748 C25.332,50.9748 25.2,51.2868 25.2,51.6 C25.2,51.924 25.332,52.224 25.548,52.452 C25.776,52.668 26.076,52.8 26.4,52.8 L26.4,52.8 Z" id="Shape" fill="#8FB300"></path>
                        <path d="M37.548,55.548 C37.332,55.7748 37.2,56.0868 37.2,56.4 C37.2,56.712 37.332,57.024 37.548,57.252 C37.776,57.468 38.088,57.6 38.4,57.6 C38.712,57.6 39.024,57.468 39.252,57.252 C39.468,57.024 39.6,56.712 39.6,56.4 C39.6,56.0868 39.468,55.7748 39.252,55.548 C38.808,55.104 37.992,55.104 37.548,55.548 L37.548,55.548 Z" id="Shape" fill="#8FB300"></path>
                        <path d="M45.6,55.2 L44.4,55.2 C43.7376,55.2 43.2,55.7364 43.2,56.4 C43.2,57.0636 43.7376,57.6 44.4,57.6 L45.6,57.6 C46.2624,57.6 46.8,57.0636 46.8,56.4 C46.8,55.7364 46.2624,55.2 45.6,55.2 L45.6,55.2 Z" id="Shape" fill="#8FB300"></path>
                    </g>
                </g>
            </g>
        </g>
    </g>
</svg>