<?xml version="1.0" encoding="UTF-8" standalone="no"?><!DOCTYPE svg PUBLIC "-//W3C//DTD SVG 1.1//EN" "http://www.w3.org/Graphics/SVG/1.1/DTD/svg11.dtd"><svg width="100%" height="100%" viewBox="0 0 251 181" version="1.1" xmlns="http://www.w3.org/2000/svg" xmlns:xlink="http://www.w3.org/1999/xlink" xml:space="preserve" xmlns:serif="http://www.serif.com/" style="fill-rule:evenodd;clip-rule:evenodd;stroke-linejoin:round;stroke-miterlimit:1.41421;"><g id="spark"><rect id="Rectangle-3-Copy-11" x="0.209" y="0.2" width="250" height="180" style="fill:none;"/><path id="Fill-1" d="M177.619,88.298l-21.789,1.6l0,-19.036c0,-1.859 -2.061,-2.971 -3.607,-1.948l-13.524,8.954l-6.476,-33.613c-0.432,-2.241 -3.484,-2.59 -4.408,-0.505l-13.442,30.338l-21.12,-14.776c-1.742,-1.218 -4.066,0.349 -3.599,2.427l6.561,29.19l-17.735,3.832c-1.871,0.404 -2.481,2.776 -1.039,4.039l12.607,11.033l-11.306,8.935l21.228,0l6.016,-4.755l-8.589,-7.515l11.877,-2.566l-4.202,-18.697l13.887,9.714l8.771,-19.796l4.203,21.813l9.136,-6.049l0,12.465l14.984,-1.1l-12.608,12.464l6.378,4.022l22.452,0l-11.991,-7.561l19.137,-18.92c1.541,-1.523 0.356,-4.147 -1.802,-3.989Z" style="fill:#b3b3b3;"/><path id="Fill-3" d="M75.116,130.199l101.148,0c1.606,0 2.907,-1.305 2.907,-2.916l0,-1.166c0,-1.611 -1.301,-2.916 -2.907,-2.916l-101.148,0c-1.605,0 -2.907,1.306 -2.907,2.916l0,1.166c0,1.611 1.302,2.916 2.907,2.916Z" style="fill:#47A8CF;"/></g></svg>