<?xml version="1.0" encoding="UTF-8" standalone="no"?><!DOCTYPE svg PUBLIC "-//W3C//DTD SVG 1.1//EN" "http://www.w3.org/Graphics/SVG/1.1/DTD/svg11.dtd"><svg width="100%" height="100%" viewBox="0 0 251 181" version="1.1" xmlns="http://www.w3.org/2000/svg" xmlns:xlink="http://www.w3.org/1999/xlink" xml:space="preserve" xmlns:serif="http://www.serif.com/" style="fill-rule:evenodd;clip-rule:evenodd;stroke-linejoin:round;stroke-miterlimit:1.41421;"><g><rect id="rect-0" x="0.165" y="0.056" width="250" height="180" style="fill:none;"/><g><path id="path-1" d="M128.468,53.555c0.462,0 0.829,0.167 1.012,0.272c0.305,0.176 1.018,0.698 1.018,1.756l0,71.112c0,1.057 -0.713,1.58 -1.019,1.756c-0.185,0.105 -0.553,0.271 -1.015,0.271c-0.263,0 -0.557,-0.054 -0.865,-0.203l-24.28,-22.605c-0.099,-0.094 -0.207,-0.174 -0.323,-0.24c-0.874,-0.516 -1.87,-0.785 -2.882,-0.785l-15.259,0c-1.116,0 -2.024,-0.908 -2.024,-2.024l0,-23.452c0,-1.117 0.908,-2.024 2.024,-2.024l15.261,0c1.01,0 2.007,-0.27 2.882,-0.785c0.115,-0.066 0.224,-0.146 0.323,-0.24l24.28,-22.605c0.309,-0.15 0.604,-0.204 0.867,-0.204Zm0.006,-3.67c-0.992,0 -1.984,0.265 -2.886,0.796c-0.115,0.068 -0.222,0.148 -0.319,0.24l-24.277,22.601c-0.275,0.132 -0.574,0.2 -0.878,0.2l-15.259,0c-3.138,0 -5.69,2.554 -5.69,5.691l0,23.454c0,3.135 2.552,5.689 5.69,5.689l15.261,0c0.304,0 0.603,0.067 0.878,0.199l24.277,22.602c0.097,0.091 0.205,0.172 0.319,0.24c0.902,0.53 1.894,0.796 2.886,0.796c0.97,0 1.939,-0.253 2.825,-0.761c1.793,-1.027 2.864,-2.871 2.864,-4.937l0,-71.112c0,-2.066 -1.071,-3.91 -2.866,-4.937c-0.887,-0.508 -1.856,-0.761 -2.825,-0.761Z" style="fill:#b3b3b3;fill-rule:nonzero;"/><path id="path-2" d="M147.453,68.759c-0.717,-0.716 -1.876,-0.716 -2.593,0c-0.717,0.717 -0.717,1.876 0,2.593c11.437,11.436 11.437,30.048 0,41.484c-0.717,0.717 -0.717,1.876 0,2.593c0.358,0.357 0.827,0.537 1.296,0.537c0.47,0 0.939,-0.18 1.297,-0.537c12.866,-12.868 12.866,-33.801 0,-46.67Z" style="fill:#fe9394;fill-rule:nonzero;"/><path id="path-3" d="M140.961,74.259c-0.717,-0.716 -1.876,-0.716 -2.593,0c-0.716,0.717 -0.716,1.876 0,2.593c7.878,7.878 7.878,20.696 0,28.574c-0.716,0.717 -0.716,1.876 0,2.592c0.358,0.358 0.827,0.538 1.297,0.538c0.469,0 0.938,-0.18 1.296,-0.538c9.308,-9.307 9.308,-24.451 0,-33.759Z" style="fill:#fe9394;fill-rule:nonzero;"/><path id="path-4" d="M152.833,59.593c-0.716,-0.717 -1.875,-0.717 -2.592,0c-0.717,0.717 -0.717,1.875 0,2.592c7.986,7.984 12.384,18.594 12.384,29.871c0,11.276 -4.398,21.886 -12.384,29.87c-0.717,0.717 -0.717,1.876 0,2.592c0.358,0.358 0.827,0.538 1.296,0.538c0.47,0 0.939,-0.18 1.296,-0.538c8.679,-8.677 13.459,-20.205 13.459,-32.462c0,-12.258 -4.78,-23.786 -13.459,-32.463Z" style="fill:#fe9394;fill-rule:nonzero;"/></g></g></svg>