<?xml version="1.0" encoding="UTF-8" standalone="no"?><!DOCTYPE svg PUBLIC "-//W3C//DTD SVG 1.1//EN" "http://www.w3.org/Graphics/SVG/1.1/DTD/svg11.dtd"><svg width="100%" height="100%" viewBox="0 0 251 181" version="1.1" xmlns="http://www.w3.org/2000/svg" xmlns:xlink="http://www.w3.org/1999/xlink" xml:space="preserve" xmlns:serif="http://www.serif.com/" style="fill-rule:evenodd;clip-rule:evenodd;stroke-linejoin:round;stroke-miterlimit:1.41421;"><g id="custom"><rect id="Rectangle-3-Copy-6" x="0.013" y="0.076" width="250" height="180" style="fill:none;"/><g id="school-material"><path id="Shape" d="M132.262,44.076l-21.7,0c-4.273,0 -7.75,3.477 -7.75,7.75l0,55.8c0,0.856 0.693,1.55 1.55,1.55l9.3,0c0.857,0 1.55,-0.694 1.55,-1.55c0,-0.855 -0.693,-1.55 -1.55,-1.55l-7.75,0l0,-3.1l1.55,0c0.857,0 1.55,-0.694 1.55,-1.55c0,-0.855 -0.693,-1.55 -1.55,-1.55l-1.55,0l0,-3.1l1.55,0c0.857,0 1.55,-0.694 1.55,-1.55c0,-0.855 -0.693,-1.55 -1.55,-1.55l-1.55,0l0,-3.1l1.55,0c0.857,0 1.55,-0.694 1.55,-1.55c0,-0.855 -0.693,-1.55 -1.55,-1.55l-1.55,0l0,-3.1l7.75,0c0.857,0 1.55,-0.694 1.55,-1.55c0,-0.855 -0.693,-1.55 -1.55,-1.55l-7.75,0l0,-3.1l1.55,0c0.857,0 1.55,-0.694 1.55,-1.55c0,-0.855 -0.693,-1.55 -1.55,-1.55l-1.55,0l0,-3.1l1.55,0c0.857,0 1.55,-0.694 1.55,-1.55c0,-0.855 -0.693,-1.55 -1.55,-1.55l-1.55,0l0,-3.1l1.55,0c0.857,0 1.55,-0.694 1.55,-1.55c0,-0.855 -0.693,-1.55 -1.55,-1.55l-1.55,0l0,-3.1l7.75,0c0.857,0 1.55,-0.694 1.55,-1.55c0,-0.856 -0.693,-1.55 -1.55,-1.55l-7.75,0l0,-4.65c0,-2.564 2.086,-4.65 4.65,-4.65l21.7,0c2.564,0 4.65,2.086 4.65,4.65l0,77.5c0,2.564 -2.086,4.65 -4.65,4.65l-21.7,0c-2.563,0 -4.65,-2.086 -4.65,-4.65l0,-15.5c0,-0.856 -0.693,-1.55 -1.55,-1.55c-0.857,0 -1.55,0.694 -1.55,1.55l0,15.5c0,4.273 3.477,7.75 7.75,7.75l21.701,0c4.273,0 7.75,-3.477 7.75,-7.75l0,-77.5c-0.001,-4.273 -3.477,-7.75 -7.751,-7.75Z" style="fill:#b3b3b3;fill-rule:nonzero;"/><path id="Shape1" serif:id="Shape" d="M84.214,64.224l0,55.8c0,0.856 0.693,1.55 1.55,1.55c0.857,0 1.55,-0.694 1.55,-1.55l0,-55.8c0,-0.855 -0.693,-1.549 -1.55,-1.549c-0.857,0 -1.55,0.694 -1.55,1.549Z" style="fill:#b3b3b3;fill-rule:nonzero;"/><path id="Shape2" serif:id="Shape" d="M87.15,44.932c-0.526,-1.051 -2.246,-1.051 -2.773,0l-6.201,12.4c-0.107,0.214 -0.162,0.452 -0.162,0.692l0,71.3c0,4.274 3.476,7.75 7.75,7.75c4.273,0 7.75,-3.476 7.75,-7.75l0,-3.1c0,-0.855 -0.693,-1.55 -1.55,-1.55l-6.2,0c-0.857,0 -1.55,0.695 -1.55,1.55c0,0.856 0.693,1.55 1.55,1.55l4.65,0l0,1.55c0,2.564 -2.087,4.65 -4.65,4.65c-2.564,0 -4.65,-2.086 -4.65,-4.65l0,-70.934l4.65,-9.3l3.692,7.384l-3.692,0c-0.857,0 -1.55,0.695 -1.55,1.55c0,0.856 0.693,1.55 1.55,1.55l4.65,0l0,60.45c0,0.856 0.693,1.55 1.55,1.55c0.857,0 1.55,-0.694 1.55,-1.55l0,-61.996l0,-0.028c-0.005,-0.251 -0.068,-0.489 -0.177,-0.696l-6.187,-12.372Z" style="fill:#b3b3b3;fill-rule:nonzero;"/><path id="Shape3" serif:id="Shape" d="M127.612,121.576c0,-3.419 -2.781,-6.2 -6.2,-6.2c-3.419,0 -6.2,2.781 -6.2,6.2c0,3.419 2.781,6.2 6.2,6.2c3.419,0 6.2,-2.781 6.2,-6.2Zm-9.3,0c0,-1.71 1.39,-3.1 3.1,-3.1c1.708,0 3.1,1.39 3.1,3.1c0,1.71 -1.392,3.1 -3.1,3.1c-1.709,0 -3.1,-1.39 -3.1,-3.1Z" style="fill:#fe9394;fill-rule:nonzero;"/><path id="Shape4" serif:id="Shape" d="M157.062,118.476c-0.857,0 -1.55,0.694 -1.55,1.55c0,0.855 0.693,1.55 1.55,1.55l12.4,0c0.857,0 1.55,-0.695 1.55,-1.55l0,-9.3c0,-4.273 -3.476,-7.75 -7.75,-7.75l-6.2,0c-4.273,0 -7.75,3.476 -7.75,7.75l0,18.6c0,4.273 3.477,7.75 7.75,7.75l6.2,0c4.273,0 7.75,-3.477 7.75,-7.75l0,-3.1c0,-0.856 -0.693,-1.55 -1.55,-1.55c-0.857,0 -1.55,0.694 -1.55,1.55l0,3.1c0,2.564 -2.086,4.65 -4.65,4.65l-6.2,0c-2.563,0 -4.65,-2.086 -4.65,-4.65l0,-18.6c0,-2.564 2.087,-4.65 4.65,-4.65l6.2,0c2.564,0 4.65,2.086 4.65,4.65l0,7.75l-10.85,0Z" style="fill:#b3b3b3;fill-rule:nonzero;"/></g></g></svg>