<?xml version="1.0" encoding="UTF-8" standalone="no"?><!DOCTYPE svg PUBLIC "-//W3C//DTD SVG 1.1//EN" "http://www.w3.org/Graphics/SVG/1.1/DTD/svg11.dtd"><svg width="100%" height="100%" viewBox="0 0 251 181" version="1.1" xmlns="http://www.w3.org/2000/svg" xmlns:xlink="http://www.w3.org/1999/xlink" xml:space="preserve" xmlns:serif="http://www.serif.com/" style="fill-rule:evenodd;clip-rule:evenodd;stroke-linejoin:round;stroke-miterlimit:1.41421;"><g><rect id="rect-0" x="0.013" y="0.2" width="250" height="180" style="fill:none;"/><g><path id="path-1" d="M133.284,56.638l13.673,13.762l-13.673,0l0,-13.762Zm-2.583,-1.838l0,18.2l18.083,0l0,54.6l-55.542,0l0,-72.8l37.459,0Zm-40.042,-2.6l0,78l60.708,0l0,-59.039l-18.84,-18.961l-41.868,0Z" style="fill:#b3b3b3;fill-rule:nonzero;"/><path id="path-2" d="M103.576,74.3l11.625,0c0.713,0 1.291,-0.582 1.291,-1.3c0,-0.719 -0.578,-1.3 -1.291,-1.3l-11.625,0c-0.713,0 -1.292,0.581 -1.292,1.3c0,0.718 0.579,1.3 1.292,1.3Z" style="fill:#fe9394;fill-rule:nonzero;"/><path id="path-3" d="M125.534,100.3l-21.958,0c-0.713,0 -1.292,0.581 -1.292,1.3c0,0.718 0.579,1.3 1.292,1.3l21.958,0c0.713,0 1.292,-0.582 1.292,-1.3c0,-0.719 -0.579,-1.3 -1.292,-1.3Z" style="fill:#fe9394;fill-rule:nonzero;"/><path id="path-4" d="M138.451,91.2l-9.042,0c-0.713,0 -1.292,0.581 -1.292,1.3c0,0.718 0.579,1.3 1.292,1.3l9.042,0c0.713,0 1.291,-0.582 1.291,-1.3c0,-0.719 -0.578,-1.3 -1.291,-1.3Z" style="fill:#fe9394;fill-rule:nonzero;"/><path id="path-5" d="M103.576,84.7l6.458,0c0.713,0 1.292,-0.582 1.292,-1.3c0,-0.719 -0.579,-1.3 -1.292,-1.3l-6.458,0c-0.713,0 -1.292,0.581 -1.292,1.3c0,0.718 0.579,1.3 1.292,1.3Z" style="fill:#fe9394;fill-rule:nonzero;"/><path id="path-6" d="M122.951,84.7l9.041,0c0.713,0 1.292,-0.582 1.292,-1.3c0,-0.719 -0.579,-1.3 -1.292,-1.3l-9.041,0c-0.713,0 -1.292,0.581 -1.292,1.3c0,0.718 0.579,1.3 1.292,1.3Z" style="fill:#fe9394;fill-rule:nonzero;"/><path id="path-7" d="M115.201,83.4c0,0.338 0.142,0.676 0.374,0.923c0.246,0.234 0.581,0.377 0.917,0.377c0.336,0 0.672,-0.143 0.917,-0.377c0.233,-0.247 0.375,-0.585 0.375,-0.923c0,-0.34 -0.142,-0.678 -0.375,-0.923c-0.478,-0.481 -1.343,-0.481 -1.834,0c-0.232,0.245 -0.374,0.583 -0.374,0.923Z" style="fill:#fe9394;fill-rule:nonzero;"/><path id="path-8" d="M110.034,91.2c-0.713,0 -1.292,0.581 -1.292,1.3c0,0.718 0.579,1.3 1.292,1.3l12.917,0c0.713,0 1.291,-0.582 1.291,-1.3c0,-0.719 -0.578,-1.3 -1.291,-1.3l-12.917,0Z" style="fill:#fe9394;fill-rule:nonzero;"/><path id="path-9" d="M103.576,93.8c0.335,0 0.671,-0.143 0.917,-0.377c0.232,-0.247 0.374,-0.585 0.374,-0.923c0,-0.34 -0.142,-0.678 -0.374,-0.923c-0.478,-0.481 -1.357,-0.481 -1.835,0c-0.232,0.245 -0.374,0.57 -0.374,0.923c0,0.338 0.142,0.676 0.374,0.923c0.246,0.234 0.582,0.377 0.918,0.377Z" style="fill:#fe9394;fill-rule:nonzero;"/><path id="path-10" d="M138.451,109.4l-9.042,0c-0.713,0 -1.292,0.581 -1.292,1.3c0,0.718 0.579,1.3 1.292,1.3l9.042,0c0.713,0 1.291,-0.582 1.291,-1.3c0,-0.719 -0.578,-1.3 -1.291,-1.3Z" style="fill:#fe9394;fill-rule:nonzero;"/><path id="path-11" d="M122.951,109.4l-12.917,0c-0.713,0 -1.292,0.581 -1.292,1.3c0,0.718 0.579,1.3 1.292,1.3l12.917,0c0.713,0 1.291,-0.582 1.291,-1.3c0,-0.719 -0.578,-1.3 -1.291,-1.3Z" style="fill:#fe9394;fill-rule:nonzero;"/><path id="path-12" d="M102.658,109.777c-0.232,0.234 -0.374,0.57 -0.374,0.923c0,0.351 0.129,0.676 0.374,0.923c0.246,0.234 0.582,0.377 0.918,0.377c0.348,0 0.671,-0.143 0.917,-0.377c0.232,-0.247 0.374,-0.585 0.374,-0.923c0,-0.353 -0.142,-0.678 -0.374,-0.91c-0.478,-0.494 -1.344,-0.494 -1.835,-0.013Z" style="fill:#fe9394;fill-rule:nonzero;"/><path id="path-13" d="M137.533,82.477c-0.232,0.245 -0.374,0.583 -0.374,0.923c0,0.338 0.142,0.676 0.374,0.923c0.246,0.234 0.582,0.377 0.918,0.377c0.335,0 0.671,-0.143 0.917,-0.377c0.245,-0.247 0.374,-0.585 0.374,-0.923c0,-0.34 -0.129,-0.678 -0.374,-0.923c-0.491,-0.481 -1.344,-0.481 -1.835,0Z" style="fill:#fe9394;fill-rule:nonzero;"/><path id="path-14" d="M132.909,102.523c0.233,-0.247 0.375,-0.585 0.375,-0.923c0,-0.34 -0.142,-0.678 -0.375,-0.923c-0.491,-0.481 -1.356,-0.481 -1.834,0c-0.232,0.245 -0.374,0.583 -0.374,0.923c0,0.338 0.142,0.676 0.374,0.923c0.246,0.245 0.568,0.377 0.917,0.377c0.349,0 0.672,-0.143 0.917,-0.377Z" style="fill:#fe9394;fill-rule:nonzero;"/><path id="path-15" d="M137.533,100.677c-0.232,0.245 -0.374,0.583 -0.374,0.923c0,0.338 0.142,0.676 0.374,0.923c0.246,0.234 0.569,0.377 0.918,0.377c0.348,0 0.671,-0.143 0.917,-0.377c0.232,-0.247 0.374,-0.585 0.374,-0.923c0,-0.34 -0.142,-0.678 -0.374,-0.923c-0.478,-0.481 -1.357,-0.481 -1.835,0Z" style="fill:#fe9394;fill-rule:nonzero;"/></g></g></svg>