<?xml version="1.0" encoding="UTF-8" standalone="no"?><!DOCTYPE svg PUBLIC "-//W3C//DTD SVG 1.1//EN" "http://www.w3.org/Graphics/SVG/1.1/DTD/svg11.dtd"><svg width="100%" height="100%" viewBox="0 0 251 181" version="1.1" xmlns="http://www.w3.org/2000/svg" xmlns:xlink="http://www.w3.org/1999/xlink" xml:space="preserve" xmlns:serif="http://www.serif.com/" style="fill-rule:evenodd;clip-rule:evenodd;stroke-linejoin:round;stroke-miterlimit:1.41421;"><g><rect id="rect-0" x="0.209" y="0.056" width="250" height="180" style="fill:none;"/><g><path id="path-1" d="M114.945,63.735l13.761,8.757l-13.761,8.757l0,-17.514Zm-1.692,-4.77c-0.279,0 -0.558,0.069 -0.814,0.208c-0.539,0.297 -0.876,0.865 -0.876,1.483l0,23.672c0,0.618 0.337,1.186 0.878,1.483c0.254,0.139 0.534,0.208 0.813,0.208c0.317,0 0.631,-0.089 0.908,-0.264l18.6,-11.836c0.487,-0.311 0.783,-0.849 0.783,-1.427c0,-0.578 -0.296,-1.116 -0.783,-1.427l-18.6,-11.836c-0.278,-0.176 -0.593,-0.264 -0.909,-0.264Z" style="fill:#fe9394;fill-rule:nonzero;"/><path id="path-2" d="M163.982,45.437l0,55.8l-84.546,0l0,-55.8l84.546,0Zm0,59.182l0,27.055l-84.546,0l0,-27.055l84.546,0Zm-87.928,-62.563l0,93l91.309,0l0,-93l-91.309,0Z" style="fill:#b3b3b3;fill-rule:nonzero;"/><path id="path-3" d="M155.527,116.456l-40.582,0l0,-3.382c0,-0.935 -0.756,-1.691 -1.691,-1.691c-0.935,0 -1.691,0.756 -1.691,1.691l0,3.382l-6.763,0c-0.935,0 -1.691,0.755 -1.691,1.691c0,0.935 0.756,1.69 1.691,1.69l6.763,0l0,3.382c0,0.935 0.756,1.691 1.691,1.691c0.935,0 1.691,-0.756 1.691,-1.691l0,-3.382l40.582,0c0.935,0 1.691,-0.755 1.691,-1.69c0,-0.936 -0.756,-1.691 -1.691,-1.691Z" style="fill:#fe9394;fill-rule:nonzero;"/><path id="path-4" d="M87.891,111.383c-0.935,0 -1.691,0.756 -1.691,1.691l0,10.145c0,0.935 0.756,1.691 1.691,1.691c0.935,0 1.691,-0.756 1.691,-1.691l0,-10.145c0,-0.935 -0.756,-1.691 -1.691,-1.691Z" style="fill:#fe9394;fill-rule:nonzero;"/><path id="path-5" d="M94.654,111.383c-0.935,0 -1.691,0.756 -1.691,1.691l0,10.145c0,0.935 0.756,1.691 1.691,1.691c0.935,0 1.691,-0.756 1.691,-1.691l0,-10.145c0,-0.935 -0.756,-1.691 -1.691,-1.691Z" style="fill:#fe9394;fill-rule:nonzero;"/></g></g></svg>