<?xml version="1.0" encoding="UTF-8" standalone="no"?>
<!DOCTYPE svg PUBLIC "-//W3C//DTD SVG 1.1//EN" "http://www.w3.org/Graphics/SVG/1.1/DTD/svg11.dtd">
<svg width="100%" height="100%" viewBox="0 0 212 153" version="1.1" xmlns="http://www.w3.org/2000/svg" xmlns:xlink="http://www.w3.org/1999/xlink" xml:space="preserve" xmlns:serif="http://www.serif.com/" style="fill-rule:evenodd;clip-rule:evenodd;stroke-linejoin:round;stroke-miterlimit:1.41421;">
    <g id="topic-view-.--student" transform="matrix(0.392567,0,0,0.527343,-1769.77,-476.26)">
        <rect x="2610" y="0" width="2560" height="1440" style="fill:rgb(227,227,227);"/>
        <g id="locked-tile" transform="matrix(2.15818,0,0,1.6066,4123.71,547.869)">
            <g transform="matrix(1,0,0,1,178.15,221.123)">
                <path d="M124.786,98.796C124.03,99.492 123.596,100.466 123.596,101.467L123.596,108.499C123.596,109.368 122.872,110.075 121.983,110.075C121.094,110.075 120.37,109.368 120.37,108.499L120.37,101.467C120.37,100.466 119.936,99.493 119.18,98.797C118.353,98.034 117.898,97.002 117.898,95.89C117.898,93.689 119.73,91.898 121.983,91.898C124.235,91.898 126.068,93.689 126.068,95.89C126.068,97.002 125.613,98.034 124.786,98.796ZM121.983,88.149C117.615,88.149 114.061,91.622 114.061,95.89C114.061,98.007 114.962,100.054 116.534,101.51L116.534,108.499C116.534,111.435 118.978,113.824 121.983,113.824C124.988,113.824 127.433,111.435 127.433,108.499L127.433,101.51C129.004,100.054 129.905,98.007 129.905,95.89C129.905,91.622 126.351,88.149 121.983,88.149Z" style="fill:rgb(194,194,194);"/>
            </g>
            <g transform="matrix(1,0,0,1,178.15,221.123)">
                <path d="M147.129,118.377C147.129,119.41 146.269,120.251 145.211,120.251L98.755,120.251C97.697,120.251 96.837,119.41 96.837,118.377L96.837,83.597C96.837,82.563 97.697,81.722 98.755,81.722L145.211,81.722C146.269,81.722 147.129,82.563 147.129,83.597L147.129,118.377ZM108.346,63.073C108.346,55.726 114.463,49.749 121.983,49.749C129.502,49.749 135.62,55.726 135.62,63.073L135.62,77.973L108.346,77.973L108.346,63.073ZM145.211,77.973L139.456,77.973L139.456,63.073C139.456,53.659 131.618,46 121.983,46C112.348,46 104.51,53.659 104.51,63.073L104.51,77.973L98.755,77.973C95.582,77.973 93,80.496 93,83.597L93,118.377C93,121.477 95.582,124 98.755,124L145.211,124C148.384,124 150.966,121.477 150.966,118.377L150.966,83.597C150.966,80.496 148.384,77.973 145.211,77.973Z" style="fill:rgb(194,194,194);"/>
            </g>
        </g>
    </g>
</svg>
