<?xml version="1.0" encoding="UTF-8" standalone="no"?>
<!DOCTYPE svg PUBLIC "-//W3C//DTD SVG 1.1//EN" "http://www.w3.org/Graphics/SVG/1.1/DTD/svg11.dtd">
<svg width="100%" height="100%" viewBox="0 0 24 33" version="1.1" xmlns="http://www.w3.org/2000/svg" xmlns:xlink="http://www.w3.org/1999/xlink" xml:space="preserve" xmlns:serif="http://www.serif.com/" style="fill-rule:evenodd;clip-rule:evenodd;stroke-linejoin:round;stroke-miterlimit:1.41421;">
    <g transform="matrix(1,0,0,1,-5739.58,-14319.5)">
        <g transform="matrix(0.434442,0,0,0.530301,4179.38,14242.1)">
            <g transform="matrix(1.08688,0,0,1.08742,197.163,-65.0654)">
                <g transform="matrix(3.15039,0,0,2.46298,-15726.1,-28780.2)">
                    <path d="M5998.56,11779.2C5998.56,11779.6 5998.39,11780 5998.11,11780.2C5996.86,11781.4 5993.27,11784.6 5991.63,11786.1C5991.15,11786.5 5990.44,11786.5 5989.96,11786.1C5988.32,11784.6 5984.73,11781.4 5983.47,11780.2C5983.19,11780 5983.03,11779.6 5983.03,11779.2C5983.03,11776.9 5983.03,11768.5 5983.03,11765.2C5983.03,11764.9 5983.16,11764.5 5983.4,11764.3C5983.64,11764 5983.97,11763.9 5984.31,11763.9C5987.23,11763.9 5994.36,11763.9 5997.28,11763.9C5997.62,11763.9 5997.94,11764 5998.18,11764.3C5998.42,11764.5 5998.56,11764.9 5998.56,11765.2C5998.56,11768.5 5998.56,11776.9 5998.56,11779.2Z" style="fill:rgb(65,65,65);"/>
                </g>
                <g transform="matrix(2.33459,0,0,1.87101,-11299.1,-18694.7)">
                    <path d="M6187.68,10102.6C6187.74,10102.5 6187.86,10102.4 6187.99,10102.4C6188.12,10102.4 6188.24,10102.5 6188.3,10102.6L6189.93,10105.7L6193.34,10106.3C6193.47,10106.3 6193.58,10106.4 6193.62,10106.5C6193.66,10106.6 6193.62,10106.8 6193.53,10106.9L6191.14,10109.4L6191.61,10112.8C6191.63,10112.9 6191.57,10113.1 6191.47,10113.1C6191.36,10113.2 6191.22,10113.2 6191.11,10113.2L6187.99,10111.7L6184.87,10113.2C6184.75,10113.2 6184.61,10113.2 6184.51,10113.1C6184.4,10113.1 6184.35,10112.9 6184.37,10112.8L6184.84,10109.4L6182.44,10106.9C6182.35,10106.8 6182.32,10106.6 6182.36,10106.5C6182.4,10106.4 6182.51,10106.3 6182.63,10106.3L6186.04,10105.7L6187.68,10102.6Z" style="fill:white;"/>
                </g>
            </g>
        </g>
    </g>
</svg>
