<?xml version="1.0" encoding="UTF-8"?>
<svg width="30px" height="45px" viewBox="0 0 30 45" version="1.1" xmlns="http://www.w3.org/2000/svg" xmlns:xlink="http://www.w3.org/1999/xlink">
    <!-- Generator: Sketch 40.1 (33804) - http://www.bohemiancoding.com/sketch -->
    <title>Starred Copy 2</title>
    <desc>Created with Sketch.</desc>
    <defs>
        <path d="M0,0 L30,0 L30,34.875 L0,34.875 L0,0 Z M15,45 L30,34.875 L0,34.875 L15,45 Z" id="path-1"></path>
        <mask id="mask-2" maskContentUnits="userSpaceOnUse" maskUnits="objectBoundingBox" x="0" y="0" width="30" height="45" fill="white">
            <use xlink:href="#path-1"></use>
        </mask>
    </defs>
    <g id="Page-1" stroke="none" stroke-width="1" fill="none" fill-rule="evenodd">
        <g id="Starred-Copy-2">
            <use id="Combined-Shape" stroke="#FFFFFF" mask="url(#mask-2)" stroke-width="0" xlink:href="#path-1"></use>
            <path d="M15.4032844,28.4931837 C14.9102492,28.2363389 14.1065566,28.2385917 13.6178459,28.4931837 L9.52543192,30.6251112 C9.03239668,30.8819561 8.70803289,30.6408971 8.79914434,30.0974324 L9.72853412,24.5537761 L5.71816256,20.6151455 C5.32153233,20.2256105 5.45055908,19.8426309 5.99557973,19.7613432 L11.5551074,18.9321614 L14.0616947,13.9009676 C14.309599,13.403377 14.7137057,13.4077415 14.9594356,13.9009676 L17.4660229,18.9321614 L23.0255506,19.7613432 C23.5753941,19.8433502 23.696119,20.2290273 23.3029678,20.6151455 L19.2925962,24.5537761 L20.221986,30.0974324 C20.3139037,30.6457062 19.9844091,30.8797032 19.4956984,30.6251112 L15.4032844,28.4931837 Z" id="Star-1" stroke="#979797" fill="#FFFFFF"></path>
        </g>
    </g>
</svg>