<?xml version="1.0" encoding="UTF-8" standalone="no"?>
<!DOCTYPE svg PUBLIC "-//W3C//DTD SVG 1.1//EN" "http://www.w3.org/Graphics/SVG/1.1/DTD/svg11.dtd">
<svg width="100%" height="100%" viewBox="0 0 14 13" version="1.1" xmlns="http://www.w3.org/2000/svg" xmlns:xlink="http://www.w3.org/1999/xlink" xml:space="preserve" xmlns:serif="http://www.serif.com/" style="fill-rule:evenodd;clip-rule:evenodd;stroke-linejoin:round;stroke-miterlimit:1.41421;">
    <g transform="matrix(1,0,0,1,-5453.22,-11557.2)">
        <g transform="matrix(0.434442,0,0,0.530301,4085.82,11422.4)">
            <g transform="matrix(2.68202,0,0,2.15052,-13433.7,-21471.2)">
                <path d="M6187.68,10102.6C6187.74,10102.5 6187.86,10102.4 6187.99,10102.4C6188.12,10102.4 6188.24,10102.5 6188.3,10102.6L6189.93,10105.7L6193.34,10106.3C6193.47,10106.3 6193.58,10106.4 6193.62,10106.5C6193.66,10106.6 6193.62,10106.8 6193.53,10106.9L6191.14,10109.4L6191.61,10112.8C6191.63,10112.9 6191.57,10113.1 6191.47,10113.1C6191.36,10113.2 6191.22,10113.2 6191.11,10113.2L6187.99,10111.7L6184.87,10113.2C6184.75,10113.2 6184.61,10113.2 6184.51,10113.1C6184.4,10113.1 6184.35,10112.9 6184.37,10112.8L6184.84,10109.4L6182.44,10106.9C6182.35,10106.8 6182.32,10106.6 6182.36,10106.5C6182.4,10106.4 6182.51,10106.3 6182.63,10106.3L6186.04,10105.7L6187.68,10102.6Z" style="fill:white;"/>
                <path d="M6188.01,10102.4L6188.04,10102.4L6188.06,10102.4L6188.08,10102.4L6188.11,10102.4L6188.13,10102.5L6188.15,10102.5L6188.17,10102.5L6188.19,10102.5L6188.21,10102.5L6188.23,10102.5L6188.24,10102.5L6188.26,10102.6L6188.27,10102.6L6188.29,10102.6L6188.3,10102.6L6189.93,10105.7L6193.34,10106.3L6193.37,10106.3L6193.39,10106.3L6193.41,10106.3L6193.43,10106.3L6193.45,10106.3L6193.48,10106.3L6193.49,10106.3L6193.51,10106.4L6193.53,10106.4L6193.55,10106.4L6193.56,10106.4L6193.57,10106.4L6193.59,10106.4L6193.6,10106.5L6193.61,10106.5L6193.62,10106.5L6193.62,10106.5L6193.63,10106.6L6193.63,10106.6L6193.63,10106.6L6193.63,10106.6L6193.63,10106.7L6193.63,10106.7L6193.62,10106.7L6193.62,10106.7L6193.61,10106.7L6193.6,10106.8L6193.59,10106.8L6193.58,10106.8L6193.57,10106.8L6193.55,10106.8L6193.53,10106.9L6191.14,10109.4L6191.61,10112.8L6191.61,10112.8L6191.61,10112.8L6191.61,10112.9L6191.61,10112.9L6191.6,10112.9L6191.6,10112.9L6191.59,10113L6191.58,10113L6191.57,10113L6191.56,10113L6191.55,10113L6191.53,10113.1L6191.52,10113.1L6191.5,10113.1L6191.49,10113.1L6191.47,10113.1L6191.45,10113.1L6191.43,10113.2L6191.4,10113.2L6191.38,10113.2L6191.36,10113.2L6191.34,10113.2L6191.31,10113.2L6191.29,10113.2L6191.27,10113.2L6191.24,10113.2L6191.22,10113.2L6191.2,10113.2L6191.17,10113.2L6191.15,10113.2L6191.13,10113.2L6191.11,10113.2L6187.99,10111.7L6184.87,10113.2L6184.85,10113.2L6184.83,10113.2L6184.8,10113.2L6184.78,10113.2L6184.76,10113.2L6184.73,10113.2L6184.71,10113.2L6184.69,10113.2L6184.66,10113.2L6184.64,10113.2L6184.62,10113.2L6184.59,10113.2L6184.57,10113.2L6184.55,10113.2L6184.53,10113.1L6184.51,10113.1L6184.49,10113.1L6184.47,10113.1L6184.46,10113.1L6184.44,10113.1L6184.43,10113L6184.41,10113L6184.4,10113L6184.39,10113L6184.38,10113L6184.38,10112.9L6184.37,10112.9L6184.37,10112.9L6184.36,10112.9L6184.36,10112.8L6184.36,10112.8L6184.37,10112.8L6184.84,10109.4L6182.44,10106.9L6182.43,10106.8L6182.41,10106.8L6182.4,10106.8L6182.39,10106.8L6182.37,10106.8L6182.36,10106.7L6182.36,10106.7L6182.35,10106.7L6182.35,10106.7L6182.34,10106.7L6182.34,10106.6L6182.34,10106.6L6182.35,10106.6L6182.35,10106.6L6182.35,10106.5L6182.36,10106.5L6182.37,10106.5L6182.38,10106.5L6182.39,10106.4L6182.4,10106.4L6182.41,10106.4L6182.43,10106.4L6182.45,10106.4L6182.46,10106.4L6182.48,10106.3L6182.5,10106.3L6182.52,10106.3L6182.54,10106.3L6182.56,10106.3L6182.59,10106.3L6182.61,10106.3L6182.63,10106.3L6186.04,10105.7L6187.68,10102.6L6187.69,10102.6L6187.7,10102.6L6187.72,10102.6L6187.73,10102.5L6187.75,10102.5L6187.77,10102.5L6187.79,10102.5L6187.81,10102.5L6187.83,10102.5L6187.85,10102.5L6187.87,10102.4L6187.89,10102.4L6187.92,10102.4L6187.94,10102.4L6187.96,10102.4L6187.99,10102.4L6188.01,10102.4ZM6186.53,10105.9L6186.51,10106L6186.48,10106L6186.44,10106.1L6186.41,10106.1L6186.37,10106.1L6186.32,10106.2L6186.28,10106.2L6186.24,10106.2L6186.19,10106.2L6186.14,10106.2L6183.12,10106.8L6185.24,10109L6185.27,10109L6185.3,10109L6185.32,10109.1L6185.34,10109.1L6185.36,10109.2L6185.38,10109.2L6185.39,10109.3L6185.39,10109.3L6185.4,10109.3L6185.4,10109.4L6185.39,10109.4L6184.97,10112.5L6187.75,10111.1L6187.79,10111.1L6187.84,10111.1L6187.89,10111.1L6187.94,10111.1L6187.99,10111.1L6188.04,10111.1L6188.09,10111.1L6188.13,10111.1L6188.18,10111.1L6188.23,10111.1L6191,10112.5L6190.58,10109.4L6190.58,10109.4L6190.58,10109.3L6190.58,10109.3L6190.59,10109.3L6190.6,10109.2L6190.61,10109.2L6190.63,10109.1L6190.65,10109.1L6190.68,10109L6190.71,10109L6190.74,10109L6192.85,10106.8L6189.84,10106.2L6189.79,10106.2L6189.74,10106.2L6189.69,10106.2L6189.65,10106.2L6189.61,10106.1L6189.57,10106.1L6189.53,10106.1L6189.5,10106L6189.47,10106L6189.44,10105.9L6187.99,10103.2L6186.53,10105.9Z" style="fill:rgb(51,51,51);"/>
            </g>
        </g>
    </g>
</svg>
