<?xml version="1.0" encoding="iso-8859-1"?>
<!-- Generator: Adobe Illustrator 17.1.0, SVG Export Plug-In . SVG Version: 6.00 Build 0)  -->
<!DOCTYPE svg PUBLIC "-//W3C//DTD SVG 1.1//EN" "http://www.w3.org/Graphics/SVG/1.1/DTD/svg11.dtd">
<svg version="1.1" id="Layer_1" xmlns="http://www.w3.org/2000/svg" xmlns:xlink="http://www.w3.org/1999/xlink" x="0px" y="0px"
	 viewBox="0 0 35 35" style="enable-background:new 0 0 35 35;" xml:space="preserve">
<path style="fill:#333333;" d="M29.874,5.126C26.569,1.82,22.174,0,17.5,0C7.851,0,0,7.851,0,17.5c0,4.674,1.82,9.069,5.126,12.374
	C8.431,33.18,12.826,35,17.5,35C27.15,35,35,27.15,35,17.5C35,12.826,33.18,8.431,29.874,5.126z"/>
<g>
	<path style="fill:#FFFFFF;" d="M17.5,19.018l6.077,6.077c0.478,0.478,1.253,0.478,1.732,0c0.478-0.478,0.478-1.253,0-1.732
		l-5.936-5.936l5.79-5.79c0.478-0.478,0.478-1.253,0-1.732c-0.478-0.478-1.253-0.478-1.732,0L17.5,15.837l-5.931-5.931
		c-0.478-0.478-1.253-0.478-1.732,0c-0.478,0.478-0.478,1.253,0,1.732l5.79,5.79l-5.936,5.936c-0.239,0.239-0.359,0.552-0.359,0.866
		c0,0.313,0.12,0.627,0.359,0.866c0.478,0.478,1.253,0.478,1.732,0L17.5,19.018z"/>
</g>
</svg>
